<svg width="624" height="369" viewBox="0 0 624 369" fill="none" xmlns="http://www.w3.org/2000/svg">
<path d="M624 0H49L0 50V369H574L624 319V0Z" fill="#F8F200"/>
<path d="M107.2 111.56H110.92V126.44H103.48V119H77.44V126.44H70V111.56H73.72V92.34C73.72 84.9 77.44 81.18 84.88 81.18H96.04C103.48 81.18 107.2 84.9 107.2 92.34V111.56ZM99.76 111.56V92.34C99.76 89.86 98.52 88.62 96.04 88.62H84.88C82.4 88.62 81.16 89.86 81.16 92.34V111.56H99.76ZM141.903 109.39C141.903 116.21 138.493 119.62 131.673 119.62H124.853C118.033 119.62 114.623 116.21 114.623 109.39V101.33C114.623 94.51 118.033 91.1 124.853 91.1H131.673C138.493 91.1 141.903 94.51 141.903 101.33V109.39ZM135.083 109.39V101.33C135.083 99.0567 133.946 97.92 131.673 97.92H124.853C122.58 97.92 121.443 99.0567 121.443 101.33V109.39C121.443 111.663 122.58 112.8 124.853 112.8H131.673C133.946 112.8 135.083 111.663 135.083 109.39ZM172.903 119H155.853C149.033 119 145.623 115.59 145.623 108.77V101.95C145.623 95.13 149.033 91.72 155.853 91.72H172.903V98.54H155.853C153.58 98.54 152.443 99.6767 152.443 101.95V108.77C152.443 111.043 153.58 112.18 155.853 112.18H172.903V119ZM203.903 98.54H193.673V119H186.853V98.54H176.623V91.72H203.903V98.54ZM211.343 132.64H214.505C219.01 132.64 222.586 129.974 225.231 124.642L228.021 119L241.661 91.72H234.035L224.673 110.63L215.249 91.72H207.623L220.705 117.884L218.721 121.976C216.985 124.539 215.559 125.82 214.443 125.82H211.343V132.64ZM250.347 119V98.54H260.577C262.851 98.54 263.987 99.6767 263.987 101.95V119H270.807V101.95C270.807 95.13 267.397 91.72 260.577 91.72H243.527V119H250.347ZM301.807 119H294.987V108.77H281.347V119H274.527V91.72H281.347V101.95H294.987V91.72H301.807V119ZM332.807 109.39C332.807 116.21 329.397 119.62 322.577 119.62H315.757C308.937 119.62 305.527 116.21 305.527 109.39V101.33C305.527 94.51 308.937 91.1 315.757 91.1H322.577C329.397 91.1 332.807 94.51 332.807 101.33V109.39ZM325.987 109.39V101.33C325.987 99.0567 324.851 97.92 322.577 97.92H315.757C313.484 97.92 312.347 99.0567 312.347 101.33V109.39C312.347 111.663 313.484 112.8 315.757 112.8H322.577C324.851 112.8 325.987 111.663 325.987 109.39ZM394.807 119H387.987V108.77H374.347V119H367.527V91.72H374.347V101.95H387.987V91.72H394.807V119ZM425.807 119V101.95C425.807 95.13 422.397 91.72 415.577 91.72H399.767V98.54H415.577C417.851 98.54 418.987 99.656 418.987 101.888V101.95H407.083C401.379 101.95 398.527 104.74 398.527 110.32C398.527 116.107 401.379 119 407.083 119H425.807ZM405.347 110.444C405.347 109.328 405.926 108.77 407.083 108.77H418.987V112.18H407.083C405.926 112.18 405.347 111.601 405.347 110.444ZM94.924 168.298C96.4947 166.769 97.28 165.115 97.28 163.338C97.2387 157.593 94.3867 154.72 88.724 154.72H70V182H88.724C94.428 182 97.28 179.21 97.28 173.63C97.28 171.687 96.4947 169.91 94.924 168.298ZM88.724 164.95H76.82V161.54H88.724C89.8813 161.54 90.46 162.16 90.46 163.4C90.46 164.433 89.8813 164.95 88.724 164.95ZM88.724 175.18H76.82V171.77H88.724C89.8813 171.77 90.46 172.39 90.46 173.63C90.46 174.663 89.8813 175.18 88.724 175.18ZM128.28 182H111.23C104.41 182 101 178.59 101 171.77V164.95C101 158.13 104.41 154.72 111.23 154.72H128.28V161.54H111.23C108.957 161.54 107.82 162.677 107.82 164.95V171.77C107.82 174.043 108.957 175.18 111.23 175.18H128.28V182ZM159.9 171.15V164.33C159.9 157.51 156.428 154.1 149.484 154.1H142.416C135.472 154.1 132 157.51 132 164.33V171.15V171.77C132 178.59 135.41 182 142.23 182H158.66V175.18H142.23C139.957 175.18 138.82 174.043 138.82 171.77V171.15H159.9ZM138.82 164.33C138.82 162.057 139.957 160.92 142.23 160.92H149.67C151.943 160.92 153.08 162.057 153.08 164.33H138.82ZM173.153 168.36L163.605 182H171.913L177.245 174.374L182.577 182H190.885L181.399 168.36L190.885 154.72H182.577L177.245 162.408L171.913 154.72H163.605L173.153 168.36ZM230.549 182V161.54H240.779C243.052 161.54 244.189 162.677 244.189 164.95V182H251.009V164.95C251.009 158.13 247.599 154.72 240.779 154.72H223.729V182H230.549ZM275.189 182V161.54H268.369C266.509 161.54 265.372 162.677 264.959 164.95L261.549 182H254.915L258.139 164.95C259.048 158.13 262.458 154.72 268.369 154.72H282.009V182H275.189ZM313.009 182V164.95C313.009 158.13 309.599 154.72 302.779 154.72H286.969V161.54H302.779C305.052 161.54 306.189 162.656 306.189 164.888V164.95H294.285C288.581 164.95 285.729 167.74 285.729 173.32C285.729 179.107 288.581 182 294.285 182H313.009ZM292.549 173.444C292.549 172.328 293.127 171.77 294.285 171.77H306.189V175.18H294.285C293.127 175.18 292.549 174.601 292.549 173.444ZM344.009 161.54H333.779V182H326.959V161.54H316.729V154.72H344.009V161.54ZM388.649 164.95C388.649 158.13 385.239 154.72 378.419 154.72H357.959C351.139 154.72 347.729 158.13 347.729 164.95V171.77C347.729 178.59 351.139 182 357.959 182H364.779V195.64H371.599V182H378.295C385.197 182 388.649 178.59 388.649 171.77V164.95ZM371.599 161.54H378.419C380.692 161.54 381.829 162.677 381.829 164.95V171.77C381.829 174.043 380.692 175.18 378.419 175.18H371.599V161.54ZM364.779 175.18H357.959C355.685 175.18 354.549 174.043 354.549 171.77V164.95C354.549 162.677 355.685 161.54 357.959 161.54H364.779V175.18ZM419.632 172.39C419.632 179.21 416.222 182.62 409.402 182.62H402.582C395.762 182.62 392.352 179.21 392.352 172.39V164.33C392.352 157.51 395.762 154.1 402.582 154.1H409.402C416.222 154.1 419.632 157.51 419.632 164.33V172.39ZM412.812 172.39V164.33C412.812 162.057 411.675 160.92 409.402 160.92H402.582C400.308 160.92 399.172 162.057 399.172 164.33V172.39C399.172 174.663 400.308 175.8 402.582 175.8H409.402C411.675 175.8 412.812 174.663 412.812 172.39ZM450.632 164.95C450.632 158.13 447.222 154.72 440.402 154.72H423.352V195.64H430.172V182H440.278C447.18 182 450.632 178.59 450.632 171.77V164.95ZM430.172 161.54H440.402C442.675 161.54 443.812 162.677 443.812 164.95V171.77C443.812 174.043 442.675 175.18 440.402 175.18H430.172V161.54ZM488.452 182H481.632V166.872L471.402 182L461.172 166.872V182H454.352V154.72H461.172L471.402 169.848L481.632 154.72H488.452V182ZM519.473 182V164.95C519.473 158.13 516.063 154.72 509.243 154.72H493.433V161.54H509.243C511.517 161.54 512.653 162.656 512.653 164.888V164.95H500.749C495.045 164.95 492.193 167.74 492.193 173.32C492.193 179.107 495.045 182 500.749 182H519.473ZM499.013 173.444C499.013 172.328 499.592 171.77 500.749 171.77H512.653V175.18H500.749C499.592 175.18 499.013 174.601 499.013 173.444ZM532.741 168.36L523.193 182H531.501L536.833 174.374L542.165 182H550.473L540.987 168.36L550.473 154.72H542.165L536.833 162.408L531.501 154.72H523.193L532.741 168.36Z" fill="black"/>
<rect width="272" height="78" transform="translate(70 221)" fill="black"/>
<path d="M128 259L131.105 250.938H134.902L128.938 265.012L128.457 265.938C127.574 267.477 126.223 268.246 124.402 268.246L123.172 268.199L123.137 265.375C123.324 265.406 123.629 265.422 124.051 265.422C124.543 265.422 124.938 265.336 125.234 265.164C125.539 264.992 125.793 264.676 125.996 264.215L126.43 263.102L120.441 250.938H124.227L128 259ZM142.707 259.059C142.707 258.613 142.559 258.27 142.262 258.027C141.973 257.777 141.559 257.652 141.02 257.652C140.465 257.652 140.012 257.77 139.66 258.004C139.316 258.23 139.145 258.555 139.145 258.977H135.758C135.758 257.828 136.234 256.895 137.188 256.176C138.141 255.457 139.359 255.098 140.844 255.098C142.477 255.098 143.758 255.418 144.688 256.059C145.625 256.699 146.094 257.609 146.094 258.789C146.094 259.352 145.922 259.871 145.578 260.348C145.242 260.816 144.766 261.191 144.148 261.473C145.594 261.98 146.316 262.961 146.316 264.414C146.316 265.578 145.816 266.508 144.816 267.203C143.824 267.891 142.5 268.234 140.844 268.234C139.305 268.234 138.039 267.875 137.047 267.156C136.055 266.438 135.559 265.469 135.559 264.25H138.945C138.945 264.68 139.137 265.027 139.52 265.293C139.902 265.559 140.402 265.691 141.02 265.691C141.621 265.691 142.09 265.551 142.426 265.27C142.762 264.988 142.93 264.621 142.93 264.168C142.93 263.613 142.77 263.219 142.449 262.984C142.129 262.742 141.648 262.621 141.008 262.621H139.168V260.418H141.125C142.18 260.387 142.707 259.934 142.707 259.059ZM159.371 268H155.973V263.125H151.766V268H148.379V255.32H151.766V260.406H155.973V255.32H159.371V268ZM169.344 268C169.188 267.695 169.074 267.316 169.004 266.863C168.184 267.777 167.117 268.234 165.805 268.234C164.562 268.234 163.531 267.875 162.711 267.156C161.898 266.438 161.492 265.531 161.492 264.438C161.492 263.094 161.988 262.062 162.98 261.344C163.98 260.625 165.422 260.262 167.305 260.254H168.863V259.527C168.863 258.941 168.711 258.473 168.406 258.121C168.109 257.77 167.637 257.594 166.988 257.594C166.418 257.594 165.969 257.73 165.641 258.004C165.32 258.277 165.16 258.652 165.16 259.129H161.773C161.773 258.395 162 257.715 162.453 257.09C162.906 256.465 163.547 255.977 164.375 255.625C165.203 255.266 166.133 255.086 167.164 255.086C168.727 255.086 169.965 255.48 170.879 256.27C171.801 257.051 172.262 258.152 172.262 259.574V265.07C172.27 266.273 172.438 267.184 172.766 267.801V268H169.344ZM166.543 265.645C167.043 265.645 167.504 265.535 167.926 265.316C168.348 265.09 168.66 264.789 168.863 264.414V262.234H167.598C165.902 262.234 165 262.82 164.891 263.992L164.879 264.191C164.879 264.613 165.027 264.961 165.324 265.234C165.621 265.508 166.027 265.645 166.543 265.645ZM185.199 258.039H181.133V268H177.734V258.039H173.738V255.32H185.199V258.039ZM190.531 259.035H192.957C194.051 259.035 195.012 259.219 195.84 259.586C196.668 259.953 197.301 260.48 197.738 261.168C198.184 261.848 198.406 262.641 198.406 263.547C198.406 264.883 197.91 265.961 196.918 266.781C195.934 267.594 194.59 268 192.887 268H187.133V255.32H190.531V259.035ZM190.531 261.754V265.293H192.934C193.605 265.293 194.121 265.137 194.48 264.824C194.84 264.512 195.02 264.086 195.02 263.547C195.02 263 194.844 262.566 194.492 262.246C194.141 261.918 193.621 261.754 192.934 261.754H190.531ZM212.586 256.023C214.211 256.023 215.508 256.562 216.477 257.641C217.445 258.719 217.93 260.184 217.93 262.035V262.199C217.93 264.027 217.391 265.492 216.312 266.594C215.234 267.695 213.785 268.246 211.965 268.246C210.137 268.246 208.68 267.652 207.594 266.465C206.516 265.27 205.977 263.648 205.977 261.602V261.039C205.992 258.188 206.473 255.957 207.418 254.348C208.371 252.73 209.801 251.711 211.707 251.289C212.707 251.07 213.352 250.855 213.641 250.645C213.93 250.426 214.074 250.125 214.074 249.742H216.816C216.816 250.969 216.484 251.891 215.82 252.508C215.164 253.125 213.992 253.602 212.305 253.938C211.305 254.141 210.516 254.535 209.938 255.121C209.359 255.707 208.969 256.531 208.766 257.594C209.844 256.547 211.117 256.023 212.586 256.023ZM211.941 258.766C211.137 258.766 210.504 259.035 210.043 259.574C209.59 260.113 209.363 260.988 209.363 262.199C209.363 263.277 209.586 264.102 210.031 264.672C210.477 265.234 211.121 265.516 211.965 265.516C212.785 265.516 213.418 265.238 213.863 264.684C214.309 264.129 214.535 263.312 214.543 262.234V261.953C214.543 260.914 214.312 260.125 213.852 259.586C213.398 259.039 212.762 258.766 211.941 258.766ZM219.43 261.543C219.43 260.285 219.672 259.164 220.156 258.18C220.641 257.195 221.336 256.434 222.242 255.895C223.156 255.355 224.215 255.086 225.418 255.086C227.129 255.086 228.523 255.609 229.602 256.656C230.688 257.703 231.293 259.125 231.418 260.922L231.441 261.789C231.441 263.734 230.898 265.297 229.812 266.477C228.727 267.648 227.27 268.234 225.441 268.234C223.613 268.234 222.152 267.648 221.059 266.477C219.973 265.305 219.43 263.711 219.43 261.695V261.543ZM222.816 261.789C222.816 262.992 223.043 263.914 223.496 264.555C223.949 265.188 224.598 265.504 225.441 265.504C226.262 265.504 226.902 265.191 227.363 264.566C227.824 263.934 228.055 262.926 228.055 261.543C228.055 260.363 227.824 259.449 227.363 258.801C226.902 258.152 226.254 257.828 225.418 257.828C224.59 257.828 223.949 258.152 223.496 258.801C223.043 259.441 222.816 260.438 222.816 261.789ZM244.367 255.32V268H240.98V258.062H237.992L237.781 261.977C237.648 264.062 237.238 265.582 236.551 266.535C235.863 267.488 234.84 267.977 233.48 268H232.332L232.297 265.246L232.719 265.211C233.328 265.164 233.773 264.805 234.055 264.133C234.336 263.461 234.512 262.316 234.582 260.699L234.816 255.32H244.367ZM250.602 259.035H253.027C254.121 259.035 255.082 259.219 255.91 259.586C256.738 259.953 257.371 260.48 257.809 261.168C258.254 261.848 258.477 262.641 258.477 263.547C258.477 264.883 257.98 265.961 256.988 266.781C256.004 267.594 254.66 268 252.957 268H247.203V255.32H250.602V259.035ZM250.602 261.754V265.293H253.004C253.676 265.293 254.191 265.137 254.551 264.824C254.91 264.512 255.09 264.086 255.09 263.547C255.09 263 254.914 262.566 254.562 262.246C254.211 261.918 253.691 261.754 253.004 261.754H250.602ZM263.773 255.32V265.27H267.254V255.32H270.652V265.27H274.133V255.32H277.52V268H260.387V255.32H263.773ZM286.074 268.234C284.215 268.234 282.699 267.664 281.527 266.523C280.363 265.383 279.781 263.863 279.781 261.965V261.637C279.781 260.363 280.027 259.227 280.52 258.227C281.012 257.219 281.707 256.445 282.605 255.906C283.512 255.359 284.543 255.086 285.699 255.086C287.434 255.086 288.797 255.633 289.789 256.727C290.789 257.82 291.289 259.371 291.289 261.379V262.762H283.215C283.324 263.59 283.652 264.254 284.199 264.754C284.754 265.254 285.453 265.504 286.297 265.504C287.602 265.504 288.621 265.031 289.355 264.086L291.02 265.949C290.512 266.668 289.824 267.23 288.957 267.637C288.09 268.035 287.129 268.234 286.074 268.234ZM285.688 257.828C285.016 257.828 284.469 258.055 284.047 258.508C283.633 258.961 283.367 259.609 283.25 260.453H287.961V260.184C287.945 259.434 287.742 258.855 287.352 258.449C286.961 258.035 286.406 257.828 285.688 257.828Z" fill="#F8F200"/>
</svg>
