<svg width="252" height="12" viewBox="0 0 252 12" fill="none" xmlns="http://www.w3.org/2000/svg">
<path d="M6.58398 6.29297C6.47852 7.19531 6.14453 7.89258 5.58203 8.38477C5.02344 8.87305 4.2793 9.11719 3.34961 9.11719C2.3418 9.11719 1.5332 8.75586 0.923828 8.0332C0.318359 7.31055 0.015625 6.34375 0.015625 5.13281V4.3125C0.015625 3.51953 0.15625 2.82227 0.4375 2.2207C0.722656 1.61914 1.125 1.1582 1.64453 0.837891C2.16406 0.513672 2.76562 0.351562 3.44922 0.351562C4.35547 0.351562 5.08203 0.605469 5.62891 1.11328C6.17578 1.61719 6.49414 2.31641 6.58398 3.21094H5.45312C5.35547 2.53125 5.14258 2.03906 4.81445 1.73438C4.49023 1.42969 4.03516 1.27734 3.44922 1.27734C2.73047 1.27734 2.16602 1.54297 1.75586 2.07422C1.34961 2.60547 1.14648 3.36133 1.14648 4.3418V5.16797C1.14648 6.09375 1.33984 6.83008 1.72656 7.37695C2.11328 7.92383 2.6543 8.19727 3.34961 8.19727C3.97461 8.19727 4.45312 8.05664 4.78516 7.77539C5.12109 7.49023 5.34375 6.99609 5.45312 6.29297H6.58398ZM8.125 9V0.46875H10.5332C11.2754 0.46875 11.9316 0.632812 12.502 0.960938C13.0723 1.28906 13.5117 1.75586 13.8203 2.36133C14.1328 2.9668 14.291 3.66211 14.2949 4.44727V4.99219C14.2949 5.79688 14.1387 6.50195 13.8262 7.10742C13.5176 7.71289 13.0742 8.17773 12.4961 8.50195C11.9219 8.82617 11.252 8.99219 10.4863 9H8.125ZM9.25 1.39453V8.08008H10.4336C11.3008 8.08008 11.9746 7.81055 12.4551 7.27148C12.9395 6.73242 13.1816 5.96484 13.1816 4.96875V4.4707C13.1816 3.50195 12.9531 2.75 12.4961 2.21484C12.043 1.67578 11.3984 1.40234 10.5625 1.39453H9.25ZM20.1016 5.66016V9H18.9766V0.46875H22.123C23.0566 0.46875 23.7871 0.707031 24.3145 1.18359C24.8457 1.66016 25.1113 2.29102 25.1113 3.07617C25.1113 3.9043 24.8516 4.54297 24.332 4.99219C23.8164 5.4375 23.0762 5.66016 22.1113 5.66016H20.1016ZM20.1016 4.74023H22.123C22.7246 4.74023 23.1855 4.59961 23.5059 4.31836C23.8262 4.0332 23.9863 3.62305 23.9863 3.08789C23.9863 2.58008 23.8262 2.17383 23.5059 1.86914C23.1855 1.56445 22.7461 1.40625 22.1875 1.39453H20.1016V4.74023ZM29.6758 5.54883H27.6719V9H26.541V0.46875H29.3652C30.3262 0.46875 31.0645 0.6875 31.5801 1.125C32.0996 1.5625 32.3594 2.19922 32.3594 3.03516C32.3594 3.56641 32.2148 4.0293 31.9258 4.42383C31.6406 4.81836 31.2422 5.11328 30.7305 5.30859L32.7344 8.92969V9H31.5273L29.6758 5.54883ZM27.6719 4.62891H29.4004C29.959 4.62891 30.4023 4.48438 30.7305 4.19531C31.0625 3.90625 31.2285 3.51953 31.2285 3.03516C31.2285 2.50781 31.0703 2.10352 30.7539 1.82227C30.4414 1.54102 29.9883 1.39844 29.3945 1.39453H27.6719V4.62891ZM40.5039 5.00977C40.5039 5.8457 40.3633 6.57617 40.082 7.20117C39.8008 7.82227 39.4023 8.29688 38.8867 8.625C38.3711 8.95312 37.7695 9.11719 37.082 9.11719C36.4102 9.11719 35.8145 8.95312 35.2949 8.625C34.7754 8.29297 34.3711 7.82227 34.082 7.21289C33.7969 6.59961 33.6504 5.89062 33.6426 5.08594V4.4707C33.6426 3.65039 33.7852 2.92578 34.0703 2.29688C34.3555 1.66797 34.7578 1.1875 35.2773 0.855469C35.8008 0.519531 36.3984 0.351562 37.0703 0.351562C37.7539 0.351562 38.3555 0.517578 38.875 0.849609C39.3984 1.17773 39.8008 1.65625 40.082 2.28516C40.3633 2.91016 40.5039 3.63867 40.5039 4.4707V5.00977ZM39.3848 4.45898C39.3848 3.44727 39.1816 2.67188 38.7754 2.13281C38.3691 1.58984 37.8008 1.31836 37.0703 1.31836C36.3594 1.31836 35.7988 1.58984 35.3887 2.13281C34.9824 2.67188 34.7734 3.42188 34.7617 4.38281V5.00977C34.7617 5.99023 34.9668 6.76172 35.377 7.32422C35.791 7.88281 36.3594 8.16211 37.082 8.16211C37.8086 8.16211 38.3711 7.89844 38.7695 7.37109C39.168 6.83984 39.373 6.08008 39.3848 5.0918V4.45898ZM45.7656 0.46875H46.8965V6.50977C46.8965 7.32617 46.6504 7.96484 46.1582 8.42578C45.6699 8.88672 45.0176 9.11719 44.2012 9.11719C43.3535 9.11719 42.6934 8.90039 42.2207 8.4668C41.748 8.0332 41.5117 7.42578 41.5117 6.64453H42.6367C42.6367 7.13281 42.7695 7.51367 43.0352 7.78711C43.3047 8.06055 43.6934 8.19727 44.2012 8.19727C44.666 8.19727 45.041 8.05078 45.3262 7.75781C45.6152 7.46484 45.7617 7.05469 45.7656 6.52734V0.46875ZM53.6348 5.05664H49.9375V8.08008H54.2324V9H48.8125V0.46875H54.1738V1.39453H49.9375V4.13672H53.6348V5.05664ZM57.8008 5.0332L56.7578 6.11719V9H55.6328V0.46875H56.7578V4.6875L60.5488 0.46875H61.9082L58.5508 4.23633L62.1719 9H60.8242L57.8008 5.0332ZM69.0508 1.39453H66.3086V9H65.1895V1.39453H62.4531V0.46875H69.0508V1.39453ZM69.8535 4.72852C69.8535 3.93945 70.0352 3.20703 70.3984 2.53125C70.7656 1.85547 71.2715 1.32422 71.916 0.9375C72.5645 0.546875 73.2637 0.351562 74.0137 0.351562C74.7637 0.351562 75.4609 0.546875 76.1055 0.9375C76.75 1.32422 77.2539 1.85547 77.6172 2.53125C77.9844 3.20703 78.168 3.93945 78.168 4.72852C78.168 5.49805 77.9922 6.21875 77.6406 6.89062C77.2891 7.5625 76.7891 8.10352 76.1406 8.51367C75.4961 8.91992 74.7871 9.12305 74.0137 9.12305C73.2441 9.12305 72.5352 8.92188 71.8867 8.51953C71.2422 8.11328 70.7422 7.57422 70.3867 6.90234C70.0312 6.23047 69.8535 5.50586 69.8535 4.72852ZM70.5273 4.72852C70.5273 5.40039 70.6836 6.02344 70.9961 6.59766C71.3086 7.16797 71.7324 7.61523 72.2676 7.93945C72.8066 8.26367 73.3887 8.42578 74.0137 8.42578C74.6426 8.42578 75.2266 8.26172 75.7656 7.93359C76.3047 7.60156 76.7266 7.15234 77.0312 6.58594C77.3398 6.01953 77.4941 5.40039 77.4941 4.72852C77.4941 4.06055 77.3398 3.44531 77.0312 2.88281C76.7266 2.31641 76.3047 1.87109 75.7656 1.54688C75.2266 1.21875 74.6426 1.05469 74.0137 1.05469C73.3887 1.05469 72.8066 1.2168 72.2676 1.54102C71.7285 1.86133 71.3027 2.30664 70.9902 2.87695C70.6816 3.44727 70.5273 4.06445 70.5273 4.72852ZM73.1523 5.16797V7.14844H72.3262V2.17383H73.9434C74.541 2.17383 75.0039 2.30273 75.332 2.56055C75.6641 2.81445 75.8301 3.18555 75.8301 3.67383C75.8301 4.1543 75.5801 4.52148 75.0801 4.77539C75.5566 4.9707 75.7969 5.36914 75.8008 5.9707V6.32812C75.8008 6.66406 75.834 6.90625 75.9004 7.05469V7.14844H75.0508C74.9961 7.00781 74.9688 6.75781 74.9688 6.39844C74.9688 6.03516 74.9629 5.82031 74.9512 5.75391C74.8887 5.37891 74.6328 5.18359 74.1836 5.16797H73.1523ZM73.1523 4.41797H74.0664C74.3477 4.41016 74.5742 4.3418 74.7461 4.21289C74.918 4.08398 75.0039 3.91406 75.0039 3.70312C75.0039 3.41797 74.9277 3.2168 74.7754 3.09961C74.623 2.97852 74.3516 2.91797 73.9609 2.91797H73.1523V4.41797ZM79.5449 10.6992L78.9297 10.2773C79.2969 9.76562 79.4883 9.23828 79.5039 8.69531V7.7168H80.5645V8.56641C80.5645 8.96094 80.4668 9.35547 80.2715 9.75C80.0801 10.1445 79.8379 10.4609 79.5449 10.6992ZM91.3574 6.29297C91.252 7.19531 90.918 7.89258 90.3555 8.38477C89.7969 8.87305 89.0527 9.11719 88.123 9.11719C87.1152 9.11719 86.3066 8.75586 85.6973 8.0332C85.0918 7.31055 84.7891 6.34375 84.7891 5.13281V4.3125C84.7891 3.51953 84.9297 2.82227 85.2109 2.2207C85.4961 1.61914 85.8984 1.1582 86.418 0.837891C86.9375 0.513672 87.5391 0.351562 88.2227 0.351562C89.1289 0.351562 89.8555 0.605469 90.4023 1.11328C90.9492 1.61719 91.2676 2.31641 91.3574 3.21094H90.2266C90.1289 2.53125 89.916 2.03906 89.5879 1.73438C89.2637 1.42969 88.8086 1.27734 88.2227 1.27734C87.5039 1.27734 86.9395 1.54297 86.5293 2.07422C86.123 2.60547 85.9199 3.36133 85.9199 4.3418V5.16797C85.9199 6.09375 86.1133 6.83008 86.5 7.37695C86.8867 7.92383 87.4277 8.19727 88.123 8.19727C88.748 8.19727 89.2266 8.05664 89.5586 7.77539C89.8945 7.49023 90.1172 6.99609 90.2266 6.29297H91.3574ZM94.8027 7.41211L96.2793 2.66016H97.4395L94.8906 9.97852C94.4961 11.0332 93.8691 11.5605 93.0098 11.5605L92.8047 11.543L92.4004 11.4668V10.5879L92.6934 10.6113C93.0605 10.6113 93.3457 10.5371 93.5488 10.3887C93.7559 10.2402 93.9258 9.96875 94.0586 9.57422L94.2988 8.92969L92.0371 2.66016H93.2207L94.8027 7.41211ZM103.779 5.90039C103.779 6.86914 103.557 7.64844 103.111 8.23828C102.666 8.82422 102.068 9.11719 101.318 9.11719C100.518 9.11719 99.8984 8.83398 99.4609 8.26758L99.4082 9H98.4121V0H99.4961V3.35742C99.9336 2.81445 100.537 2.54297 101.307 2.54297C102.076 2.54297 102.68 2.83398 103.117 3.41602C103.559 3.99805 103.779 4.79492 103.779 5.80664V5.90039ZM102.695 5.77734C102.695 5.03906 102.553 4.46875 102.268 4.06641C101.982 3.66406 101.572 3.46289 101.037 3.46289C100.322 3.46289 99.8086 3.79492 99.4961 4.45898V7.20117C99.8281 7.86523 100.346 8.19727 101.049 8.19727C101.568 8.19727 101.973 7.99609 102.262 7.59375C102.551 7.19141 102.695 6.58594 102.695 5.77734ZM107.781 9.11719C106.922 9.11719 106.223 8.83594 105.684 8.27344C105.145 7.70703 104.875 6.95117 104.875 6.00586V5.80664C104.875 5.17773 104.994 4.61719 105.232 4.125C105.475 3.62891 105.811 3.24219 106.24 2.96484C106.674 2.68359 107.143 2.54297 107.646 2.54297C108.471 2.54297 109.111 2.81445 109.568 3.35742C110.025 3.90039 110.254 4.67773 110.254 5.68945V6.14062H105.959C105.975 6.76562 106.156 7.27148 106.504 7.6582C106.855 8.04102 107.301 8.23242 107.84 8.23242C108.223 8.23242 108.547 8.1543 108.812 7.99805C109.078 7.8418 109.311 7.63477 109.51 7.37695L110.172 7.89258C109.641 8.70898 108.844 9.11719 107.781 9.11719ZM107.646 3.43359C107.209 3.43359 106.842 3.59375 106.545 3.91406C106.248 4.23047 106.064 4.67578 105.994 5.25H109.17V5.16797C109.139 4.61719 108.99 4.19141 108.725 3.89062C108.459 3.58594 108.1 3.43359 107.646 3.43359ZM114.578 3.63281C114.414 3.60547 114.236 3.5918 114.045 3.5918C113.334 3.5918 112.852 3.89453 112.598 4.5V9H111.514V2.66016H112.568L112.586 3.39258C112.941 2.82617 113.445 2.54297 114.098 2.54297C114.309 2.54297 114.469 2.57031 114.578 2.625V3.63281ZM120.936 5.90039C120.936 6.86523 120.715 7.64258 120.273 8.23242C119.832 8.82227 119.234 9.11719 118.48 9.11719C117.711 9.11719 117.105 8.87305 116.664 8.38477V11.4375H115.58V2.66016H116.57L116.623 3.36328C117.064 2.81641 117.678 2.54297 118.463 2.54297C119.225 2.54297 119.826 2.83008 120.268 3.4043C120.713 3.97852 120.936 4.77734 120.936 5.80078V5.90039ZM119.852 5.77734C119.852 5.0625 119.699 4.49805 119.395 4.08398C119.09 3.66992 118.672 3.46289 118.141 3.46289C117.484 3.46289 116.992 3.75391 116.664 4.33594V7.36523C116.988 7.94336 117.484 8.23242 118.152 8.23242C118.672 8.23242 119.084 8.02734 119.389 7.61719C119.697 7.20312 119.852 6.58984 119.852 5.77734ZM126.232 8.37305C125.811 8.86914 125.191 9.11719 124.375 9.11719C123.699 9.11719 123.184 8.92188 122.828 8.53125C122.477 8.13672 122.299 7.55469 122.295 6.78516V2.66016H123.379V6.75586C123.379 7.7168 123.77 8.19727 124.551 8.19727C125.379 8.19727 125.93 7.88867 126.203 7.27148V2.66016H127.287V9H126.256L126.232 8.37305ZM129.965 2.66016L130 3.45703C130.484 2.84766 131.117 2.54297 131.898 2.54297C133.238 2.54297 133.914 3.29883 133.926 4.81055V9H132.842V4.80469C132.838 4.34766 132.732 4.00977 132.525 3.79102C132.322 3.57227 132.004 3.46289 131.57 3.46289C131.219 3.46289 130.91 3.55664 130.645 3.74414C130.379 3.93164 130.172 4.17773 130.023 4.48242V9H128.939V2.66016H129.965ZM137.33 6.06445L136.65 6.77344V9H135.566V0H136.65V5.44336L137.23 4.74609L139.205 2.66016H140.523L138.057 5.30859L140.811 9H139.539L137.33 6.06445ZM141.35 4.72852C141.35 3.93945 141.531 3.20703 141.895 2.53125C142.262 1.85547 142.768 1.32422 143.412 0.9375C144.061 0.546875 144.76 0.351562 145.51 0.351562C146.26 0.351562 146.957 0.546875 147.602 0.9375C148.246 1.32422 148.75 1.85547 149.113 2.53125C149.48 3.20703 149.664 3.93945 149.664 4.72852C149.664 5.49805 149.488 6.21875 149.137 6.89062C148.785 7.5625 148.285 8.10352 147.637 8.51367C146.992 8.91992 146.283 9.12305 145.51 9.12305C144.74 9.12305 144.031 8.92188 143.383 8.51953C142.738 8.11328 142.238 7.57422 141.883 6.90234C141.527 6.23047 141.35 5.50586 141.35 4.72852ZM142.023 4.72852C142.023 5.40039 142.18 6.02344 142.492 6.59766C142.805 7.16797 143.229 7.61523 143.764 7.93945C144.303 8.26367 144.885 8.42578 145.51 8.42578C146.139 8.42578 146.723 8.26172 147.262 7.93359C147.801 7.60156 148.223 7.15234 148.527 6.58594C148.836 6.01953 148.99 5.40039 148.99 4.72852C148.99 4.06055 148.836 3.44531 148.527 2.88281C148.223 2.31641 147.801 1.87109 147.262 1.54688C146.723 1.21875 146.139 1.05469 145.51 1.05469C144.885 1.05469 144.303 1.2168 143.764 1.54102C143.225 1.86133 142.799 2.30664 142.486 2.87695C142.178 3.44727 142.023 4.06445 142.023 4.72852ZM144.648 5.16797V7.14844H143.822V2.17383H145.439C146.037 2.17383 146.5 2.30273 146.828 2.56055C147.16 2.81445 147.326 3.18555 147.326 3.67383C147.326 4.1543 147.076 4.52148 146.576 4.77539C147.053 4.9707 147.293 5.36914 147.297 5.9707V6.32812C147.297 6.66406 147.33 6.90625 147.396 7.05469V7.14844H146.547C146.492 7.00781 146.465 6.75781 146.465 6.39844C146.465 6.03516 146.459 5.82031 146.447 5.75391C146.385 5.37891 146.129 5.18359 145.68 5.16797H144.648ZM144.648 4.41797H145.562C145.844 4.41016 146.07 4.3418 146.242 4.21289C146.414 4.08398 146.5 3.91406 146.5 3.70312C146.5 3.41797 146.424 3.2168 146.271 3.09961C146.119 2.97852 145.848 2.91797 145.457 2.91797H144.648V4.41797ZM151.041 10.6992L150.426 10.2773C150.793 9.76562 150.984 9.23828 151 8.69531V7.7168H152.061V8.56641C152.061 8.96094 151.963 9.35547 151.768 9.75C151.576 10.1445 151.334 10.4609 151.041 10.6992ZM162.854 6.29297C162.748 7.19531 162.414 7.89258 161.852 8.38477C161.293 8.87305 160.549 9.11719 159.619 9.11719C158.611 9.11719 157.803 8.75586 157.193 8.0332C156.588 7.31055 156.285 6.34375 156.285 5.13281V4.3125C156.285 3.51953 156.426 2.82227 156.707 2.2207C156.992 1.61914 157.395 1.1582 157.914 0.837891C158.434 0.513672 159.035 0.351562 159.719 0.351562C160.625 0.351562 161.352 0.605469 161.898 1.11328C162.445 1.61719 162.764 2.31641 162.854 3.21094H161.723C161.625 2.53125 161.412 2.03906 161.084 1.73438C160.76 1.42969 160.305 1.27734 159.719 1.27734C159 1.27734 158.436 1.54297 158.025 2.07422C157.619 2.60547 157.416 3.36133 157.416 4.3418V5.16797C157.416 6.09375 157.609 6.83008 157.996 7.37695C158.383 7.92383 158.924 8.19727 159.619 8.19727C160.244 8.19727 160.723 8.05664 161.055 7.77539C161.391 7.49023 161.613 6.99609 161.723 6.29297H162.854ZM166.299 7.41211L167.775 2.66016H168.936L166.387 9.97852C165.992 11.0332 165.365 11.5605 164.506 11.5605L164.301 11.543L163.896 11.4668V10.5879L164.189 10.6113C164.557 10.6113 164.842 10.5371 165.045 10.3887C165.252 10.2402 165.422 9.96875 165.555 9.57422L165.795 8.92969L163.533 2.66016H164.717L166.299 7.41211ZM175.275 5.90039C175.275 6.86914 175.053 7.64844 174.607 8.23828C174.162 8.82422 173.564 9.11719 172.814 9.11719C172.014 9.11719 171.395 8.83398 170.957 8.26758L170.904 9H169.908V0H170.992V3.35742C171.43 2.81445 172.033 2.54297 172.803 2.54297C173.572 2.54297 174.176 2.83398 174.613 3.41602C175.055 3.99805 175.275 4.79492 175.275 5.80664V5.90039ZM174.191 5.77734C174.191 5.03906 174.049 4.46875 173.764 4.06641C173.479 3.66406 173.068 3.46289 172.533 3.46289C171.818 3.46289 171.305 3.79492 170.992 4.45898V7.20117C171.324 7.86523 171.842 8.19727 172.545 8.19727C173.064 8.19727 173.469 7.99609 173.758 7.59375C174.047 7.19141 174.191 6.58594 174.191 5.77734ZM179.277 9.11719C178.418 9.11719 177.719 8.83594 177.18 8.27344C176.641 7.70703 176.371 6.95117 176.371 6.00586V5.80664C176.371 5.17773 176.49 4.61719 176.729 4.125C176.971 3.62891 177.307 3.24219 177.736 2.96484C178.17 2.68359 178.639 2.54297 179.143 2.54297C179.967 2.54297 180.607 2.81445 181.064 3.35742C181.521 3.90039 181.75 4.67773 181.75 5.68945V6.14062H177.455C177.471 6.76562 177.652 7.27148 178 7.6582C178.352 8.04102 178.797 8.23242 179.336 8.23242C179.719 8.23242 180.043 8.1543 180.309 7.99805C180.574 7.8418 180.807 7.63477 181.006 7.37695L181.668 7.89258C181.137 8.70898 180.34 9.11719 179.277 9.11719ZM179.143 3.43359C178.705 3.43359 178.338 3.59375 178.041 3.91406C177.744 4.23047 177.561 4.67578 177.49 5.25H180.666V5.16797C180.635 4.61719 180.486 4.19141 180.221 3.89062C179.955 3.58594 179.596 3.43359 179.143 3.43359ZM186.074 3.63281C185.91 3.60547 185.732 3.5918 185.541 3.5918C184.83 3.5918 184.348 3.89453 184.094 4.5V9H183.01V2.66016H184.064L184.082 3.39258C184.438 2.82617 184.941 2.54297 185.594 2.54297C185.805 2.54297 185.965 2.57031 186.074 2.625V3.63281ZM192.432 5.90039C192.432 6.86523 192.211 7.64258 191.77 8.23242C191.328 8.82227 190.73 9.11719 189.977 9.11719C189.207 9.11719 188.602 8.87305 188.16 8.38477V11.4375H187.076V2.66016H188.066L188.119 3.36328C188.561 2.81641 189.174 2.54297 189.959 2.54297C190.721 2.54297 191.322 2.83008 191.764 3.4043C192.209 3.97852 192.432 4.77734 192.432 5.80078V5.90039ZM191.348 5.77734C191.348 5.0625 191.195 4.49805 190.891 4.08398C190.586 3.66992 190.168 3.46289 189.637 3.46289C188.98 3.46289 188.488 3.75391 188.16 4.33594V7.36523C188.484 7.94336 188.98 8.23242 189.648 8.23242C190.168 8.23242 190.58 8.02734 190.885 7.61719C191.193 7.20312 191.348 6.58984 191.348 5.77734ZM197.729 8.37305C197.307 8.86914 196.688 9.11719 195.871 9.11719C195.195 9.11719 194.68 8.92188 194.324 8.53125C193.973 8.13672 193.795 7.55469 193.791 6.78516V2.66016H194.875V6.75586C194.875 7.7168 195.266 8.19727 196.047 8.19727C196.875 8.19727 197.426 7.88867 197.699 7.27148V2.66016H198.783V9H197.752L197.729 8.37305ZM201.461 2.66016L201.496 3.45703C201.98 2.84766 202.613 2.54297 203.395 2.54297C204.734 2.54297 205.41 3.29883 205.422 4.81055V9H204.338V4.80469C204.334 4.34766 204.229 4.00977 204.021 3.79102C203.818 3.57227 203.5 3.46289 203.066 3.46289C202.715 3.46289 202.406 3.55664 202.141 3.74414C201.875 3.93164 201.668 4.17773 201.52 4.48242V9H200.436V2.66016H201.461ZM208.826 6.06445L208.146 6.77344V9H207.062V0H208.146V5.44336L208.727 4.74609L210.701 2.66016H212.02L209.553 5.30859L212.307 9H211.035L208.826 6.06445ZM221.594 9H216.004V8.2207L218.957 4.93945C219.395 4.44336 219.695 4.04102 219.859 3.73242C220.027 3.41992 220.111 3.09766 220.111 2.76562C220.111 2.32031 219.977 1.95508 219.707 1.66992C219.438 1.38477 219.078 1.24219 218.629 1.24219C218.09 1.24219 217.67 1.39648 217.369 1.70508C217.072 2.00977 216.924 2.43555 216.924 2.98242H215.84C215.84 2.19727 216.092 1.5625 216.596 1.07812C217.104 0.59375 217.781 0.351562 218.629 0.351562C219.422 0.351562 220.049 0.560547 220.51 0.978516C220.971 1.39258 221.201 1.94531 221.201 2.63672C221.201 3.47656 220.666 4.47656 219.596 5.63672L217.311 8.11523H221.594V9ZM228.092 5.36133C228.092 6.63086 227.875 7.57422 227.441 8.19141C227.008 8.80859 226.33 9.11719 225.408 9.11719C224.498 9.11719 223.824 8.81641 223.387 8.21484C222.949 7.60938 222.723 6.70703 222.707 5.50781V4.06055C222.707 2.80664 222.924 1.875 223.357 1.26562C223.791 0.65625 224.471 0.351562 225.396 0.351562C226.314 0.351562 226.99 0.646484 227.424 1.23633C227.857 1.82227 228.08 2.72852 228.092 3.95508V5.36133ZM227.008 3.87891C227.008 2.96094 226.879 2.29297 226.621 1.875C226.363 1.45312 225.955 1.24219 225.396 1.24219C224.842 1.24219 224.438 1.45117 224.184 1.86914C223.93 2.28711 223.799 2.92969 223.791 3.79688V5.53125C223.791 6.45312 223.924 7.13477 224.189 7.57617C224.459 8.01367 224.865 8.23242 225.408 8.23242C225.943 8.23242 226.34 8.02539 226.598 7.61133C226.859 7.19727 226.996 6.54492 227.008 5.6543V3.87891ZM234.988 1.07812L231.455 9H230.318L233.84 1.35938H229.223V0.46875H234.988V1.07812ZM241.727 1.07812L238.193 9H237.057L240.578 1.35938H235.961V0.46875H241.727V1.07812ZM242.775 4.72852C242.775 3.93945 242.957 3.20703 243.32 2.53125C243.688 1.85547 244.193 1.32422 244.838 0.9375C245.486 0.546875 246.186 0.351562 246.936 0.351562C247.686 0.351562 248.383 0.546875 249.027 0.9375C249.672 1.32422 250.176 1.85547 250.539 2.53125C250.906 3.20703 251.09 3.93945 251.09 4.72852C251.09 5.49805 250.914 6.21875 250.562 6.89062C250.211 7.5625 249.711 8.10352 249.062 8.51367C248.418 8.91992 247.709 9.12305 246.936 9.12305C246.166 9.12305 245.457 8.92188 244.809 8.51953C244.164 8.11328 243.664 7.57422 243.309 6.90234C242.953 6.23047 242.775 5.50586 242.775 4.72852ZM243.449 4.72852C243.449 5.40039 243.605 6.02344 243.918 6.59766C244.23 7.16797 244.654 7.61523 245.189 7.93945C245.729 8.26367 246.311 8.42578 246.936 8.42578C247.564 8.42578 248.148 8.26172 248.688 7.93359C249.227 7.60156 249.648 7.15234 249.953 6.58594C250.262 6.01953 250.416 5.40039 250.416 4.72852C250.416 4.06055 250.262 3.44531 249.953 2.88281C249.648 2.31641 249.227 1.87109 248.688 1.54688C248.148 1.21875 247.564 1.05469 246.936 1.05469C246.311 1.05469 245.729 1.2168 245.189 1.54102C244.65 1.86133 244.225 2.30664 243.912 2.87695C243.604 3.44727 243.449 4.06445 243.449 4.72852ZM246.074 5.16797V7.14844H245.248V2.17383H246.865C247.463 2.17383 247.926 2.30273 248.254 2.56055C248.586 2.81445 248.752 3.18555 248.752 3.67383C248.752 4.1543 248.502 4.52148 248.002 4.77539C248.479 4.9707 248.719 5.36914 248.723 5.9707V6.32812C248.723 6.66406 248.756 6.90625 248.822 7.05469V7.14844H247.973C247.918 7.00781 247.891 6.75781 247.891 6.39844C247.891 6.03516 247.885 5.82031 247.873 5.75391C247.811 5.37891 247.555 5.18359 247.105 5.16797H246.074ZM246.074 4.41797H246.988C247.27 4.41016 247.496 4.3418 247.668 4.21289C247.84 4.08398 247.926 3.91406 247.926 3.70312C247.926 3.41797 247.85 3.2168 247.697 3.09961C247.545 2.97852 247.273 2.91797 246.883 2.91797H246.074V4.41797Z" fill="white"/>
</svg>
