<svg width="951" height="53" viewBox="0 0 951 53" fill="none" xmlns="http://www.w3.org/2000/svg">
<path d="M9.55371 1.20312H11.2412V14H9.55371V4.13867L3.25195 14H1.55566V1.20312H3.25195V11.0645L9.55371 1.20312ZM20.2061 5.83496H15.8203V14H14.1855V4.49023H20.2061V5.83496ZM29.6543 9.35059C29.6543 10.7979 29.3232 11.9639 28.6611 12.8486C27.999 13.7334 27.1025 14.1758 25.9717 14.1758C24.8174 14.1758 23.9092 13.8096 23.2471 13.0771V17.6562H21.6211V4.49023H23.1064L23.1855 5.54492C23.8477 4.72461 24.7676 4.31445 25.9453 4.31445C27.0879 4.31445 27.9902 4.74512 28.6523 5.60645C29.3203 6.46777 29.6543 7.66602 29.6543 9.20117V9.35059ZM28.0283 9.16602C28.0283 8.09375 27.7998 7.24707 27.3428 6.62598C26.8857 6.00488 26.2588 5.69434 25.4619 5.69434C24.4775 5.69434 23.7393 6.13086 23.2471 7.00391V11.5479C23.7334 12.415 24.4775 12.8486 25.4795 12.8486C26.2588 12.8486 26.877 12.541 27.334 11.9258C27.7969 11.3047 28.0283 10.3848 28.0283 9.16602ZM37.5996 14C37.5059 13.8125 37.4297 13.4785 37.3711 12.998C36.6152 13.7832 35.7129 14.1758 34.6641 14.1758C33.7266 14.1758 32.9561 13.9121 32.3525 13.3848C31.7549 12.8516 31.4561 12.1777 31.4561 11.3633C31.4561 10.373 31.8311 9.60547 32.5811 9.06055C33.3369 8.50977 34.3975 8.23438 35.7627 8.23438H37.3447V7.4873C37.3447 6.91895 37.1748 6.46777 36.835 6.13379C36.4951 5.79395 35.9941 5.62402 35.332 5.62402C34.752 5.62402 34.2656 5.77051 33.873 6.06348C33.4805 6.35645 33.2842 6.71094 33.2842 7.12695H31.6494C31.6494 6.65234 31.8164 6.19531 32.1504 5.75586C32.4902 5.31055 32.9473 4.95898 33.5215 4.70117C34.1016 4.44336 34.7373 4.31445 35.4287 4.31445C36.5244 4.31445 37.3828 4.58984 38.0039 5.14062C38.625 5.68555 38.9473 6.43848 38.9707 7.39941V11.7764C38.9707 12.6494 39.082 13.3438 39.3047 13.8594V14H37.5996ZM34.9014 12.7607C35.4111 12.7607 35.8945 12.6289 36.3516 12.3652C36.8086 12.1016 37.1396 11.7588 37.3447 11.3369V9.38574H36.0703C34.0781 9.38574 33.082 9.96875 33.082 11.1348C33.082 11.6445 33.252 12.043 33.5918 12.3301C33.9316 12.6172 34.3682 12.7607 34.9014 12.7607ZM47.6719 4.49023H49.2979V14H47.6719V7.06543L43.2861 14H41.6602V4.49023H43.2861V11.4336L47.6719 4.49023ZM48.1113 1.02734C48.1113 1.73633 47.8682 2.30762 47.3818 2.74121C46.9014 3.16895 46.2686 3.38281 45.4834 3.38281C44.6982 3.38281 44.0625 3.16602 43.5762 2.73242C43.0898 2.29883 42.8467 1.73047 42.8467 1.02734H44.1738C44.1738 1.4375 44.2852 1.75977 44.5078 1.99414C44.7305 2.22266 45.0557 2.33691 45.4834 2.33691C45.8936 2.33691 46.2129 2.22266 46.4414 1.99414C46.6758 1.76562 46.793 1.44336 46.793 1.02734H48.1113ZM56.5225 14V4.49023H60.2314C61.4971 4.49023 62.4668 4.71289 63.1406 5.1582C63.8203 5.59766 64.1602 6.24512 64.1602 7.10059C64.1602 7.54004 64.0283 7.93848 63.7646 8.2959C63.501 8.64746 63.1113 8.91699 62.5957 9.10449C63.1699 9.23926 63.6299 9.50293 63.9756 9.89551C64.3271 10.2881 64.5029 10.7568 64.5029 11.3018C64.5029 12.1748 64.1807 12.8428 63.5361 13.3057C62.8975 13.7686 61.9922 14 60.8203 14H56.5225ZM58.1484 9.8252V12.6904H60.8379C61.5176 12.6904 62.0244 12.5645 62.3584 12.3125C62.6982 12.0605 62.8682 11.7061 62.8682 11.249C62.8682 10.2998 62.1709 9.8252 60.7764 9.8252H58.1484ZM58.1484 8.52441H60.249C61.7725 8.52441 62.5342 8.0791 62.5342 7.18848C62.5342 6.29785 61.8135 5.83789 60.3721 5.80859H58.1484V8.52441ZM214.752 4.49023H216.378V14H214.752V7.06543L210.366 14H208.74V4.49023H210.366V11.4336L214.752 4.49023ZM231.231 14H229.605V5.83496H225.229V14H223.594V4.49023H231.231V14ZM233.411 9.15723C233.411 8.22559 233.593 7.3877 233.956 6.64355C234.325 5.89941 234.835 5.3252 235.485 4.9209C236.142 4.5166 236.889 4.31445 237.727 4.31445C239.021 4.31445 240.067 4.7627 240.864 5.65918C241.667 6.55566 242.068 7.74805 242.068 9.23633V9.35059C242.068 10.2764 241.89 11.1084 241.532 11.8467C241.181 12.5791 240.674 13.1504 240.012 13.5605C239.355 13.9707 238.6 14.1758 237.744 14.1758C236.455 14.1758 235.409 13.7275 234.606 12.8311C233.81 11.9346 233.411 10.748 233.411 9.27148V9.15723ZM235.046 9.35059C235.046 10.4053 235.289 11.252 235.775 11.8906C236.268 12.5293 236.924 12.8486 237.744 12.8486C238.57 12.8486 239.227 12.5264 239.713 11.8818C240.199 11.2314 240.442 10.3232 240.442 9.15723C240.442 8.11426 240.193 7.27051 239.695 6.62598C239.203 5.97559 238.547 5.65039 237.727 5.65039C236.924 5.65039 236.276 5.96973 235.784 6.6084C235.292 7.24707 235.046 8.16113 235.046 9.35059ZM251.763 4.49023V14H250.128V5.83496H246.894L246.7 9.39453C246.595 11.0293 246.319 12.1982 245.874 12.9014C245.435 13.6045 244.734 13.9707 243.773 14H243.123V12.5674L243.589 12.5322C244.116 12.4736 244.494 12.1689 244.723 11.6182C244.951 11.0674 245.098 10.0479 245.162 8.55957L245.338 4.49023H251.763ZM257.484 11.6182L259.699 4.49023H261.439L257.616 15.4678C257.024 17.0498 256.084 17.8408 254.795 17.8408L254.487 17.8145L253.881 17.7002V16.3818L254.32 16.417C254.871 16.417 255.299 16.3057 255.604 16.083C255.914 15.8604 256.169 15.4531 256.368 14.8613L256.729 13.8945L253.336 4.49023H255.111L257.484 11.6182ZM270.079 14H268.444V10.5547C267.729 10.7422 266.997 10.8359 266.247 10.8359C265.058 10.8359 264.149 10.5312 263.522 9.92188C262.901 9.3125 262.585 8.44531 262.573 7.32031V4.48145H264.199V7.37305C264.229 8.79102 264.911 9.5 266.247 9.5C266.997 9.5 267.729 9.40625 268.444 9.21875V4.49023H270.079V14ZM278.842 4.49023H280.468V14H278.842V7.06543L274.456 14H272.83V4.49023H274.456V11.4336L278.842 4.49023ZM287.692 14V4.49023H291.401C292.667 4.49023 293.637 4.71289 294.311 5.1582C294.99 5.59766 295.33 6.24512 295.33 7.10059C295.33 7.54004 295.198 7.93848 294.935 8.2959C294.671 8.64746 294.281 8.91699 293.766 9.10449C294.34 9.23926 294.8 9.50293 295.146 9.89551C295.497 10.2881 295.673 10.7568 295.673 11.3018C295.673 12.1748 295.351 12.8428 294.706 13.3057C294.067 13.7686 293.162 14 291.99 14H287.692ZM289.318 9.8252V12.6904H292.008C292.688 12.6904 293.194 12.5645 293.528 12.3125C293.868 12.0605 294.038 11.7061 294.038 11.249C294.038 10.2998 293.341 9.8252 291.946 9.8252H289.318ZM289.318 8.52441H291.419C292.942 8.52441 293.704 8.0791 293.704 7.18848C293.704 6.29785 292.983 5.83789 291.542 5.80859H289.318V8.52441ZM297.396 9.15723C297.396 8.22559 297.577 7.3877 297.94 6.64355C298.31 5.89941 298.819 5.3252 299.47 4.9209C300.126 4.5166 300.873 4.31445 301.711 4.31445C303.006 4.31445 304.052 4.7627 304.849 5.65918C305.651 6.55566 306.053 7.74805 306.053 9.23633V9.35059C306.053 10.2764 305.874 11.1084 305.517 11.8467C305.165 12.5791 304.658 13.1504 303.996 13.5605C303.34 13.9707 302.584 14.1758 301.729 14.1758C300.439 14.1758 299.394 13.7275 298.591 12.8311C297.794 11.9346 297.396 10.748 297.396 9.27148V9.15723ZM299.03 9.35059C299.03 10.4053 299.273 11.252 299.76 11.8906C300.252 12.5293 300.908 12.8486 301.729 12.8486C302.555 12.8486 303.211 12.5264 303.697 11.8818C304.184 11.2314 304.427 10.3232 304.427 9.15723C304.427 8.11426 304.178 7.27051 303.68 6.62598C303.188 5.97559 302.531 5.65039 301.711 5.65039C300.908 5.65039 300.261 5.96973 299.769 6.6084C299.276 7.24707 299.03 8.16113 299.03 9.35059ZM313.321 7.0918C313.321 6.64648 313.151 6.29492 312.812 6.03711C312.472 5.77344 312.006 5.6416 311.414 5.6416C310.84 5.6416 310.359 5.79102 309.973 6.08984C309.592 6.38867 309.401 6.74023 309.401 7.14453H307.784C307.784 6.31836 308.13 5.6416 308.821 5.11426C309.513 4.58691 310.377 4.32324 311.414 4.32324C312.527 4.32324 313.395 4.56348 314.016 5.04395C314.637 5.51855 314.947 6.19824 314.947 7.08301C314.947 7.51074 314.818 7.90332 314.561 8.26074C314.303 8.61816 313.937 8.90234 313.462 9.11328C314.569 9.48828 315.123 10.2266 315.123 11.3281C315.123 12.2012 314.786 12.8926 314.112 13.4023C313.438 13.9121 312.539 14.167 311.414 14.167C310.318 14.167 309.413 13.9004 308.698 13.3672C307.989 12.8281 307.635 12.1016 307.635 11.1875H309.252C309.252 11.6504 309.457 12.0488 309.867 12.3828C310.283 12.7109 310.799 12.875 311.414 12.875C312.035 12.875 312.536 12.7314 312.917 12.4443C313.298 12.1572 313.488 11.7852 313.488 11.3281C313.488 10.7949 313.327 10.4141 313.005 10.1855C312.688 9.95117 312.193 9.83398 311.52 9.83398H309.894V8.46289H311.66C312.768 8.43359 313.321 7.97656 313.321 7.0918ZM322.708 11.8467L325.942 4.49023H327.973V14H326.347V7.08301L323.271 14H322.146L319.008 6.93359V14H317.382V4.49023H319.491L322.708 11.8467ZM330.161 9.15723C330.161 8.22559 330.343 7.3877 330.706 6.64355C331.075 5.89941 331.585 5.3252 332.235 4.9209C332.892 4.5166 333.639 4.31445 334.477 4.31445C335.771 4.31445 336.817 4.7627 337.614 5.65918C338.417 6.55566 338.818 7.74805 338.818 9.23633V9.35059C338.818 10.2764 338.64 11.1084 338.282 11.8467C337.931 12.5791 337.424 13.1504 336.762 13.5605C336.105 13.9707 335.35 14.1758 334.494 14.1758C333.205 14.1758 332.159 13.7275 331.356 12.8311C330.56 11.9346 330.161 10.748 330.161 9.27148V9.15723ZM331.796 9.35059C331.796 10.4053 332.039 11.252 332.525 11.8906C333.018 12.5293 333.674 12.8486 334.494 12.8486C335.32 12.8486 335.977 12.5264 336.463 11.8818C336.949 11.2314 337.192 10.3232 337.192 9.15723C337.192 8.11426 336.943 7.27051 336.445 6.62598C335.953 5.97559 335.297 5.65039 334.477 5.65039C333.674 5.65039 333.026 5.96973 332.534 6.6084C332.042 7.24707 331.796 8.16113 331.796 9.35059ZM348.249 9.86914H347.106V14H345.48V9.86914H344.338L341.675 14H339.618L343.02 9.07812L339.943 4.49023H341.912L344.364 8.42773H345.48V4.49023H347.106V8.42773H348.214L350.684 4.49023H352.652L349.567 9.08691L352.969 14H350.912L348.249 9.86914ZM362.215 14H360.589V9.93945H356.221V14H354.586V4.49023H356.221V8.6123H360.589V4.49023H362.215V14ZM364.403 9.15723C364.403 8.22559 364.585 7.3877 364.948 6.64355C365.317 5.89941 365.827 5.3252 366.478 4.9209C367.134 4.5166 367.881 4.31445 368.719 4.31445C370.014 4.31445 371.06 4.7627 371.856 5.65918C372.659 6.55566 373.061 7.74805 373.061 9.23633V9.35059C373.061 10.2764 372.882 11.1084 372.524 11.8467C372.173 12.5791 371.666 13.1504 371.004 13.5605C370.348 13.9707 369.592 14.1758 368.736 14.1758C367.447 14.1758 366.401 13.7275 365.599 12.8311C364.802 11.9346 364.403 10.748 364.403 9.27148V9.15723ZM366.038 9.35059C366.038 10.4053 366.281 11.252 366.768 11.8906C367.26 12.5293 367.916 12.8486 368.736 12.8486C369.562 12.8486 370.219 12.5264 370.705 11.8818C371.191 11.2314 371.435 10.3232 371.435 9.15723C371.435 8.11426 371.186 7.27051 370.688 6.62598C370.195 5.97559 369.539 5.65039 368.719 5.65039C367.916 5.65039 367.269 5.96973 366.776 6.6084C366.284 7.24707 366.038 8.16113 366.038 9.35059ZM378.914 12.8486C379.494 12.8486 380.001 12.6729 380.435 12.3213C380.868 11.9697 381.108 11.5303 381.155 11.0029H382.693C382.664 11.5479 382.477 12.0664 382.131 12.5586C381.785 13.0508 381.322 13.4434 380.742 13.7363C380.168 14.0293 379.559 14.1758 378.914 14.1758C377.619 14.1758 376.588 13.7451 375.82 12.8838C375.059 12.0166 374.678 10.833 374.678 9.33301V9.06055C374.678 8.13477 374.848 7.31152 375.188 6.59082C375.527 5.87012 376.014 5.31055 376.646 4.91211C377.285 4.51367 378.038 4.31445 378.905 4.31445C379.972 4.31445 380.856 4.63379 381.56 5.27246C382.269 5.91113 382.646 6.74023 382.693 7.75977H381.155C381.108 7.14453 380.874 6.64062 380.452 6.24805C380.036 5.84961 379.521 5.65039 378.905 5.65039C378.079 5.65039 377.438 5.94922 376.98 6.54688C376.529 7.13867 376.304 7.99707 376.304 9.12207V9.42969C376.304 10.5254 376.529 11.3691 376.98 11.9609C377.432 12.5527 378.076 12.8486 378.914 12.8486ZM391.588 5.80859H388.397V14H386.771V5.80859H383.643V4.49023H391.588V5.80859ZM394.945 7.76855H397.415C398.493 7.78027 399.346 8.06152 399.973 8.6123C400.6 9.16309 400.913 9.91016 400.913 10.8535C400.913 11.8027 400.591 12.5645 399.946 13.1387C399.302 13.7129 398.435 14 397.345 14H393.319V4.49023H394.945V7.76855ZM394.945 9.0957V12.6729H397.362C397.972 12.6729 398.443 12.5176 398.777 12.207C399.111 11.8906 399.278 11.46 399.278 10.915C399.278 10.3877 399.114 9.95703 398.786 9.62305C398.464 9.2832 398.01 9.10742 397.424 9.0957H394.945ZM407.558 14V4.49023H411.267C412.532 4.49023 413.502 4.71289 414.176 5.1582C414.855 5.59766 415.195 6.24512 415.195 7.10059C415.195 7.54004 415.063 7.93848 414.8 8.2959C414.536 8.64746 414.146 8.91699 413.631 9.10449C414.205 9.23926 414.665 9.50293 415.011 9.89551C415.362 10.2881 415.538 10.7568 415.538 11.3018C415.538 12.1748 415.216 12.8428 414.571 13.3057C413.933 13.7686 413.027 14 411.855 14H407.558ZM409.184 9.8252V12.6904H411.873C412.553 12.6904 413.06 12.5645 413.394 12.3125C413.733 12.0605 413.903 11.7061 413.903 11.249C413.903 10.2998 413.206 9.8252 411.812 9.8252H409.184ZM409.184 8.52441H411.284C412.808 8.52441 413.569 8.0791 413.569 7.18848C413.569 6.29785 412.849 5.83789 411.407 5.80859H409.184V8.52441ZM419.467 7.76855H421.937C423.015 7.78027 423.867 8.06152 424.494 8.6123C425.121 9.16309 425.435 9.91016 425.435 10.8535C425.435 11.8027 425.112 12.5645 424.468 13.1387C423.823 13.7129 422.956 14 421.866 14H417.841V4.49023H419.467V7.76855ZM428.827 14H427.192V4.49023H428.827V14ZM419.467 9.0957V12.6729H421.884C422.493 12.6729 422.965 12.5176 423.299 12.207C423.633 11.8906 423.8 11.46 423.8 10.915C423.8 10.3877 423.636 9.95703 423.308 9.62305C422.985 9.2832 422.531 9.10742 421.945 9.0957H419.467ZM437.818 4.49023H439.444V14H437.818V7.06543L433.433 14H431.807V4.49023H433.433V11.4336L437.818 4.49023ZM448.198 5.83496H443.812V14H442.178V4.49023H448.198V5.83496ZM457.646 9.35059C457.646 10.7979 457.315 11.9639 456.653 12.8486C455.991 13.7334 455.095 14.1758 453.964 14.1758C452.81 14.1758 451.901 13.8096 451.239 13.0771V17.6562H449.613V4.49023H451.099L451.178 5.54492C451.84 4.72461 452.76 4.31445 453.938 4.31445C455.08 4.31445 455.982 4.74512 456.645 5.60645C457.312 6.46777 457.646 7.66602 457.646 9.20117V9.35059ZM456.021 9.16602C456.021 8.09375 455.792 7.24707 455.335 6.62598C454.878 6.00488 454.251 5.69434 453.454 5.69434C452.47 5.69434 451.731 6.13086 451.239 7.00391V11.5479C451.726 12.415 452.47 12.8486 453.472 12.8486C454.251 12.8486 454.869 12.541 455.326 11.9258C455.789 11.3047 456.021 10.3848 456.021 9.16602ZM465.592 14C465.498 13.8125 465.422 13.4785 465.363 12.998C464.607 13.7832 463.705 14.1758 462.656 14.1758C461.719 14.1758 460.948 13.9121 460.345 13.3848C459.747 12.8516 459.448 12.1777 459.448 11.3633C459.448 10.373 459.823 9.60547 460.573 9.06055C461.329 8.50977 462.39 8.23438 463.755 8.23438H465.337V7.4873C465.337 6.91895 465.167 6.46777 464.827 6.13379C464.487 5.79395 463.986 5.62402 463.324 5.62402C462.744 5.62402 462.258 5.77051 461.865 6.06348C461.473 6.35645 461.276 6.71094 461.276 7.12695H459.642C459.642 6.65234 459.809 6.19531 460.143 5.75586C460.482 5.31055 460.939 4.95898 461.514 4.70117C462.094 4.44336 462.729 4.31445 463.421 4.31445C464.517 4.31445 465.375 4.58984 465.996 5.14062C466.617 5.68555 466.939 6.43848 466.963 7.39941V11.7764C466.963 12.6494 467.074 13.3438 467.297 13.8594V14H465.592ZM462.894 12.7607C463.403 12.7607 463.887 12.6289 464.344 12.3652C464.801 12.1016 465.132 11.7588 465.337 11.3369V9.38574H464.062C462.07 9.38574 461.074 9.96875 461.074 11.1348C461.074 11.6445 461.244 12.043 461.584 12.3301C461.924 12.6172 462.36 12.7607 462.894 12.7607ZM476.438 5.80859H473.247V14H471.621V5.80859H468.492V4.49023H476.438V5.80859ZM479.795 7.76855H482.265C483.343 7.78027 484.195 8.06152 484.822 8.6123C485.449 9.16309 485.763 9.91016 485.763 10.8535C485.763 11.8027 485.44 12.5645 484.796 13.1387C484.151 13.7129 483.284 14 482.194 14H478.169V4.49023H479.795V7.76855ZM479.795 9.0957V12.6729H482.212C482.821 12.6729 483.293 12.5176 483.627 12.207C483.961 11.8906 484.128 11.46 484.128 10.915C484.128 10.3877 483.964 9.95703 483.636 9.62305C483.313 9.2832 482.859 9.10742 482.273 9.0957H479.795ZM495.22 9.94824H494.033V14H492.398V4.49023H494.033V8.51562H495.097L498.296 4.49023H500.265L496.503 9.06055L500.581 14H498.516L495.22 9.94824ZM501.354 9.15723C501.354 8.22559 501.536 7.3877 501.899 6.64355C502.269 5.89941 502.778 5.3252 503.429 4.9209C504.085 4.5166 504.832 4.31445 505.67 4.31445C506.965 4.31445 508.011 4.7627 508.808 5.65918C509.61 6.55566 510.012 7.74805 510.012 9.23633V9.35059C510.012 10.2764 509.833 11.1084 509.476 11.8467C509.124 12.5791 508.617 13.1504 507.955 13.5605C507.299 13.9707 506.543 14.1758 505.688 14.1758C504.398 14.1758 503.353 13.7275 502.55 12.8311C501.753 11.9346 501.354 10.748 501.354 9.27148V9.15723ZM502.989 9.35059C502.989 10.4053 503.232 11.252 503.719 11.8906C504.211 12.5293 504.867 12.8486 505.688 12.8486C506.514 12.8486 507.17 12.5264 507.656 11.8818C508.143 11.2314 508.386 10.3232 508.386 9.15723C508.386 8.11426 508.137 7.27051 507.639 6.62598C507.146 5.97559 506.49 5.65039 505.67 5.65039C504.867 5.65039 504.22 5.96973 503.728 6.6084C503.235 7.24707 502.989 8.16113 502.989 9.35059ZM519.82 14H518.194V9.93945H513.826V14H512.191V4.49023H513.826V8.6123H518.194V4.49023H519.82V14ZM526.254 12.8486C526.834 12.8486 527.341 12.6729 527.774 12.3213C528.208 11.9697 528.448 11.5303 528.495 11.0029H530.033C530.004 11.5479 529.816 12.0664 529.471 12.5586C529.125 13.0508 528.662 13.4434 528.082 13.7363C527.508 14.0293 526.898 14.1758 526.254 14.1758C524.959 14.1758 523.928 13.7451 523.16 12.8838C522.398 12.0166 522.018 10.833 522.018 9.33301V9.06055C522.018 8.13477 522.188 7.31152 522.527 6.59082C522.867 5.87012 523.354 5.31055 523.986 4.91211C524.625 4.51367 525.378 4.31445 526.245 4.31445C527.312 4.31445 528.196 4.63379 528.899 5.27246C529.608 5.91113 529.986 6.74023 530.033 7.75977H528.495C528.448 7.14453 528.214 6.64062 527.792 6.24805C527.376 5.84961 526.86 5.65039 526.245 5.65039C525.419 5.65039 524.777 5.94922 524.32 6.54688C523.869 7.13867 523.644 7.99707 523.644 9.12207V9.42969C523.644 10.5254 523.869 11.3691 524.32 11.9609C524.771 12.5527 525.416 12.8486 526.254 12.8486ZM531.431 9.15723C531.431 8.22559 531.612 7.3877 531.976 6.64355C532.345 5.89941 532.854 5.3252 533.505 4.9209C534.161 4.5166 534.908 4.31445 535.746 4.31445C537.041 4.31445 538.087 4.7627 538.884 5.65918C539.687 6.55566 540.088 7.74805 540.088 9.23633V9.35059C540.088 10.2764 539.909 11.1084 539.552 11.8467C539.2 12.5791 538.693 13.1504 538.031 13.5605C537.375 13.9707 536.619 14.1758 535.764 14.1758C534.475 14.1758 533.429 13.7275 532.626 12.8311C531.829 11.9346 531.431 10.748 531.431 9.27148V9.15723ZM533.065 9.35059C533.065 10.4053 533.309 11.252 533.795 11.8906C534.287 12.5293 534.943 12.8486 535.764 12.8486C536.59 12.8486 537.246 12.5264 537.732 11.8818C538.219 11.2314 538.462 10.3232 538.462 9.15723C538.462 8.11426 538.213 7.27051 537.715 6.62598C537.223 5.97559 536.566 5.65039 535.746 5.65039C534.943 5.65039 534.296 5.96973 533.804 6.6084C533.312 7.24707 533.065 8.16113 533.065 9.35059ZM549.782 4.49023V14H548.147V5.83496H544.913L544.72 9.39453C544.614 11.0293 544.339 12.1982 543.894 12.9014C543.454 13.6045 542.754 13.9707 541.793 14H541.143V12.5674L541.608 12.5322C542.136 12.4736 542.514 12.1689 542.742 11.6182C542.971 11.0674 543.117 10.0479 543.182 8.55957L543.357 4.49023H549.782ZM554.168 7.76855H556.638C557.716 7.78027 558.568 8.06152 559.195 8.6123C559.822 9.16309 560.136 9.91016 560.136 10.8535C560.136 11.8027 559.813 12.5645 559.169 13.1387C558.524 13.7129 557.657 14 556.567 14H552.542V4.49023H554.168V7.76855ZM554.168 9.0957V12.6729H556.585C557.194 12.6729 557.666 12.5176 558 12.207C558.334 11.8906 558.501 11.46 558.501 10.915C558.501 10.3877 558.337 9.95703 558.009 9.62305C557.687 9.2832 557.232 9.10742 556.646 9.0957H554.168ZM689.555 4.49023H691.181V14H689.555V7.06543L685.169 14H683.543V4.49023H685.169V11.4336L689.555 4.49023ZM701.587 4.49023V14H699.952V5.83496H696.718L696.524 9.39453C696.419 11.0293 696.144 12.1982 695.698 12.9014C695.259 13.6045 694.559 13.9707 693.598 14H692.947V12.5674L693.413 12.5322C693.94 12.4736 694.318 12.1689 694.547 11.6182C694.775 11.0674 694.922 10.0479 694.986 8.55957L695.162 4.49023H701.587ZM710.35 4.49023H711.976V14H710.35V7.06543L705.964 14H704.338V4.49023H705.964V11.4336L710.35 4.49023ZM887.818 4.63965C887.818 3.95996 887.569 3.4209 887.071 3.02246C886.579 2.61816 885.885 2.41602 884.988 2.41602C884.238 2.41602 883.608 2.62402 883.099 3.04004C882.595 3.4502 882.343 3.95996 882.343 4.56934H880.655C880.655 3.88965 880.84 3.28027 881.209 2.74121C881.584 2.20215 882.105 1.7832 882.773 1.48438C883.441 1.17969 884.18 1.02734 884.988 1.02734C886.418 1.02734 887.528 1.34961 888.319 1.99414C889.11 2.63281 889.506 3.52344 889.506 4.66602C889.506 5.25781 889.324 5.79688 888.961 6.2832C888.598 6.76953 888.091 7.15332 887.44 7.43457C888.946 7.93848 889.699 8.9375 889.699 10.4316C889.699 11.5801 889.271 12.4912 888.416 13.165C887.561 13.8389 886.418 14.1758 884.988 14.1758C884.139 14.1758 883.365 14.0264 882.668 13.7275C881.977 13.4229 881.438 12.9922 881.051 12.4355C880.664 11.8789 880.471 11.2168 880.471 10.4492H882.158C882.158 11.123 882.425 11.6855 882.958 12.1367C883.491 12.582 884.168 12.8047 884.988 12.8047C885.908 12.8047 886.641 12.5908 887.186 12.1631C887.736 11.7354 888.012 11.1699 888.012 10.4668C888.012 8.9668 887.083 8.20215 885.226 8.17285H883.644V6.78418H885.217C886.072 6.7666 886.72 6.57324 887.159 6.2041C887.599 5.83496 887.818 5.31348 887.818 4.63965ZM897.557 14C897.463 13.8125 897.387 13.4785 897.328 12.998C896.572 13.7832 895.67 14.1758 894.621 14.1758C893.684 14.1758 892.913 13.9121 892.31 13.3848C891.712 12.8516 891.413 12.1777 891.413 11.3633C891.413 10.373 891.788 9.60547 892.538 9.06055C893.294 8.50977 894.354 8.23438 895.72 8.23438H897.302V7.4873C897.302 6.91895 897.132 6.46777 896.792 6.13379C896.452 5.79395 895.951 5.62402 895.289 5.62402C894.709 5.62402 894.223 5.77051 893.83 6.06348C893.438 6.35645 893.241 6.71094 893.241 7.12695H891.606C891.606 6.65234 891.773 6.19531 892.107 5.75586C892.447 5.31055 892.904 4.95898 893.479 4.70117C894.059 4.44336 894.694 4.31445 895.386 4.31445C896.481 4.31445 897.34 4.58984 897.961 5.14062C898.582 5.68555 898.904 6.43848 898.928 7.39941V11.7764C898.928 12.6494 899.039 13.3438 899.262 13.8594V14H897.557ZM894.858 12.7607C895.368 12.7607 895.852 12.6289 896.309 12.3652C896.766 12.1016 897.097 11.7588 897.302 11.3369V9.38574H896.027C894.035 9.38574 893.039 9.96875 893.039 11.1348C893.039 11.6445 893.209 12.043 893.549 12.3301C893.889 12.6172 894.325 12.7607 894.858 12.7607ZM909.255 14H907.629V5.83496H903.252V14H901.617V4.49023H909.255V14ZM911.435 9.15723C911.435 8.22559 911.616 7.3877 911.979 6.64355C912.349 5.89941 912.858 5.3252 913.509 4.9209C914.165 4.5166 914.912 4.31445 915.75 4.31445C917.045 4.31445 918.091 4.7627 918.888 5.65918C919.69 6.55566 920.092 7.74805 920.092 9.23633V9.35059C920.092 10.2764 919.913 11.1084 919.556 11.8467C919.204 12.5791 918.697 13.1504 918.035 13.5605C917.379 13.9707 916.623 14.1758 915.768 14.1758C914.479 14.1758 913.433 13.7275 912.63 12.8311C911.833 11.9346 911.435 10.748 911.435 9.27148V9.15723ZM913.069 9.35059C913.069 10.4053 913.312 11.252 913.799 11.8906C914.291 12.5293 914.947 12.8486 915.768 12.8486C916.594 12.8486 917.25 12.5264 917.736 11.8818C918.223 11.2314 918.466 10.3232 918.466 9.15723C918.466 8.11426 918.217 7.27051 917.719 6.62598C917.227 5.97559 916.57 5.65039 915.75 5.65039C914.947 5.65039 914.3 5.96973 913.808 6.6084C913.315 7.24707 913.069 8.16113 913.069 9.35059ZM929.786 4.49023V14H928.151V5.83496H924.917L924.724 9.39453C924.618 11.0293 924.343 12.1982 923.897 12.9014C923.458 13.6045 922.758 13.9707 921.797 14H921.146V12.5674L921.612 12.5322C922.14 12.4736 922.518 12.1689 922.746 11.6182C922.975 11.0674 923.121 10.0479 923.186 8.55957L923.361 4.49023H929.786ZM940.166 14H938.54V9.93945H934.172V14H932.537V4.49023H934.172V8.6123H938.54V4.49023H940.166V14ZM948.938 4.49023H950.563V14H948.938V7.06543L944.552 14H942.926V4.49023H944.552V11.4336L948.938 4.49023ZM0.878906 43.4209C0.878906 41.833 1.18652 40.585 1.80176 39.6768C2.41699 38.7686 3.26074 38.3145 4.33301 38.3145C4.83105 38.3145 5.26758 38.3994 5.64258 38.5693V34.5H7.26855V38.6221C7.67871 38.417 8.15918 38.3145 8.70996 38.3145C9.78809 38.3145 10.6348 38.7686 11.25 39.6768C11.8652 40.585 12.1729 41.8945 12.1729 43.6055C12.1729 45.0059 11.8652 46.1191 11.25 46.9453C10.6406 47.7715 9.7998 48.1846 8.72754 48.1846C8.15918 48.1846 7.67285 48.0908 7.26855 47.9033V51.6562H5.64258V47.9297C5.25586 48.0996 4.81348 48.1846 4.31543 48.1846C3.24902 48.1846 2.4082 47.7715 1.79297 46.9453C1.18359 46.1191 0.878906 44.9883 0.878906 43.5527V43.4209ZM10.5469 43.4209C10.5469 42.2256 10.3418 41.2998 9.93164 40.6436C9.52148 39.9814 8.95605 39.6504 8.23535 39.6504C7.86621 39.6504 7.54395 39.709 7.26855 39.8262V46.708C7.53223 46.8076 7.86035 46.8574 8.25293 46.8574C8.97949 46.8574 9.54199 46.5762 9.94043 46.0137C10.3447 45.4512 10.5469 44.5869 10.5469 43.4209ZM2.50488 43.6055C2.50488 44.6719 2.69531 45.4805 3.07617 46.0312C3.45703 46.582 4.00488 46.8574 4.71973 46.8574C5.05957 46.8574 5.36719 46.8047 5.64258 46.6992V39.7998C5.39648 39.7002 5.09473 39.6504 4.7373 39.6504C4.02246 39.6504 3.47168 39.9697 3.08496 40.6084C2.69824 41.2471 2.50488 42.2461 2.50488 43.6055ZM13.8604 43.1572C13.8604 42.2256 14.042 41.3877 14.4053 40.6436C14.7744 39.8994 15.2842 39.3252 15.9346 38.9209C16.5908 38.5166 17.3379 38.3145 18.1758 38.3145C19.4707 38.3145 20.5166 38.7627 21.3135 39.6592C22.1162 40.5557 22.5176 41.748 22.5176 43.2363V43.3506C22.5176 44.2764 22.3389 45.1084 21.9814 45.8467C21.6299 46.5791 21.123 47.1504 20.4609 47.5605C19.8047 47.9707 19.0488 48.1758 18.1934 48.1758C16.9043 48.1758 15.8584 47.7275 15.0557 46.8311C14.2588 45.9346 13.8604 44.748 13.8604 43.2715V43.1572ZM15.4951 43.3506C15.4951 44.4053 15.7383 45.252 16.2246 45.8906C16.7168 46.5293 17.373 46.8486 18.1934 46.8486C19.0195 46.8486 19.6758 46.5264 20.1621 45.8818C20.6484 45.2314 20.8916 44.3232 20.8916 43.1572C20.8916 42.1143 20.6426 41.2705 20.1445 40.626C19.6523 39.9756 18.9961 39.6504 18.1758 39.6504C17.373 39.6504 16.7256 39.9697 16.2334 40.6084C15.7412 41.2471 15.4951 42.1611 15.4951 43.3506ZM32.5898 43.3506C32.5898 44.7979 32.2588 45.9639 31.5967 46.8486C30.9346 47.7334 30.0381 48.1758 28.9072 48.1758C27.7529 48.1758 26.8447 47.8096 26.1826 47.0771V51.6562H24.5566V38.4902H26.042L26.1211 39.5449C26.7832 38.7246 27.7031 38.3145 28.8809 38.3145C30.0234 38.3145 30.9258 38.7451 31.5879 39.6064C32.2559 40.4678 32.5898 41.666 32.5898 43.2012V43.3506ZM30.9639 43.166C30.9639 42.0938 30.7354 41.2471 30.2783 40.626C29.8213 40.0049 29.1943 39.6943 28.3975 39.6943C27.4131 39.6943 26.6748 40.1309 26.1826 41.0039V45.5479C26.6689 46.415 27.4131 46.8486 28.415 46.8486C29.1943 46.8486 29.8125 46.541 30.2695 45.9258C30.7324 45.3047 30.9639 44.3848 30.9639 43.166ZM40.1396 45.8467L43.374 38.4902H45.4043V48H43.7783V41.083L40.7021 48H39.5771L36.4395 40.9336V48H34.8135V38.4902H36.9229L40.1396 45.8467ZM51.1348 45.6182L53.3496 38.4902H55.0898L51.2666 49.4678C50.6748 51.0498 49.7344 51.8408 48.4453 51.8408L48.1377 51.8145L47.5312 51.7002V50.3818L47.9707 50.417C48.5215 50.417 48.9492 50.3057 49.2539 50.083C49.5645 49.8604 49.8193 49.4531 50.0186 48.8613L50.3789 47.8945L46.9863 38.4902H48.7617L51.1348 45.6182ZM68.7832 48H67.1572V43.9395H62.7891V48H61.1543V38.4902H62.7891V42.6123H67.1572V38.4902H68.7832V48ZM77.5547 38.4902H79.1807V48H77.5547V41.0654L73.1689 48H71.543V38.4902H73.1689V45.4336L77.5547 38.4902ZM89.376 43.8691H88.2334V48H86.6074V43.8691H85.4648L82.8018 48H80.7451L84.1465 43.0781L81.0703 38.4902H83.0391L85.4912 42.4277H86.6074V38.4902H88.2334V42.4277H89.3408L91.8105 38.4902H93.7793L90.6943 43.0869L94.0957 48H92.0391L89.376 43.8691ZM99.3428 48.1758C98.0537 48.1758 97.0049 47.7539 96.1963 46.9102C95.3877 46.0605 94.9834 44.9268 94.9834 43.5088V43.21C94.9834 42.2666 95.1621 41.4258 95.5195 40.6875C95.8828 39.9434 96.3867 39.3633 97.0312 38.9473C97.6816 38.5254 98.3848 38.3145 99.1406 38.3145C100.377 38.3145 101.338 38.7217 102.023 39.5361C102.709 40.3506 103.052 41.5166 103.052 43.0342V43.7109H96.6094C96.6328 44.6484 96.9053 45.4072 97.4268 45.9873C97.9541 46.5615 98.6221 46.8486 99.4307 46.8486C100.005 46.8486 100.491 46.7314 100.89 46.4971C101.288 46.2627 101.637 45.9521 101.936 45.5654L102.929 46.3389C102.132 47.5635 100.937 48.1758 99.3428 48.1758ZM99.1406 39.6504C98.4844 39.6504 97.9336 39.8906 97.4883 40.3711C97.043 40.8457 96.7676 41.5137 96.6621 42.375H101.426V42.252C101.379 41.4258 101.156 40.7871 100.758 40.3359C100.359 39.8789 99.8203 39.6504 99.1406 39.6504ZM115.559 38.4902H117.185V48H115.559V41.0654L111.173 48H109.547V38.4902H111.173V45.4336L115.559 38.4902ZM132.038 48H130.412V39.835H126.035V48H124.4V38.4902H132.038V48ZM142.682 43.3506C142.682 44.7979 142.351 45.9639 141.688 46.8486C141.026 47.7334 140.13 48.1758 138.999 48.1758C137.845 48.1758 136.937 47.8096 136.274 47.0771V51.6562H134.648V38.4902H136.134L136.213 39.5449C136.875 38.7246 137.795 38.3145 138.973 38.3145C140.115 38.3145 141.018 38.7451 141.68 39.6064C142.348 40.4678 142.682 41.666 142.682 43.2012V43.3506ZM141.056 43.166C141.056 42.0938 140.827 41.2471 140.37 40.626C139.913 40.0049 139.286 39.6943 138.489 39.6943C137.505 39.6943 136.767 40.1309 136.274 41.0039V45.5479C136.761 46.415 137.505 46.8486 138.507 46.8486C139.286 46.8486 139.904 46.541 140.361 45.9258C140.824 45.3047 141.056 44.3848 141.056 43.166ZM150.908 38.4902H152.534V48H150.908V41.0654L146.522 48H144.896V38.4902H146.522V45.4336L150.908 38.4902ZM162.94 38.4902V48H161.306V39.835H158.071L157.878 43.3945C157.772 45.0293 157.497 46.1982 157.052 46.9014C156.612 47.6045 155.912 47.9707 154.951 48H154.301V46.5674L154.767 46.5322C155.294 46.4736 155.672 46.1689 155.9 45.6182C156.129 45.0674 156.275 44.0479 156.34 42.5596L156.516 38.4902H162.94ZM165.12 43.1572C165.12 42.2256 165.302 41.3877 165.665 40.6436C166.034 39.8994 166.544 39.3252 167.194 38.9209C167.851 38.5166 168.598 38.3145 169.436 38.3145C170.73 38.3145 171.776 38.7627 172.573 39.6592C173.376 40.5557 173.777 41.748 173.777 43.2363V43.3506C173.777 44.2764 173.599 45.1084 173.241 45.8467C172.89 46.5791 172.383 47.1504 171.721 47.5605C171.064 47.9707 170.309 48.1758 169.453 48.1758C168.164 48.1758 167.118 47.7275 166.315 46.8311C165.519 45.9346 165.12 44.748 165.12 43.2715V43.1572ZM166.755 43.3506C166.755 44.4053 166.998 45.252 167.484 45.8906C167.977 46.5293 168.633 46.8486 169.453 46.8486C170.279 46.8486 170.936 46.5264 171.422 45.8818C171.908 45.2314 172.151 44.3232 172.151 43.1572C172.151 42.1143 171.902 41.2705 171.404 40.626C170.912 39.9756 170.256 39.6504 169.436 39.6504C168.633 39.6504 167.985 39.9697 167.493 40.6084C167.001 41.2471 166.755 42.1611 166.755 43.3506ZM183.208 43.8691H182.065V48H180.439V43.8691H179.297L176.634 48H174.577L177.979 43.0781L174.902 38.4902H176.871L179.323 42.4277H180.439V38.4902H182.065V42.4277H183.173L185.643 38.4902H187.611L184.526 43.0869L187.928 48H185.871L183.208 43.8691ZM195.557 38.4902H197.183V48H195.557V41.0654L191.171 48H189.545V38.4902H191.171V45.4336L195.557 38.4902ZM208.072 46.8486C208.652 46.8486 209.159 46.6729 209.593 46.3213C210.026 45.9697 210.267 45.5303 210.313 45.0029H211.852C211.822 45.5479 211.635 46.0664 211.289 46.5586C210.943 47.0508 210.48 47.4434 209.9 47.7363C209.326 48.0293 208.717 48.1758 208.072 48.1758C206.777 48.1758 205.746 47.7451 204.979 46.8838C204.217 46.0166 203.836 44.833 203.836 43.333V43.0605C203.836 42.1348 204.006 41.3115 204.346 40.5908C204.686 39.8701 205.172 39.3105 205.805 38.9121C206.443 38.5137 207.196 38.3145 208.063 38.3145C209.13 38.3145 210.015 38.6338 210.718 39.2725C211.427 39.9111 211.805 40.7402 211.852 41.7598H210.313C210.267 41.1445 210.032 40.6406 209.61 40.248C209.194 39.8496 208.679 39.6504 208.063 39.6504C207.237 39.6504 206.596 39.9492 206.139 40.5469C205.688 41.1387 205.462 41.9971 205.462 43.1221V43.4297C205.462 44.5254 205.688 45.3691 206.139 45.9609C206.59 46.5527 207.234 46.8486 208.072 46.8486ZM216.642 43.9482H215.455V48H213.82V38.4902H215.455V42.5156H216.519L219.718 38.4902H221.687L217.925 43.0605L222.003 48H219.938L216.642 43.9482ZM231.434 43.3506C231.434 44.7979 231.103 45.9639 230.44 46.8486C229.778 47.7334 228.882 48.1758 227.751 48.1758C226.597 48.1758 225.688 47.8096 225.026 47.0771V51.6562H223.4V38.4902H224.886L224.965 39.5449C225.627 38.7246 226.547 38.3145 227.725 38.3145C228.867 38.3145 229.77 38.7451 230.432 39.6064C231.1 40.4678 231.434 41.666 231.434 43.2012V43.3506ZM229.808 43.166C229.808 42.0938 229.579 41.2471 229.122 40.626C228.665 40.0049 228.038 39.6943 227.241 39.6943C226.257 39.6943 225.519 40.1309 225.026 41.0039V45.5479C225.513 46.415 226.257 46.8486 227.259 46.8486C228.038 46.8486 228.656 46.541 229.113 45.9258C229.576 45.3047 229.808 44.3848 229.808 43.166ZM239.66 38.4902H241.286V48H239.66V41.0654L235.274 48H233.648V38.4902H235.274V45.4336L239.66 38.4902ZM251.666 48H250.04V43.9395H245.672V48H244.037V38.4902H245.672V42.6123H250.04V38.4902H251.666V48ZM256.061 38.4902V46.6729H259.541V38.4902H261.167V46.6729H264.639V38.4902H266.273V48H254.426V38.4902H256.061ZM268.409 43.1572C268.409 42.2256 268.591 41.3877 268.954 40.6436C269.323 39.8994 269.833 39.3252 270.483 38.9209C271.14 38.5166 271.887 38.3145 272.725 38.3145C274.02 38.3145 275.065 38.7627 275.862 39.6592C276.665 40.5557 277.066 41.748 277.066 43.2363V43.3506C277.066 44.2764 276.888 45.1084 276.53 45.8467C276.179 46.5791 275.672 47.1504 275.01 47.5605C274.354 47.9707 273.598 48.1758 272.742 48.1758C271.453 48.1758 270.407 47.7275 269.604 46.8311C268.808 45.9346 268.409 44.748 268.409 43.2715V43.1572ZM270.044 43.3506C270.044 44.4053 270.287 45.252 270.773 45.8906C271.266 46.5293 271.922 46.8486 272.742 46.8486C273.568 46.8486 274.225 46.5264 274.711 45.8818C275.197 45.2314 275.44 44.3232 275.44 43.1572C275.44 42.1143 275.191 41.2705 274.693 40.626C274.201 39.9756 273.545 39.6504 272.725 39.6504C271.922 39.6504 271.274 39.9697 270.782 40.6084C270.29 41.2471 270.044 42.1611 270.044 43.3506ZM285.979 39.8086H282.788V48H281.162V39.8086H278.033V38.4902H285.979V39.8086ZM291.595 43.1572C291.595 42.2256 291.776 41.3877 292.14 40.6436C292.509 39.8994 293.019 39.3252 293.669 38.9209C294.325 38.5166 295.072 38.3145 295.91 38.3145C297.205 38.3145 298.251 38.7627 299.048 39.6592C299.851 40.5557 300.252 41.748 300.252 43.2363V43.3506C300.252 44.2764 300.073 45.1084 299.716 45.8467C299.364 46.5791 298.857 47.1504 298.195 47.5605C297.539 47.9707 296.783 48.1758 295.928 48.1758C294.639 48.1758 293.593 47.7275 292.79 46.8311C291.993 45.9346 291.595 44.748 291.595 43.2715V43.1572ZM293.229 43.3506C293.229 44.4053 293.473 45.252 293.959 45.8906C294.451 46.5293 295.107 46.8486 295.928 46.8486C296.754 46.8486 297.41 46.5264 297.896 45.8818C298.383 45.2314 298.626 44.3232 298.626 43.1572C298.626 42.1143 298.377 41.2705 297.879 40.626C297.387 39.9756 296.73 39.6504 295.91 39.6504C295.107 39.6504 294.46 39.9697 293.968 40.6084C293.476 41.2471 293.229 42.1611 293.229 43.3506ZM314.534 48H312.908V39.835H308.531V48H306.896V38.4902H314.534V48ZM316.714 43.1572C316.714 42.2256 316.896 41.3877 317.259 40.6436C317.628 39.8994 318.138 39.3252 318.788 38.9209C319.444 38.5166 320.191 38.3145 321.029 38.3145C322.324 38.3145 323.37 38.7627 324.167 39.6592C324.97 40.5557 325.371 41.748 325.371 43.2363V43.3506C325.371 44.2764 325.192 45.1084 324.835 45.8467C324.483 46.5791 323.977 47.1504 323.314 47.5605C322.658 47.9707 321.902 48.1758 321.047 48.1758C319.758 48.1758 318.712 47.7275 317.909 46.8311C317.112 45.9346 316.714 44.748 316.714 43.2715V43.1572ZM318.349 43.3506C318.349 44.4053 318.592 45.252 319.078 45.8906C319.57 46.5293 320.227 46.8486 321.047 46.8486C321.873 46.8486 322.529 46.5264 323.016 45.8818C323.502 45.2314 323.745 44.3232 323.745 43.1572C323.745 42.1143 323.496 41.2705 322.998 40.626C322.506 39.9756 321.85 39.6504 321.029 39.6504C320.227 39.6504 319.579 39.9697 319.087 40.6084C318.595 41.2471 318.349 42.1611 318.349 43.3506ZM330.372 43.9482H329.186V48H327.551V38.4902H329.186V42.5156H330.249L333.448 38.4902H335.417L331.655 43.0605L335.733 48H333.668L330.372 43.9482ZM340.242 45.6182L342.457 38.4902H344.197L340.374 49.4678C339.782 51.0498 338.842 51.8408 337.553 51.8408L337.245 51.8145L336.639 51.7002V50.3818L337.078 50.417C337.629 50.417 338.057 50.3057 338.361 50.083C338.672 49.8604 338.927 49.4531 339.126 48.8613L339.486 47.8945L336.094 38.4902H337.869L340.242 45.6182ZM353.435 48H351.809V39.835H347.432V48H345.797V38.4902H353.435V48ZM359.007 43.9482H357.82V48H356.186V38.4902H357.82V42.5156H358.884L362.083 38.4902H364.052L360.29 43.0605L364.368 48H362.303L359.007 43.9482ZM369.571 48.1758C368.282 48.1758 367.233 47.7539 366.425 46.9102C365.616 46.0605 365.212 44.9268 365.212 43.5088V43.21C365.212 42.2666 365.391 41.4258 365.748 40.6875C366.111 39.9434 366.615 39.3633 367.26 38.9473C367.91 38.5254 368.613 38.3145 369.369 38.3145C370.605 38.3145 371.566 38.7217 372.252 39.5361C372.938 40.3506 373.28 41.5166 373.28 43.0342V43.7109H366.838C366.861 44.6484 367.134 45.4072 367.655 45.9873C368.183 46.5615 368.851 46.8486 369.659 46.8486C370.233 46.8486 370.72 46.7314 371.118 46.4971C371.517 46.2627 371.865 45.9521 372.164 45.5654L373.157 46.3389C372.36 47.5635 371.165 48.1758 369.571 48.1758ZM369.369 39.6504C368.713 39.6504 368.162 39.8906 367.717 40.3711C367.271 40.8457 366.996 41.5137 366.891 42.375H371.654V42.252C371.607 41.4258 371.385 40.7871 370.986 40.3359C370.588 39.8789 370.049 39.6504 369.369 39.6504ZM385.787 38.4902H387.413V48H385.787V41.0654L381.401 48H379.775V38.4902H381.401V45.4336L385.787 38.4902ZM396.167 39.835H391.781V48H390.146V38.4902H396.167V39.835ZM405.615 43.3506C405.615 44.7979 405.284 45.9639 404.622 46.8486C403.96 47.7334 403.063 48.1758 401.933 48.1758C400.778 48.1758 399.87 47.8096 399.208 47.0771V51.6562H397.582V38.4902H399.067L399.146 39.5449C399.809 38.7246 400.729 38.3145 401.906 38.3145C403.049 38.3145 403.951 38.7451 404.613 39.6064C405.281 40.4678 405.615 41.666 405.615 43.2012V43.3506ZM403.989 43.166C403.989 42.0938 403.761 41.2471 403.304 40.626C402.847 40.0049 402.22 39.6943 401.423 39.6943C400.438 39.6943 399.7 40.1309 399.208 41.0039V45.5479C399.694 46.415 400.438 46.8486 401.44 46.8486C402.22 46.8486 402.838 46.541 403.295 45.9258C403.758 45.3047 403.989 44.3848 403.989 43.166ZM409.465 41.7686H411.935C413.013 41.7803 413.865 42.0615 414.492 42.6123C415.119 43.1631 415.433 43.9102 415.433 44.8535C415.433 45.8027 415.11 46.5645 414.466 47.1387C413.821 47.7129 412.954 48 411.864 48H407.839V38.4902H409.465V41.7686ZM418.825 48H417.19V38.4902H418.825V48ZM409.465 43.0957V46.6729H411.882C412.491 46.6729 412.963 46.5176 413.297 46.207C413.631 45.8906 413.798 45.46 413.798 44.915C413.798 44.3877 413.634 43.957 413.306 43.623C412.983 43.2832 412.529 43.1074 411.943 43.0957H409.465ZM421.699 47.1475C421.699 46.8662 421.781 46.6318 421.945 46.4443C422.115 46.2568 422.367 46.1631 422.701 46.1631C423.035 46.1631 423.287 46.2568 423.457 46.4443C423.633 46.6318 423.721 46.8662 423.721 47.1475C423.721 47.417 423.633 47.6426 423.457 47.8242C423.287 48.0059 423.035 48.0967 422.701 48.0967C422.367 48.0967 422.115 48.0059 421.945 47.8242C421.781 47.6426 421.699 47.417 421.699 47.1475ZM439.198 35.2031H440.886V48H439.198V38.1387L432.896 48H431.2V35.2031H432.896V45.0645L439.198 35.2031ZM450.773 39.8086H447.583V48H445.957V39.8086H442.828V38.4902H450.773V39.8086ZM451.556 43.1572C451.556 42.2256 451.737 41.3877 452.101 40.6436C452.47 39.8994 452.979 39.3252 453.63 38.9209C454.286 38.5166 455.033 38.3145 455.871 38.3145C457.166 38.3145 458.212 38.7627 459.009 39.6592C459.812 40.5557 460.213 41.748 460.213 43.2363V43.3506C460.213 44.2764 460.034 45.1084 459.677 45.8467C459.325 46.5791 458.818 47.1504 458.156 47.5605C457.5 47.9707 456.744 48.1758 455.889 48.1758C454.6 48.1758 453.554 47.7275 452.751 46.8311C451.954 45.9346 451.556 44.748 451.556 43.2715V43.1572ZM453.19 43.3506C453.19 44.4053 453.434 45.252 453.92 45.8906C454.412 46.5293 455.068 46.8486 455.889 46.8486C456.715 46.8486 457.371 46.5264 457.857 45.8818C458.344 45.2314 458.587 44.3232 458.587 43.1572C458.587 42.1143 458.338 41.2705 457.84 40.626C457.348 39.9756 456.691 39.6504 455.871 39.6504C455.068 39.6504 454.421 39.9697 453.929 40.6084C453.437 41.2471 453.19 42.1611 453.19 43.3506ZM468.396 39.835H464.01V48H462.375V38.4902H468.396V39.835ZM475.963 38.4902H477.589V48H475.963V41.0654L471.577 48H469.951V38.4902H471.577V45.4336L475.963 38.4902ZM492.697 43.3506C492.697 44.7979 492.366 45.9639 491.704 46.8486C491.042 47.7334 490.146 48.1758 489.015 48.1758C487.86 48.1758 486.952 47.8096 486.29 47.0771V51.6562H484.664V38.4902H486.149L486.229 39.5449C486.891 38.7246 487.811 38.3145 488.988 38.3145C490.131 38.3145 491.033 38.7451 491.695 39.6064C492.363 40.4678 492.697 41.666 492.697 43.2012V43.3506ZM491.071 43.166C491.071 42.0938 490.843 41.2471 490.386 40.626C489.929 40.0049 489.302 39.6943 488.505 39.6943C487.521 39.6943 486.782 40.1309 486.29 41.0039V45.5479C486.776 46.415 487.521 46.8486 488.522 46.8486C489.302 46.8486 489.92 46.541 490.377 45.9258C490.84 45.3047 491.071 44.3848 491.071 43.166ZM494.341 43.1572C494.341 42.2256 494.522 41.3877 494.886 40.6436C495.255 39.8994 495.765 39.3252 496.415 38.9209C497.071 38.5166 497.818 38.3145 498.656 38.3145C499.951 38.3145 500.997 38.7627 501.794 39.6592C502.597 40.5557 502.998 41.748 502.998 43.2363V43.3506C502.998 44.2764 502.819 45.1084 502.462 45.8467C502.11 46.5791 501.604 47.1504 500.941 47.5605C500.285 47.9707 499.529 48.1758 498.674 48.1758C497.385 48.1758 496.339 47.7275 495.536 46.8311C494.739 45.9346 494.341 44.748 494.341 43.2715V43.1572ZM495.976 43.3506C495.976 44.4053 496.219 45.252 496.705 45.8906C497.197 46.5293 497.854 46.8486 498.674 46.8486C499.5 46.8486 500.156 46.5264 500.643 45.8818C501.129 45.2314 501.372 44.3232 501.372 43.1572C501.372 42.1143 501.123 41.2705 500.625 40.626C500.133 39.9756 499.477 39.6504 498.656 39.6504C497.854 39.6504 497.206 39.9697 496.714 40.6084C496.222 41.2471 495.976 42.1611 495.976 43.3506ZM510.267 41.0918C510.267 40.6465 510.097 40.2949 509.757 40.0371C509.417 39.7734 508.951 39.6416 508.359 39.6416C507.785 39.6416 507.305 39.791 506.918 40.0898C506.537 40.3887 506.347 40.7402 506.347 41.1445H504.729C504.729 40.3184 505.075 39.6416 505.767 39.1143C506.458 38.5869 507.322 38.3232 508.359 38.3232C509.473 38.3232 510.34 38.5635 510.961 39.0439C511.582 39.5186 511.893 40.1982 511.893 41.083C511.893 41.5107 511.764 41.9033 511.506 42.2607C511.248 42.6182 510.882 42.9023 510.407 43.1133C511.515 43.4883 512.068 44.2266 512.068 45.3281C512.068 46.2012 511.731 46.8926 511.058 47.4023C510.384 47.9121 509.484 48.167 508.359 48.167C507.264 48.167 506.358 47.9004 505.644 47.3672C504.935 46.8281 504.58 46.1016 504.58 45.1875H506.197C506.197 45.6504 506.402 46.0488 506.812 46.3828C507.229 46.7109 507.744 46.875 508.359 46.875C508.98 46.875 509.481 46.7314 509.862 46.4443C510.243 46.1572 510.434 45.7852 510.434 45.3281C510.434 44.7949 510.272 44.4141 509.95 44.1855C509.634 43.9512 509.139 43.834 508.465 43.834H506.839V42.4629H508.605C509.713 42.4336 510.267 41.9766 510.267 41.0918ZM515.953 41.7686H518.423C519.501 41.7803 520.354 42.0615 520.98 42.6123C521.607 43.1631 521.921 43.9102 521.921 44.8535C521.921 45.8027 521.599 46.5645 520.954 47.1387C520.31 47.7129 519.442 48 518.353 48H514.327V38.4902H515.953V41.7686ZM525.313 48H523.679V38.4902H525.313V48ZM515.953 43.0957V46.6729H518.37C518.979 46.6729 519.451 46.5176 519.785 46.207C520.119 45.8906 520.286 45.46 520.286 44.915C520.286 44.3877 520.122 43.957 519.794 43.623C519.472 43.2832 519.018 43.1074 518.432 43.0957H515.953ZM534.296 39.835H529.91V48H528.275V38.4902H534.296V39.835ZM543.744 43.3506C543.744 44.7979 543.413 45.9639 542.751 46.8486C542.089 47.7334 541.192 48.1758 540.062 48.1758C538.907 48.1758 537.999 47.8096 537.337 47.0771V51.6562H535.711V38.4902H537.196L537.275 39.5449C537.938 38.7246 538.857 38.3145 540.035 38.3145C541.178 38.3145 542.08 38.7451 542.742 39.6064C543.41 40.4678 543.744 41.666 543.744 43.2012V43.3506ZM542.118 43.166C542.118 42.0938 541.89 41.2471 541.433 40.626C540.976 40.0049 540.349 39.6943 539.552 39.6943C538.567 39.6943 537.829 40.1309 537.337 41.0039V45.5479C537.823 46.415 538.567 46.8486 539.569 46.8486C540.349 46.8486 540.967 46.541 541.424 45.9258C541.887 45.3047 542.118 44.3848 542.118 43.166ZM547.594 41.7686H550.063C551.142 41.7803 551.994 42.0615 552.621 42.6123C553.248 43.1631 553.562 43.9102 553.562 44.8535C553.562 45.8027 553.239 46.5645 552.595 47.1387C551.95 47.7129 551.083 48 549.993 48H545.968V38.4902H547.594V41.7686ZM556.954 48H555.319V38.4902H556.954V48ZM547.594 43.0957V46.6729H550.011C550.62 46.6729 551.092 46.5176 551.426 46.207C551.76 45.8906 551.927 45.46 551.927 44.915C551.927 44.3877 551.763 43.957 551.435 43.623C551.112 43.2832 550.658 43.1074 550.072 43.0957H547.594ZM561.568 38.4902V46.6729H565.049V38.4902H566.675V46.6729H570.146V38.4902H571.781V48H559.934V38.4902H561.568ZM580.219 48C580.125 47.8125 580.049 47.4785 579.99 46.998C579.234 47.7832 578.332 48.1758 577.283 48.1758C576.346 48.1758 575.575 47.9121 574.972 47.3848C574.374 46.8516 574.075 46.1777 574.075 45.3633C574.075 44.373 574.45 43.6055 575.2 43.0605C575.956 42.5098 577.017 42.2344 578.382 42.2344H579.964V41.4873C579.964 40.9189 579.794 40.4678 579.454 40.1338C579.114 39.7939 578.613 39.624 577.951 39.624C577.371 39.624 576.885 39.7705 576.492 40.0635C576.1 40.3564 575.903 40.7109 575.903 41.127H574.269C574.269 40.6523 574.436 40.1953 574.77 39.7559C575.109 39.3105 575.566 38.959 576.141 38.7012C576.721 38.4434 577.356 38.3145 578.048 38.3145C579.144 38.3145 580.002 38.5898 580.623 39.1406C581.244 39.6855 581.566 40.4385 581.59 41.3994V45.7764C581.59 46.6494 581.701 47.3438 581.924 47.8594V48H580.219ZM577.521 46.7607C578.03 46.7607 578.514 46.6289 578.971 46.3652C579.428 46.1016 579.759 45.7588 579.964 45.3369V43.3857H578.689C576.697 43.3857 575.701 43.9688 575.701 45.1348C575.701 45.6445 575.871 46.043 576.211 46.3301C576.551 46.6172 576.987 46.7607 577.521 46.7607ZM592.778 39.0352C593.974 39.0352 594.929 39.4365 595.644 40.2393C596.364 41.0361 596.725 42.0879 596.725 43.3945V43.5439C596.725 44.4404 596.552 45.2432 596.206 45.9521C595.86 46.6553 595.362 47.2031 594.712 47.5957C594.067 47.9824 593.323 48.1758 592.479 48.1758C591.202 48.1758 590.174 47.751 589.395 46.9014C588.615 46.0459 588.226 44.9004 588.226 43.4648V42.6738C588.226 40.6758 588.595 39.0879 589.333 37.9102C590.077 36.7324 591.173 36.0146 592.62 35.7568C593.44 35.6104 593.994 35.4316 594.281 35.2207C594.568 35.0098 594.712 34.7197 594.712 34.3506H596.048C596.048 35.083 595.881 35.6543 595.547 36.0645C595.219 36.4746 594.691 36.7646 593.965 36.9346L592.752 37.207C591.785 37.4355 591.059 37.8223 590.572 38.3672C590.092 38.9062 589.778 39.627 589.632 40.5293C590.493 39.5332 591.542 39.0352 592.778 39.0352ZM592.462 40.3711C591.665 40.3711 591.032 40.6406 590.563 41.1797C590.095 41.7129 589.86 42.4541 589.86 43.4033V43.5439C589.86 44.5635 590.095 45.3721 590.563 45.9697C591.038 46.5615 591.677 46.8574 592.479 46.8574C593.288 46.8574 593.927 46.5586 594.396 45.9609C594.864 45.3633 595.099 44.4902 595.099 43.3418C595.099 42.4453 594.861 41.7275 594.387 41.1885C593.918 40.6436 593.276 40.3711 592.462 40.3711ZM601.664 45.6182L603.879 38.4902H605.619L601.796 49.4678C601.204 51.0498 600.264 51.8408 598.975 51.8408L598.667 51.8145L598.061 51.7002V50.3818L598.5 50.417C599.051 50.417 599.479 50.3057 599.783 50.083C600.094 49.8604 600.349 49.4531 600.548 48.8613L600.908 47.8945L597.516 38.4902H599.291L601.664 45.6182ZM606.507 46.6729L607.069 45.9785C607.702 45.1582 608.062 43.9277 608.15 42.2871L608.3 38.4902H614.426V46.6729H615.647V50.7949H614.021V48H607.386V50.7949H605.76L605.769 46.6729H606.507ZM608.432 46.6729H612.8V39.9932H609.873L609.776 42.2607C609.677 44.1533 609.229 45.624 608.432 46.6729ZM620.561 45.6182L622.775 38.4902H624.516L620.692 49.4678C620.101 51.0498 619.16 51.8408 617.871 51.8408L617.563 51.8145L616.957 51.7002V50.3818L617.396 50.417C617.947 50.417 618.375 50.3057 618.68 50.083C618.99 49.8604 619.245 49.4531 619.444 48.8613L619.805 47.8945L616.412 38.4902H618.188L620.561 45.6182ZM633.041 39.8086H629.851V48H628.225V39.8086H625.096V38.4902H633.041V39.8086ZM646.866 48H645.24V39.835H640.863V48H639.229V38.4902H646.866V48ZM649.046 43.1572C649.046 42.2256 649.228 41.3877 649.591 40.6436C649.96 39.8994 650.47 39.3252 651.12 38.9209C651.776 38.5166 652.523 38.3145 653.361 38.3145C654.656 38.3145 655.702 38.7627 656.499 39.6592C657.302 40.5557 657.703 41.748 657.703 43.2363V43.3506C657.703 44.2764 657.524 45.1084 657.167 45.8467C656.815 46.5791 656.309 47.1504 655.646 47.5605C654.99 47.9707 654.234 48.1758 653.379 48.1758C652.09 48.1758 651.044 47.7275 650.241 46.8311C649.444 45.9346 649.046 44.748 649.046 43.2715V43.1572ZM650.681 43.3506C650.681 44.4053 650.924 45.252 651.41 45.8906C651.902 46.5293 652.559 46.8486 653.379 46.8486C654.205 46.8486 654.861 46.5264 655.348 45.8818C655.834 45.2314 656.077 44.3232 656.077 43.1572C656.077 42.1143 655.828 41.2705 655.33 40.626C654.838 39.9756 654.182 39.6504 653.361 39.6504C652.559 39.6504 651.911 39.9697 651.419 40.6084C650.927 41.2471 650.681 42.1611 650.681 43.3506ZM659.03 46.6729L659.593 45.9785C660.226 45.1582 660.586 43.9277 660.674 42.2871L660.823 38.4902H666.949V46.6729H668.171V50.7949H666.545V48H659.909V50.7949H658.283L658.292 46.6729H659.03ZM660.955 46.6729H665.323V39.9932H662.396L662.3 42.2607C662.2 44.1533 661.752 45.624 660.955 46.6729ZM670.122 48V38.4902H673.831C675.097 38.4902 676.066 38.7129 676.74 39.1582C677.42 39.5977 677.76 40.2451 677.76 41.1006C677.76 41.54 677.628 41.9385 677.364 42.2959C677.101 42.6475 676.711 42.917 676.195 43.1045C676.77 43.2393 677.229 43.5029 677.575 43.8955C677.927 44.2881 678.103 44.7568 678.103 45.3018C678.103 46.1748 677.78 46.8428 677.136 47.3057C676.497 47.7686 675.592 48 674.42 48H670.122ZM671.748 43.8252V46.6904H674.438C675.117 46.6904 675.624 46.5645 675.958 46.3125C676.298 46.0605 676.468 45.7061 676.468 45.249C676.468 44.2998 675.771 43.8252 674.376 43.8252H671.748ZM671.748 42.5244H673.849C675.372 42.5244 676.134 42.0791 676.134 41.1885C676.134 40.2979 675.413 39.8379 673.972 39.8086H671.748V42.5244ZM684.202 48.1758C682.913 48.1758 681.864 47.7539 681.056 46.9102C680.247 46.0605 679.843 44.9268 679.843 43.5088V43.21C679.843 42.2666 680.021 41.4258 680.379 40.6875C680.742 39.9434 681.246 39.3633 681.891 38.9473C682.541 38.5254 683.244 38.3145 684 38.3145C685.236 38.3145 686.197 38.7217 686.883 39.5361C687.568 40.3506 687.911 41.5166 687.911 43.0342V43.7109H681.469C681.492 44.6484 681.765 45.4072 682.286 45.9873C682.813 46.5615 683.481 46.8486 684.29 46.8486C684.864 46.8486 685.351 46.7314 685.749 46.4971C686.147 46.2627 686.496 45.9521 686.795 45.5654L687.788 46.3389C686.991 47.5635 685.796 48.1758 684.202 48.1758ZM684 39.6504C683.344 39.6504 682.793 39.8906 682.348 40.3711C681.902 40.8457 681.627 41.5137 681.521 42.375H686.285V42.252C686.238 41.4258 686.016 40.7871 685.617 40.3359C685.219 39.8789 684.68 39.6504 684 39.6504ZM689.722 46.6729L690.284 45.9785C690.917 45.1582 691.277 43.9277 691.365 42.2871L691.515 38.4902H697.641V46.6729H698.862V50.7949H697.236V48H690.601V50.7949H688.975L688.983 46.6729H689.722ZM691.646 46.6729H696.015V39.9932H693.088L692.991 42.2607C692.892 44.1533 692.443 45.624 691.646 46.6729ZM704.61 48.1758C703.321 48.1758 702.272 47.7539 701.464 46.9102C700.655 46.0605 700.251 44.9268 700.251 43.5088V43.21C700.251 42.2666 700.43 41.4258 700.787 40.6875C701.15 39.9434 701.654 39.3633 702.299 38.9473C702.949 38.5254 703.652 38.3145 704.408 38.3145C705.645 38.3145 706.605 38.7217 707.291 39.5361C707.977 40.3506 708.319 41.5166 708.319 43.0342V43.7109H701.877C701.9 44.6484 702.173 45.4072 702.694 45.9873C703.222 46.5615 703.89 46.8486 704.698 46.8486C705.272 46.8486 705.759 46.7314 706.157 46.4971C706.556 46.2627 706.904 45.9521 707.203 45.5654L708.196 46.3389C707.399 47.5635 706.204 48.1758 704.61 48.1758ZM704.408 39.6504C703.752 39.6504 703.201 39.8906 702.756 40.3711C702.311 40.8457 702.035 41.5137 701.93 42.375H706.693V42.252C706.646 41.4258 706.424 40.7871 706.025 40.3359C705.627 39.8789 705.088 39.6504 704.408 39.6504ZM717.979 48H716.353V43.9395H711.984V48H710.35V38.4902H711.984V42.6123H716.353V38.4902H717.979V48ZM722.373 41.7686H724.843C725.921 41.7803 726.773 42.0615 727.4 42.6123C728.027 43.1631 728.341 43.9102 728.341 44.8535C728.341 45.8027 728.019 46.5645 727.374 47.1387C726.729 47.7129 725.862 48 724.772 48H720.747V38.4902H722.373V41.7686ZM731.733 48H730.099V38.4902H731.733V48ZM722.373 43.0957V46.6729H724.79C725.399 46.6729 725.871 46.5176 726.205 46.207C726.539 45.8906 726.706 45.46 726.706 44.915C726.706 44.3877 726.542 43.957 726.214 43.623C725.892 43.2832 725.438 43.1074 724.852 43.0957H722.373ZM744.214 48H742.579V37.1631L739.301 38.3672V36.8906L743.959 35.1416H744.214V48ZM753.258 43.4209C753.258 41.833 753.565 40.585 754.181 39.6768C754.796 38.7686 755.64 38.3145 756.712 38.3145C757.21 38.3145 757.646 38.3994 758.021 38.5693V34.5H759.647V38.6221C760.058 38.417 760.538 38.3145 761.089 38.3145C762.167 38.3145 763.014 38.7686 763.629 39.6768C764.244 40.585 764.552 41.8945 764.552 43.6055C764.552 45.0059 764.244 46.1191 763.629 46.9453C763.02 47.7715 762.179 48.1846 761.106 48.1846C760.538 48.1846 760.052 48.0908 759.647 47.9033V51.6562H758.021V47.9297C757.635 48.0996 757.192 48.1846 756.694 48.1846C755.628 48.1846 754.787 47.7715 754.172 46.9453C753.562 46.1191 753.258 44.9883 753.258 43.5527V43.4209ZM762.926 43.4209C762.926 42.2256 762.721 41.2998 762.311 40.6436C761.9 39.9814 761.335 39.6504 760.614 39.6504C760.245 39.6504 759.923 39.709 759.647 39.8262V46.708C759.911 46.8076 760.239 46.8574 760.632 46.8574C761.358 46.8574 761.921 46.5762 762.319 46.0137C762.724 45.4512 762.926 44.5869 762.926 43.4209ZM754.884 43.6055C754.884 44.6719 755.074 45.4805 755.455 46.0312C755.836 46.582 756.384 46.8574 757.099 46.8574C757.438 46.8574 757.746 46.8047 758.021 46.6992V39.7998C757.775 39.7002 757.474 39.6504 757.116 39.6504C756.401 39.6504 755.851 39.9697 755.464 40.6084C755.077 41.2471 754.884 42.2461 754.884 43.6055ZM770.616 48.1758C769.327 48.1758 768.278 47.7539 767.47 46.9102C766.661 46.0605 766.257 44.9268 766.257 43.5088V43.21C766.257 42.2666 766.436 41.4258 766.793 40.6875C767.156 39.9434 767.66 39.3633 768.305 38.9473C768.955 38.5254 769.658 38.3145 770.414 38.3145C771.65 38.3145 772.611 38.7217 773.297 39.5361C773.982 40.3506 774.325 41.5166 774.325 43.0342V43.7109H767.883C767.906 44.6484 768.179 45.4072 768.7 45.9873C769.228 46.5615 769.896 46.8486 770.704 46.8486C771.278 46.8486 771.765 46.7314 772.163 46.4971C772.562 46.2627 772.91 45.9521 773.209 45.5654L774.202 46.3389C773.405 47.5635 772.21 48.1758 770.616 48.1758ZM770.414 39.6504C769.758 39.6504 769.207 39.8906 768.762 40.3711C768.316 40.8457 768.041 41.5137 767.936 42.375H772.699V42.252C772.652 41.4258 772.43 40.7871 772.031 40.3359C771.633 39.8789 771.094 39.6504 770.414 39.6504ZM776.364 48V38.4902H780.073C781.339 38.4902 782.309 38.7129 782.982 39.1582C783.662 39.5977 784.002 40.2451 784.002 41.1006C784.002 41.54 783.87 41.9385 783.606 42.2959C783.343 42.6475 782.953 42.917 782.438 43.1045C783.012 43.2393 783.472 43.5029 783.817 43.8955C784.169 44.2881 784.345 44.7568 784.345 45.3018C784.345 46.1748 784.022 46.8428 783.378 47.3057C782.739 47.7686 781.834 48 780.662 48H776.364ZM777.99 43.8252V46.6904H780.68C781.359 46.6904 781.866 46.5645 782.2 46.3125C782.54 46.0605 782.71 45.7061 782.71 45.249C782.71 44.2998 782.013 43.8252 780.618 43.8252H777.99ZM777.99 42.5244H780.091C781.614 42.5244 782.376 42.0791 782.376 41.1885C782.376 40.2979 781.655 39.8379 780.214 39.8086H777.99V42.5244ZM794.531 43.3506C794.531 44.7979 794.2 45.9639 793.538 46.8486C792.876 47.7334 791.979 48.1758 790.849 48.1758C789.694 48.1758 788.786 47.8096 788.124 47.0771V51.6562H786.498V38.4902H787.983L788.062 39.5449C788.725 38.7246 789.645 38.3145 790.822 38.3145C791.965 38.3145 792.867 38.7451 793.529 39.6064C794.197 40.4678 794.531 41.666 794.531 43.2012V43.3506ZM792.905 43.166C792.905 42.0938 792.677 41.2471 792.22 40.626C791.763 40.0049 791.136 39.6943 790.339 39.6943C789.354 39.6943 788.616 40.1309 788.124 41.0039V45.5479C788.61 46.415 789.354 46.8486 790.356 46.8486C791.136 46.8486 791.754 46.541 792.211 45.9258C792.674 45.3047 792.905 44.3848 792.905 43.166ZM802.477 48C802.383 47.8125 802.307 47.4785 802.248 46.998C801.492 47.7832 800.59 48.1758 799.541 48.1758C798.604 48.1758 797.833 47.9121 797.229 47.3848C796.632 46.8516 796.333 46.1777 796.333 45.3633C796.333 44.373 796.708 43.6055 797.458 43.0605C798.214 42.5098 799.274 42.2344 800.64 42.2344H802.222V41.4873C802.222 40.9189 802.052 40.4678 801.712 40.1338C801.372 39.7939 800.871 39.624 800.209 39.624C799.629 39.624 799.143 39.7705 798.75 40.0635C798.357 40.3564 798.161 40.7109 798.161 41.127H796.526C796.526 40.6523 796.693 40.1953 797.027 39.7559C797.367 39.3105 797.824 38.959 798.398 38.7012C798.979 38.4434 799.614 38.3145 800.306 38.3145C801.401 38.3145 802.26 38.5898 802.881 39.1406C803.502 39.6855 803.824 40.4385 803.848 41.3994V45.7764C803.848 46.6494 803.959 47.3438 804.182 47.8594V48H802.477ZM799.778 46.7607C800.288 46.7607 800.771 46.6289 801.229 46.3652C801.686 46.1016 802.017 45.7588 802.222 45.3369V43.3857H800.947C798.955 43.3857 797.959 43.9688 797.959 45.1348C797.959 45.6445 798.129 46.043 798.469 46.3301C798.809 46.6172 799.245 46.7607 799.778 46.7607ZM814.192 38.4902V48H812.558V39.835H809.323L809.13 43.3945C809.024 45.0293 808.749 46.1982 808.304 46.9014C807.864 47.6045 807.164 47.9707 806.203 48H805.553V46.5674L806.019 46.5322C806.546 46.4736 806.924 46.1689 807.152 45.6182C807.381 45.0674 807.527 44.0479 807.592 42.5596L807.768 38.4902H814.192ZM824.071 38.4902V48H822.437V44.2998H819.984L817.743 48H815.985L818.376 44.0537C817.767 43.8311 817.298 43.4883 816.97 43.0254C816.647 42.5566 816.486 42.0117 816.486 41.3906C816.486 40.5234 816.812 39.8262 817.462 39.2988C818.112 38.7656 818.982 38.4961 820.072 38.4902H824.071ZM818.121 41.4082C818.121 41.8711 818.279 42.2461 818.596 42.5332C818.912 42.8145 819.331 42.958 819.853 42.9639H822.437V39.8086H820.099C819.495 39.8086 819.015 39.958 818.657 40.2568C818.3 40.5498 818.121 40.9336 818.121 41.4082ZM826.717 47.1475C826.717 46.8662 826.799 46.6318 826.963 46.4443C827.133 46.2568 827.385 46.1631 827.719 46.1631C828.053 46.1631 828.305 46.2568 828.475 46.4443C828.65 46.6318 828.738 46.8662 828.738 47.1475C828.738 47.417 828.65 47.6426 828.475 47.8242C828.305 48.0059 828.053 48.0967 827.719 48.0967C827.385 48.0967 827.133 48.0059 826.963 47.8242C826.799 47.6426 826.717 47.417 826.717 47.1475ZM840.542 42.6299L843.486 35.2031H845.446L840.92 45.8643C840.615 46.5439 840.331 47.0273 840.067 47.3145C839.804 47.5957 839.493 47.8125 839.136 47.9648C838.784 48.1113 838.342 48.1846 837.809 48.1846C837.346 48.1846 837.05 48.1582 836.921 48.1055L836.974 46.7695L837.773 46.8047C838.389 46.8047 838.846 46.5088 839.145 45.917L839.364 45.46L839.698 44.6777L835.339 35.2031H837.229L840.542 42.6299ZM846.396 46.6729L846.958 45.9785C847.591 45.1582 847.951 43.9277 848.039 42.2871L848.188 38.4902H854.314V46.6729H855.536V50.7949H853.91V48H847.274V50.7949H845.648L845.657 46.6729H846.396ZM848.32 46.6729H852.688V39.9932H849.762L849.665 42.2607C849.565 44.1533 849.117 45.624 848.32 46.6729ZM863.209 48C863.115 47.8125 863.039 47.4785 862.98 46.998C862.225 47.7832 861.322 48.1758 860.273 48.1758C859.336 48.1758 858.565 47.9121 857.962 47.3848C857.364 46.8516 857.065 46.1777 857.065 45.3633C857.065 44.373 857.44 43.6055 858.19 43.0605C858.946 42.5098 860.007 42.2344 861.372 42.2344H862.954V41.4873C862.954 40.9189 862.784 40.4678 862.444 40.1338C862.104 39.7939 861.604 39.624 860.941 39.624C860.361 39.624 859.875 39.7705 859.482 40.0635C859.09 40.3564 858.894 40.7109 858.894 41.127H857.259C857.259 40.6523 857.426 40.1953 857.76 39.7559C858.1 39.3105 858.557 38.959 859.131 38.7012C859.711 38.4434 860.347 38.3145 861.038 38.3145C862.134 38.3145 862.992 38.5898 863.613 39.1406C864.234 39.6855 864.557 40.4385 864.58 41.3994V45.7764C864.58 46.6494 864.691 47.3438 864.914 47.8594V48H863.209ZM860.511 46.7607C861.021 46.7607 861.504 46.6289 861.961 46.3652C862.418 46.1016 862.749 45.7588 862.954 45.3369V43.3857H861.68C859.688 43.3857 858.691 43.9688 858.691 45.1348C858.691 45.6445 858.861 46.043 859.201 46.3301C859.541 46.6172 859.978 46.7607 860.511 46.7607ZM874.31 48H872.675V44.5547C871.96 44.7422 871.228 44.8359 870.478 44.8359C869.288 44.8359 868.38 44.5312 867.753 43.9219C867.132 43.3125 866.815 42.4453 866.804 41.3203V38.4814H868.43V41.373C868.459 42.791 869.142 43.5 870.478 43.5C871.228 43.5 871.96 43.4062 872.675 43.2188V38.4902H874.31V48ZM883.072 38.4902H884.698V48H883.072V41.0654L878.687 48H877.061V38.4902H878.687V45.4336L883.072 38.4902ZM889.128 44.3877H887.66L887.546 35.2031H889.251L889.128 44.3877ZM887.484 47.1826C887.484 46.9189 887.563 46.6992 887.722 46.5234C887.886 46.3418 888.126 46.251 888.442 46.251C888.759 46.251 888.999 46.3418 889.163 46.5234C889.327 46.6992 889.409 46.9189 889.409 47.1826C889.409 47.4463 889.327 47.666 889.163 47.8418C888.999 48.0117 888.759 48.0967 888.442 48.0967C888.126 48.0967 887.886 48.0117 887.722 47.8418C887.563 47.666 887.484 47.4463 887.484 47.1826ZM896.159 39.3867C896.159 39.1055 896.241 38.8711 896.405 38.6836C896.575 38.4961 896.827 38.4023 897.161 38.4023C897.495 38.4023 897.747 38.4961 897.917 38.6836C898.093 38.8711 898.181 39.1055 898.181 39.3867C898.181 39.6562 898.093 39.8818 897.917 40.0635C897.747 40.2451 897.495 40.3359 897.161 40.3359C896.827 40.3359 896.575 40.2451 896.405 40.0635C896.241 39.8818 896.159 39.6562 896.159 39.3867ZM896.467 50.5488L895.544 49.916C896.095 49.1484 896.382 48.3574 896.405 47.543V46.0752H897.996V47.3496C897.996 47.9414 897.85 48.5332 897.557 49.125C897.27 49.7168 896.906 50.1914 896.467 50.5488ZM903.981 42.8936C903.981 44.2002 903.809 45.4541 903.463 46.6553C903.123 47.8506 902.599 48.9551 901.89 49.9688C901.187 50.9824 900.448 51.7031 899.675 52.1309L899.332 51.1377C900.234 50.4463 900.958 49.374 901.503 47.9209C902.054 46.4619 902.335 44.8447 902.347 43.0693V42.7881C902.347 41.5576 902.218 40.415 901.96 39.3604C901.702 38.2998 901.342 37.3506 900.879 36.5127C900.422 35.6748 899.906 35.0215 899.332 34.5527L899.675 33.5596C900.448 33.9873 901.184 34.7021 901.881 35.7041C902.584 36.7061 903.108 37.8105 903.454 39.0176C903.806 40.2246 903.981 41.5166 903.981 42.8936Z" fill="white"/>
<path d="M81.0791 9.7373C80.9795 11.1143 80.4697 12.1982 79.5498 12.9893C78.6357 13.7803 77.4287 14.1758 75.9287 14.1758C74.2881 14.1758 72.9961 13.625 72.0527 12.5234C71.1152 11.416 70.6465 9.89844 70.6465 7.9707V7.18848C70.6465 5.95801 70.8633 4.87402 71.2969 3.93652C71.7305 2.99902 72.3486 2.28125 73.1514 1.7832C73.96 1.2793 74.8975 1.02734 75.9639 1.02734C77.4404 1.02734 78.6299 1.42285 79.5322 2.21387C80.4346 3.00488 80.9561 4.11523 81.0967 5.54492H78.46C78.3955 4.71875 78.1641 4.12109 77.7656 3.75195C77.373 3.37695 76.7725 3.18945 75.9639 3.18945C75.085 3.18945 74.4258 3.50586 73.9863 4.13867C73.5527 4.76562 73.3301 5.74121 73.3184 7.06543V8.03223C73.3184 9.41504 73.5264 10.4258 73.9424 11.0645C74.3643 11.7031 75.0264 12.0225 75.9287 12.0225C76.7432 12.0225 77.3496 11.8379 77.748 11.4688C78.1523 11.0938 78.3838 10.5166 78.4424 9.7373H81.0791ZM86.1943 10.4053L87.9521 4.49023H90.6768L86.8535 15.4766L86.6426 15.9775C86.0742 17.2197 85.1367 17.8408 83.8301 17.8408C83.4609 17.8408 83.0859 17.7852 82.7051 17.6738V15.749L83.0918 15.7578C83.5723 15.7578 83.9297 15.6846 84.1641 15.5381C84.4043 15.3916 84.5918 15.1484 84.7266 14.8086L85.0254 14.0264L81.6943 4.49023H84.4277L86.1943 10.4053ZM100.248 9.33301C100.248 10.8564 99.9229 12.0459 99.2725 12.9014C98.6221 13.751 97.7139 14.1758 96.5479 14.1758C95.5166 14.1758 94.6934 13.7803 94.0781 12.9893L93.9639 14H91.6787V0.5H94.2188V5.34277C94.8047 4.65723 95.5752 4.31445 96.5303 4.31445C97.6904 4.31445 98.5986 4.74219 99.2549 5.59766C99.917 6.44727 100.248 7.64551 100.248 9.19238V9.33301ZM97.708 9.14844C97.708 8.1875 97.5557 7.4873 97.251 7.04785C96.9463 6.60254 96.4922 6.37988 95.8887 6.37988C95.0801 6.37988 94.5234 6.71094 94.2188 7.37305V11.126C94.5293 11.7939 95.0918 12.1279 95.9062 12.1279C96.7266 12.1279 97.2656 11.7236 97.5234 10.915C97.6465 10.5283 97.708 9.93945 97.708 9.14844ZM106.198 14.1758C104.804 14.1758 103.667 13.748 102.788 12.8926C101.915 12.0371 101.479 10.8975 101.479 9.47363V9.22754C101.479 8.27246 101.663 7.41992 102.032 6.66992C102.401 5.91406 102.923 5.33398 103.597 4.92969C104.276 4.51953 105.05 4.31445 105.917 4.31445C107.218 4.31445 108.24 4.72461 108.984 5.54492C109.734 6.36523 110.109 7.52832 110.109 9.03418V10.0713H104.054C104.136 10.6924 104.382 11.1904 104.792 11.5654C105.208 11.9404 105.732 12.1279 106.365 12.1279C107.344 12.1279 108.108 11.7734 108.659 11.0645L109.907 12.4619C109.526 13.001 109.011 13.4229 108.36 13.7275C107.71 14.0264 106.989 14.1758 106.198 14.1758ZM105.908 6.37109C105.404 6.37109 104.994 6.54102 104.678 6.88086C104.367 7.2207 104.168 7.70703 104.08 8.33984H107.613V8.1377C107.602 7.5752 107.449 7.1416 107.156 6.83691C106.863 6.52637 106.447 6.37109 105.908 6.37109ZM116.903 6.87207C116.558 6.8252 116.253 6.80176 115.989 6.80176C115.028 6.80176 114.398 7.12695 114.1 7.77734V14H111.56V4.49023H113.959L114.029 5.62402C114.539 4.75098 115.245 4.31445 116.147 4.31445C116.429 4.31445 116.692 4.35254 116.938 4.42871L116.903 6.87207ZM126.694 9.33301C126.694 10.7979 126.36 11.9727 125.692 12.8574C125.03 13.7363 124.134 14.1758 123.003 14.1758C122.042 14.1758 121.266 13.8418 120.674 13.1738V17.6562H118.134V4.49023H120.489L120.577 5.42188C121.192 4.68359 121.995 4.31445 122.985 4.31445C124.157 4.31445 125.068 4.74805 125.719 5.61523C126.369 6.48242 126.694 7.67773 126.694 9.20117V9.33301ZM124.154 9.14844C124.154 8.26367 123.996 7.58105 123.68 7.10059C123.369 6.62012 122.915 6.37988 122.317 6.37988C121.521 6.37988 120.973 6.68457 120.674 7.29395V11.1875C120.984 11.8145 121.538 12.1279 122.335 12.1279C123.548 12.1279 124.154 11.1348 124.154 9.14844ZM133.972 13.0332C133.345 13.7949 132.478 14.1758 131.37 14.1758C130.351 14.1758 129.571 13.8828 129.032 13.2969C128.499 12.7109 128.227 11.8525 128.215 10.7217V4.49023H130.755V10.6338C130.755 11.624 131.206 12.1191 132.108 12.1191C132.97 12.1191 133.562 11.8203 133.884 11.2227V4.49023H136.433V14H134.042L133.972 13.0332ZM140.687 4.49023L140.766 5.58887C141.445 4.73926 142.356 4.31445 143.499 4.31445C144.507 4.31445 145.257 4.61035 145.749 5.20215C146.241 5.79395 146.493 6.67871 146.505 7.85645V14H143.965V7.91797C143.965 7.37891 143.848 6.98926 143.613 6.74902C143.379 6.50293 142.989 6.37988 142.444 6.37988C141.729 6.37988 141.193 6.68457 140.836 7.29395V14H138.296V4.49023H140.687ZM151.893 10.1855L150.979 11.0996V14H148.438V0.5H150.979V7.97949L151.471 7.34668L153.905 4.49023H156.955L153.519 8.4541L157.254 14H154.336L151.893 10.1855ZM171.202 14H162.431V12.2598L166.57 7.84766C167.139 7.22656 167.558 6.68457 167.827 6.22168C168.103 5.75879 168.24 5.31934 168.24 4.90332C168.24 4.33496 168.097 3.88965 167.81 3.56738C167.522 3.23926 167.112 3.0752 166.579 3.0752C166.005 3.0752 165.551 3.27441 165.217 3.67285C164.889 4.06543 164.725 4.58398 164.725 5.22852H162.176C162.176 4.44922 162.36 3.7373 162.729 3.09277C163.104 2.44824 163.632 1.94434 164.312 1.58105C164.991 1.21191 165.762 1.02734 166.623 1.02734C167.941 1.02734 168.964 1.34375 169.69 1.97656C170.423 2.60938 170.789 3.50293 170.789 4.65723C170.789 5.29004 170.625 5.93457 170.297 6.59082C169.969 7.24707 169.406 8.01172 168.609 8.88477L165.7 11.9521H171.202V14ZM181.38 8.70898C181.38 10.4785 181.014 11.832 180.281 12.7695C179.549 13.707 178.477 14.1758 177.064 14.1758C175.67 14.1758 174.604 13.7158 173.865 12.7959C173.127 11.876 172.749 10.5576 172.731 8.84082V6.48535C172.731 4.69824 173.101 3.3418 173.839 2.41602C174.583 1.49023 175.652 1.02734 177.047 1.02734C178.441 1.02734 179.508 1.4873 180.246 2.40723C180.984 3.32129 181.362 4.63672 181.38 6.35352V8.70898ZM178.84 6.125C178.84 5.06445 178.693 4.29395 178.4 3.81348C178.113 3.32715 177.662 3.08398 177.047 3.08398C176.449 3.08398 176.007 3.31543 175.72 3.77832C175.438 4.23535 175.289 4.95312 175.271 5.93164V9.04297C175.271 10.0859 175.412 10.8623 175.693 11.3721C175.98 11.876 176.438 12.1279 177.064 12.1279C177.686 12.1279 178.134 11.8848 178.409 11.3984C178.685 10.9121 178.828 10.168 178.84 9.16602V6.125ZM191.804 2.62695L186.855 14H184.175L189.132 3.25977H182.769V1.20312H191.804V2.62695ZM202.14 2.62695L197.191 14H194.511L199.468 3.25977H193.104V1.20312H202.14V2.62695ZM571.122 5.61523L573.521 1.20312H576.554L572.827 7.54883L576.65 14H573.583L571.122 9.51758L568.661 14H565.594L569.417 7.54883L565.69 1.20312H568.723L571.122 5.61523ZM586.389 9.33301C586.389 10.8564 586.063 12.0459 585.413 12.9014C584.763 13.751 583.854 14.1758 582.688 14.1758C581.657 14.1758 580.834 13.7803 580.219 12.9893L580.104 14H577.819V0.5H580.359V5.34277C580.945 4.65723 581.716 4.31445 582.671 4.31445C583.831 4.31445 584.739 4.74219 585.396 5.59766C586.058 6.44727 586.389 7.64551 586.389 9.19238V9.33301ZM583.849 9.14844C583.849 8.1875 583.696 7.4873 583.392 7.04785C583.087 6.60254 582.633 6.37988 582.029 6.37988C581.221 6.37988 580.664 6.71094 580.359 7.37305V11.126C580.67 11.7939 581.232 12.1279 582.047 12.1279C582.867 12.1279 583.406 11.7236 583.664 10.915C583.787 10.5283 583.849 9.93945 583.849 9.14844ZM587.566 9.15723C587.566 8.21387 587.748 7.37305 588.111 6.63477C588.475 5.89648 588.996 5.3252 589.676 4.9209C590.361 4.5166 591.155 4.31445 592.058 4.31445C593.341 4.31445 594.387 4.70703 595.195 5.49219C596.01 6.27734 596.464 7.34375 596.558 8.69141L596.575 9.3418C596.575 10.8008 596.168 11.9727 595.354 12.8574C594.539 13.7363 593.446 14.1758 592.075 14.1758C590.704 14.1758 589.608 13.7363 588.788 12.8574C587.974 11.9785 587.566 10.7832 587.566 9.27148V9.15723ZM590.106 9.3418C590.106 10.2441 590.276 10.9355 590.616 11.416C590.956 11.8906 591.442 12.1279 592.075 12.1279C592.69 12.1279 593.171 11.8936 593.517 11.4248C593.862 10.9502 594.035 10.1943 594.035 9.15723C594.035 8.27246 593.862 7.58691 593.517 7.10059C593.171 6.61426 592.685 6.37109 592.058 6.37109C591.437 6.37109 590.956 6.61426 590.616 7.10059C590.276 7.58105 590.106 8.32812 590.106 9.3418ZM601.567 7.3291L603.167 4.49023H605.883L603.176 9.14844L605.997 14H603.272L601.576 11.0117L599.889 14H597.155L599.977 9.14844L597.278 4.49023H600.003L601.567 7.3291ZM618.39 10.6426C618.39 10.1445 618.214 9.76367 617.862 9.5C617.511 9.23047 616.878 8.94922 615.964 8.65625C615.05 8.35742 614.326 8.06445 613.793 7.77734C612.34 6.99219 611.613 5.93457 611.613 4.60449C611.613 3.91309 611.807 3.29785 612.193 2.75879C612.586 2.21387 613.146 1.78906 613.872 1.48438C614.604 1.17969 615.425 1.02734 616.333 1.02734C617.247 1.02734 618.062 1.19434 618.776 1.52832C619.491 1.85645 620.045 2.32227 620.438 2.92578C620.836 3.5293 621.035 4.21484 621.035 4.98242H618.398C618.398 4.39648 618.214 3.94238 617.845 3.62012C617.476 3.29199 616.957 3.12793 616.289 3.12793C615.645 3.12793 615.144 3.26562 614.786 3.54102C614.429 3.81055 614.25 4.16797 614.25 4.61328C614.25 5.0293 614.458 5.37793 614.874 5.65918C615.296 5.94043 615.914 6.2041 616.729 6.4502C618.229 6.90137 619.321 7.46094 620.007 8.12891C620.692 8.79688 621.035 9.62891 621.035 10.625C621.035 11.7324 620.616 12.6025 619.778 13.2354C618.94 13.8623 617.812 14.1758 616.395 14.1758C615.41 14.1758 614.514 13.9971 613.705 13.6396C612.896 13.2764 612.278 12.7812 611.851 12.1543C611.429 11.5273 611.218 10.8008 611.218 9.97461H613.863C613.863 11.3867 614.707 12.0928 616.395 12.0928C617.021 12.0928 617.511 11.9668 617.862 11.7148C618.214 11.457 618.39 11.0996 618.39 10.6426ZM627.038 14.1758C625.644 14.1758 624.507 13.748 623.628 12.8926C622.755 12.0371 622.318 10.8975 622.318 9.47363V9.22754C622.318 8.27246 622.503 7.41992 622.872 6.66992C623.241 5.91406 623.763 5.33398 624.437 4.92969C625.116 4.51953 625.89 4.31445 626.757 4.31445C628.058 4.31445 629.08 4.72461 629.824 5.54492C630.574 6.36523 630.949 7.52832 630.949 9.03418V10.0713H624.894C624.976 10.6924 625.222 11.1904 625.632 11.5654C626.048 11.9404 626.572 12.1279 627.205 12.1279C628.184 12.1279 628.948 11.7734 629.499 11.0645L630.747 12.4619C630.366 13.001 629.851 13.4229 629.2 13.7275C628.55 14.0264 627.829 14.1758 627.038 14.1758ZM626.748 6.37109C626.244 6.37109 625.834 6.54102 625.518 6.88086C625.207 7.2207 625.008 7.70703 624.92 8.33984H628.453V8.1377C628.441 7.5752 628.289 7.1416 627.996 6.83691C627.703 6.52637 627.287 6.37109 626.748 6.37109ZM637.743 6.87207C637.397 6.8252 637.093 6.80176 636.829 6.80176C635.868 6.80176 635.238 7.12695 634.939 7.77734V14H632.399V4.49023H634.799L634.869 5.62402C635.379 4.75098 636.085 4.31445 636.987 4.31445C637.269 4.31445 637.532 4.35254 637.778 4.42871L637.743 6.87207ZM641.654 14H639.105V4.49023H641.654V14ZM638.956 2.0293C638.956 1.64844 639.082 1.33496 639.334 1.08887C639.592 0.842773 639.94 0.719727 640.38 0.719727C640.813 0.719727 641.159 0.842773 641.417 1.08887C641.675 1.33496 641.804 1.64844 641.804 2.0293C641.804 2.41602 641.672 2.73242 641.408 2.97852C641.15 3.22461 640.808 3.34766 640.38 3.34766C639.952 3.34766 639.606 3.22461 639.343 2.97852C639.085 2.73242 638.956 2.41602 638.956 2.0293ZM648.132 14.1758C646.737 14.1758 645.601 13.748 644.722 12.8926C643.849 12.0371 643.412 10.8975 643.412 9.47363V9.22754C643.412 8.27246 643.597 7.41992 643.966 6.66992C644.335 5.91406 644.856 5.33398 645.53 4.92969C646.21 4.51953 646.983 4.31445 647.851 4.31445C649.151 4.31445 650.174 4.72461 650.918 5.54492C651.668 6.36523 652.043 7.52832 652.043 9.03418V10.0713H645.987C646.069 10.6924 646.315 11.1904 646.726 11.5654C647.142 11.9404 647.666 12.1279 648.299 12.1279C649.277 12.1279 650.042 11.7734 650.593 11.0645L651.841 12.4619C651.46 13.001 650.944 13.4229 650.294 13.7275C649.644 14.0264 648.923 14.1758 648.132 14.1758ZM647.842 6.37109C647.338 6.37109 646.928 6.54102 646.611 6.88086C646.301 7.2207 646.102 7.70703 646.014 8.33984H649.547V8.1377C649.535 7.5752 649.383 7.1416 649.09 6.83691C648.797 6.52637 648.381 6.37109 647.842 6.37109ZM658.644 11.3721C658.644 11.0615 658.488 10.8184 658.178 10.6426C657.873 10.4609 657.381 10.2998 656.701 10.1592C654.439 9.68457 653.309 8.72363 653.309 7.27637C653.309 6.43262 653.657 5.72949 654.354 5.16699C655.058 4.59863 655.975 4.31445 657.105 4.31445C658.312 4.31445 659.276 4.59863 659.997 5.16699C660.724 5.73535 661.087 6.47363 661.087 7.38184H658.547C658.547 7.01855 658.43 6.71973 658.195 6.48535C657.961 6.24512 657.595 6.125 657.097 6.125C656.669 6.125 656.338 6.22168 656.104 6.41504C655.869 6.6084 655.752 6.85449 655.752 7.15332C655.752 7.43457 655.884 7.66309 656.147 7.83887C656.417 8.00879 656.868 8.1582 657.501 8.28711C658.134 8.41016 658.667 8.55078 659.101 8.70898C660.442 9.20117 661.113 10.0537 661.113 11.2666C661.113 12.1338 660.741 12.8369 659.997 13.376C659.253 13.9092 658.292 14.1758 657.114 14.1758C656.317 14.1758 655.608 14.0352 654.987 13.7539C654.372 13.4668 653.889 13.0771 653.537 12.585C653.186 12.0869 653.01 11.5508 653.01 10.9766H655.418C655.441 11.4277 655.608 11.7734 655.919 12.0137C656.229 12.2539 656.646 12.374 657.167 12.374C657.653 12.374 658.02 12.2832 658.266 12.1016C658.518 11.9141 658.644 11.6709 658.644 11.3721ZM671.985 5.61523L674.385 1.20312H677.417L673.69 7.54883L677.514 14H674.446L671.985 9.51758L669.524 14H666.457L670.28 7.54883L666.554 1.20312H669.586L671.985 5.61523ZM725.599 10.6426C725.599 10.1445 725.423 9.76367 725.071 9.5C724.72 9.23047 724.087 8.94922 723.173 8.65625C722.259 8.35742 721.535 8.06445 721.002 7.77734C719.549 6.99219 718.822 5.93457 718.822 4.60449C718.822 3.91309 719.016 3.29785 719.402 2.75879C719.795 2.21387 720.354 1.78906 721.081 1.48438C721.813 1.17969 722.634 1.02734 723.542 1.02734C724.456 1.02734 725.271 1.19434 725.985 1.52832C726.7 1.85645 727.254 2.32227 727.646 2.92578C728.045 3.5293 728.244 4.21484 728.244 4.98242H725.607C725.607 4.39648 725.423 3.94238 725.054 3.62012C724.685 3.29199 724.166 3.12793 723.498 3.12793C722.854 3.12793 722.353 3.26562 721.995 3.54102C721.638 3.81055 721.459 4.16797 721.459 4.61328C721.459 5.0293 721.667 5.37793 722.083 5.65918C722.505 5.94043 723.123 6.2041 723.938 6.4502C725.438 6.90137 726.53 7.46094 727.216 8.12891C727.901 8.79688 728.244 9.62891 728.244 10.625C728.244 11.7324 727.825 12.6025 726.987 13.2354C726.149 13.8623 725.021 14.1758 723.604 14.1758C722.619 14.1758 721.723 13.9971 720.914 13.6396C720.105 13.2764 719.487 12.7812 719.06 12.1543C718.638 11.5273 718.427 10.8008 718.427 9.97461H721.072C721.072 11.3867 721.916 12.0928 723.604 12.0928C724.23 12.0928 724.72 11.9668 725.071 11.7148C725.423 11.457 725.599 11.0996 725.599 10.6426ZM729.475 9.15723C729.475 8.21387 729.656 7.37305 730.02 6.63477C730.383 5.89648 730.904 5.3252 731.584 4.9209C732.27 4.5166 733.063 4.31445 733.966 4.31445C735.249 4.31445 736.295 4.70703 737.104 5.49219C737.918 6.27734 738.372 7.34375 738.466 8.69141L738.483 9.3418C738.483 10.8008 738.076 11.9727 737.262 12.8574C736.447 13.7363 735.354 14.1758 733.983 14.1758C732.612 14.1758 731.517 13.7363 730.696 12.8574C729.882 11.9785 729.475 10.7832 729.475 9.27148V9.15723ZM732.015 9.3418C732.015 10.2441 732.185 10.9355 732.524 11.416C732.864 11.8906 733.351 12.1279 733.983 12.1279C734.599 12.1279 735.079 11.8936 735.425 11.4248C735.771 10.9502 735.943 10.1943 735.943 9.15723C735.943 8.27246 735.771 7.58691 735.425 7.10059C735.079 6.61426 734.593 6.37109 733.966 6.37109C733.345 6.37109 732.864 6.61426 732.524 7.10059C732.185 7.58105 732.015 8.32812 732.015 9.3418ZM742.386 4.49023L742.465 5.58887C743.145 4.73926 744.056 4.31445 745.198 4.31445C746.206 4.31445 746.956 4.61035 747.448 5.20215C747.94 5.79395 748.192 6.67871 748.204 7.85645V14H745.664V7.91797C745.664 7.37891 745.547 6.98926 745.312 6.74902C745.078 6.50293 744.688 6.37988 744.144 6.37988C743.429 6.37988 742.893 6.68457 742.535 7.29395V14H739.995V4.49023H742.386ZM753.688 10.4053L755.446 4.49023H758.171L754.348 15.4766L754.137 15.9775C753.568 17.2197 752.631 17.8408 751.324 17.8408C750.955 17.8408 750.58 17.7852 750.199 17.6738V15.749L750.586 15.7578C751.066 15.7578 751.424 15.6846 751.658 15.5381C751.898 15.3916 752.086 15.1484 752.221 14.8086L752.52 14.0264L749.188 4.49023H751.922L753.688 10.4053ZM766.459 9.49121V14H763.822V1.20312H768.814C769.775 1.20312 770.619 1.37891 771.346 1.73047C772.078 2.08203 772.641 2.58301 773.033 3.2334C773.426 3.87793 773.622 4.61328 773.622 5.43945C773.622 6.69336 773.191 7.68359 772.33 8.41016C771.475 9.13086 770.288 9.49121 768.771 9.49121H766.459ZM766.459 7.35547H768.814C769.512 7.35547 770.042 7.19141 770.405 6.86328C770.774 6.53516 770.959 6.06641 770.959 5.45703C770.959 4.83008 770.774 4.32324 770.405 3.93652C770.036 3.5498 769.526 3.35059 768.876 3.33887H766.459V7.35547ZM777.955 14H775.406V0.5H777.955V14ZM785.566 14C785.449 13.7715 785.364 13.4873 785.312 13.1475C784.696 13.833 783.896 14.1758 782.912 14.1758C781.98 14.1758 781.207 13.9062 780.592 13.3672C779.982 12.8281 779.678 12.1484 779.678 11.3281C779.678 10.3203 780.05 9.54688 780.794 9.00781C781.544 8.46875 782.625 8.19629 784.037 8.19043H785.206V7.64551C785.206 7.20605 785.092 6.85449 784.863 6.59082C784.641 6.32715 784.286 6.19531 783.8 6.19531C783.372 6.19531 783.035 6.29785 782.789 6.50293C782.549 6.70801 782.429 6.98926 782.429 7.34668H779.889C779.889 6.7959 780.059 6.28613 780.398 5.81738C780.738 5.34863 781.219 4.98242 781.84 4.71875C782.461 4.44922 783.158 4.31445 783.932 4.31445C785.104 4.31445 786.032 4.61035 786.718 5.20215C787.409 5.78809 787.755 6.61426 787.755 7.68066V11.8027C787.761 12.7051 787.887 13.3877 788.133 13.8506V14H785.566ZM783.466 12.2334C783.841 12.2334 784.187 12.1514 784.503 11.9873C784.819 11.8174 785.054 11.5918 785.206 11.3105V9.67578H784.257C782.985 9.67578 782.309 10.1152 782.227 10.9941L782.218 11.1436C782.218 11.46 782.329 11.7207 782.552 11.9258C782.774 12.1309 783.079 12.2334 783.466 12.2334ZM793.116 10.4053L794.874 4.49023H797.599L793.775 15.4766L793.564 15.9775C792.996 17.2197 792.059 17.8408 790.752 17.8408C790.383 17.8408 790.008 17.7852 789.627 17.6738V15.749L790.014 15.7578C790.494 15.7578 790.852 15.6846 791.086 15.5381C791.326 15.3916 791.514 15.1484 791.648 14.8086L791.947 14.0264L788.616 4.49023H791.35L793.116 10.4053ZM805.403 10.6426C805.403 10.1445 805.228 9.76367 804.876 9.5C804.524 9.23047 803.892 8.94922 802.978 8.65625C802.063 8.35742 801.34 8.06445 800.807 7.77734C799.354 6.99219 798.627 5.93457 798.627 4.60449C798.627 3.91309 798.82 3.29785 799.207 2.75879C799.6 2.21387 800.159 1.78906 800.886 1.48438C801.618 1.17969 802.438 1.02734 803.347 1.02734C804.261 1.02734 805.075 1.19434 805.79 1.52832C806.505 1.85645 807.059 2.32227 807.451 2.92578C807.85 3.5293 808.049 4.21484 808.049 4.98242H805.412C805.412 4.39648 805.228 3.94238 804.858 3.62012C804.489 3.29199 803.971 3.12793 803.303 3.12793C802.658 3.12793 802.157 3.26562 801.8 3.54102C801.442 3.81055 801.264 4.16797 801.264 4.61328C801.264 5.0293 801.472 5.37793 801.888 5.65918C802.31 5.94043 802.928 6.2041 803.742 6.4502C805.242 6.90137 806.335 7.46094 807.021 8.12891C807.706 8.79688 808.049 9.62891 808.049 10.625C808.049 11.7324 807.63 12.6025 806.792 13.2354C805.954 13.8623 804.826 14.1758 803.408 14.1758C802.424 14.1758 801.527 13.9971 800.719 13.6396C799.91 13.2764 799.292 12.7812 798.864 12.1543C798.442 11.5273 798.231 10.8008 798.231 9.97461H800.877C800.877 11.3867 801.721 12.0928 803.408 12.0928C804.035 12.0928 804.524 11.9668 804.876 11.7148C805.228 11.457 805.403 11.0996 805.403 10.6426ZM812.716 2.15234V4.49023H814.342V6.35352H812.716V11.0996C812.716 11.4512 812.783 11.7031 812.918 11.8555C813.053 12.0078 813.311 12.084 813.691 12.084C813.973 12.084 814.222 12.0635 814.438 12.0225V13.9473C813.94 14.0996 813.428 14.1758 812.9 14.1758C811.119 14.1758 810.211 13.2764 810.176 11.4775V6.35352H808.787V4.49023H810.176V2.15234H812.716ZM821.268 14C821.15 13.7715 821.065 13.4873 821.013 13.1475C820.397 13.833 819.598 14.1758 818.613 14.1758C817.682 14.1758 816.908 13.9062 816.293 13.3672C815.684 12.8281 815.379 12.1484 815.379 11.3281C815.379 10.3203 815.751 9.54688 816.495 9.00781C817.245 8.46875 818.326 8.19629 819.738 8.19043H820.907V7.64551C820.907 7.20605 820.793 6.85449 820.564 6.59082C820.342 6.32715 819.987 6.19531 819.501 6.19531C819.073 6.19531 818.736 6.29785 818.49 6.50293C818.25 6.70801 818.13 6.98926 818.13 7.34668H815.59C815.59 6.7959 815.76 6.28613 816.1 5.81738C816.439 5.34863 816.92 4.98242 817.541 4.71875C818.162 4.44922 818.859 4.31445 819.633 4.31445C820.805 4.31445 821.733 4.61035 822.419 5.20215C823.11 5.78809 823.456 6.61426 823.456 7.68066V11.8027C823.462 12.7051 823.588 13.3877 823.834 13.8506V14H821.268ZM819.167 12.2334C819.542 12.2334 819.888 12.1514 820.204 11.9873C820.521 11.8174 820.755 11.5918 820.907 11.3105V9.67578H819.958C818.687 9.67578 818.01 10.1152 817.928 10.9941L817.919 11.1436C817.919 11.46 818.03 11.7207 818.253 11.9258C818.476 12.1309 818.78 12.2334 819.167 12.2334ZM828.448 2.15234V4.49023H830.074V6.35352H828.448V11.0996C828.448 11.4512 828.516 11.7031 828.65 11.8555C828.785 12.0078 829.043 12.084 829.424 12.084C829.705 12.084 829.954 12.0635 830.171 12.0225V13.9473C829.673 14.0996 829.16 14.1758 828.633 14.1758C826.852 14.1758 825.943 13.2764 825.908 11.4775V6.35352H824.52V4.49023H825.908V2.15234H828.448ZM834.17 14H831.621V4.49023H834.17V14ZM831.472 2.0293C831.472 1.64844 831.598 1.33496 831.85 1.08887C832.107 0.842773 832.456 0.719727 832.896 0.719727C833.329 0.719727 833.675 0.842773 833.933 1.08887C834.19 1.33496 834.319 1.64844 834.319 2.0293C834.319 2.41602 834.188 2.73242 833.924 2.97852C833.666 3.22461 833.323 3.34766 832.896 3.34766C832.468 3.34766 832.122 3.22461 831.858 2.97852C831.601 2.73242 831.472 2.41602 831.472 2.0293ZM835.875 9.15723C835.875 8.21387 836.057 7.37305 836.42 6.63477C836.783 5.89648 837.305 5.3252 837.984 4.9209C838.67 4.5166 839.464 4.31445 840.366 4.31445C841.649 4.31445 842.695 4.70703 843.504 5.49219C844.318 6.27734 844.772 7.34375 844.866 8.69141L844.884 9.3418C844.884 10.8008 844.477 11.9727 843.662 12.8574C842.848 13.7363 841.755 14.1758 840.384 14.1758C839.013 14.1758 837.917 13.7363 837.097 12.8574C836.282 11.9785 835.875 10.7832 835.875 9.27148V9.15723ZM838.415 9.3418C838.415 10.2441 838.585 10.9355 838.925 11.416C839.265 11.8906 839.751 12.1279 840.384 12.1279C840.999 12.1279 841.479 11.8936 841.825 11.4248C842.171 10.9502 842.344 10.1943 842.344 9.15723C842.344 8.27246 842.171 7.58691 841.825 7.10059C841.479 6.61426 840.993 6.37109 840.366 6.37109C839.745 6.37109 839.265 6.61426 838.925 7.10059C838.585 7.58105 838.415 8.32812 838.415 9.3418ZM848.786 4.49023L848.865 5.58887C849.545 4.73926 850.456 4.31445 851.599 4.31445C852.606 4.31445 853.356 4.61035 853.849 5.20215C854.341 5.79395 854.593 6.67871 854.604 7.85645V14H852.064V7.91797C852.064 7.37891 851.947 6.98926 851.713 6.74902C851.479 6.50293 851.089 6.37988 850.544 6.37988C849.829 6.37988 849.293 6.68457 848.936 7.29395V14H846.396V4.49023H848.786ZM861.293 7.70703L862.031 1.20312H869.203V3.32129H864.114L863.798 6.07227C864.401 5.75 865.043 5.58887 865.723 5.58887C866.941 5.58887 867.896 5.9668 868.588 6.72266C869.279 7.47852 869.625 8.53613 869.625 9.89551C869.625 10.7217 869.449 11.4629 869.098 12.1191C868.752 12.7695 868.254 13.2764 867.604 13.6396C866.953 13.9971 866.186 14.1758 865.301 14.1758C864.527 14.1758 863.81 14.0205 863.147 13.71C862.485 13.3936 861.961 12.9512 861.574 12.3828C861.193 11.8145 860.991 11.167 860.968 10.4404H863.481C863.534 10.9736 863.719 11.3896 864.035 11.6885C864.357 11.9814 864.776 12.1279 865.292 12.1279C865.866 12.1279 866.309 11.9229 866.619 11.5127C866.93 11.0967 867.085 10.5107 867.085 9.75488C867.085 9.02832 866.906 8.47168 866.549 8.08496C866.191 7.69824 865.685 7.50488 865.028 7.50488C864.425 7.50488 863.936 7.66309 863.561 7.97949L863.314 8.20801L861.293 7.70703ZM873.94 10.0713H871.831L871.532 1.20312H874.239L873.94 10.0713ZM872.886 11.46C873.313 11.46 873.656 11.5859 873.914 11.8379C874.178 12.0898 874.31 12.4121 874.31 12.8047C874.31 13.1914 874.178 13.5107 873.914 13.7627C873.656 14.0146 873.313 14.1406 872.886 14.1406C872.464 14.1406 872.121 14.0146 871.857 13.7627C871.6 13.5107 871.471 13.1914 871.471 12.8047C871.471 12.418 871.6 12.0986 871.857 11.8467C872.121 11.5889 872.464 11.46 872.886 11.46Z" fill="#52BEDC"/>
</svg>
