<svg width="565" height="52" viewBox="0 0 565 52" fill="none" xmlns="http://www.w3.org/2000/svg">
<path d="M37.2 0.799999H29.76L7.44 26.592V0.799999H0V38H7.44L29.76 12.208V38H37.2V0.799999ZM40.9297 29.506C40.9297 35.1273 43.761 37.9587 49.4237 38H66.3497V31.18H49.4237C48.3077 31.18 47.7497 30.622 47.7497 29.506C47.7497 28.3487 48.3077 27.77 49.4237 27.77H59.7157C65.3784 27.7287 68.2097 24.8353 68.2097 19.09C68.2097 13.51 65.3784 10.72 59.7157 10.72H42.7897V17.54H59.7157C60.7904 17.54 61.3484 18.098 61.3897 19.214C61.3484 20.3713 60.7904 20.95 59.7157 20.95H49.4237C43.761 20.95 40.9297 23.802 40.9297 29.506ZM99.2097 20.95C99.2097 14.13 95.7997 10.72 88.9797 10.72H71.9297V51.64H78.7497V38H88.8557C95.7584 38 99.2097 34.59 99.2097 27.77V20.95ZM78.7497 17.54H88.9797C91.253 17.54 92.3897 18.6767 92.3897 20.95V27.77C92.3897 30.0433 91.253 31.18 88.9797 31.18H78.7497V17.54ZM130.21 38V20.95C130.21 14.13 126.8 10.72 119.98 10.72H104.17V17.54H119.98C122.253 17.54 123.39 18.656 123.39 20.888V20.95H111.486C105.782 20.95 102.93 23.74 102.93 29.32C102.93 35.1067 105.782 38 111.486 38H130.21ZM109.75 29.444C109.75 28.328 110.328 27.77 111.486 27.77H123.39V31.18H111.486C110.328 31.18 109.75 30.6013 109.75 29.444ZM150.98 7.62H144.16V0.799999H150.98V7.62ZM161.21 38H154.39V35.086C150.876 37.442 147.466 38.62 144.16 38.62C137.34 38.62 133.93 35.21 133.93 28.39V10.72H140.75V28.39C140.75 30.622 141.886 31.7587 144.16 31.8C148.706 31.2213 152.116 29.0513 154.39 25.29V10.72H161.21V38ZM223.21 38H216.39V35.086C212.876 37.442 209.466 38.62 206.16 38.62C199.34 38.62 195.93 35.21 195.93 28.39V10.72H202.75V28.39C202.75 30.622 203.886 31.7587 206.16 31.8C210.706 31.2213 214.116 29.0513 216.39 25.29V10.72H223.21V38ZM282.854 24.298C284.424 22.7687 285.21 21.1153 285.21 19.338C285.168 13.5927 282.316 10.72 276.654 10.72H257.93V38H276.654C282.358 38 285.21 35.21 285.21 29.63C285.21 27.6873 284.424 25.91 282.854 24.298ZM276.654 20.95H264.75V17.54H276.654C277.811 17.54 278.39 18.16 278.39 19.4C278.39 20.4333 277.811 20.95 276.654 20.95ZM276.654 31.18H264.75V27.77H276.654C277.811 27.77 278.39 28.39 278.39 29.63C278.39 30.6633 277.811 31.18 276.654 31.18ZM316.21 27.77C316.21 34.59 312.8 38 305.98 38H288.93V10.72H295.75V17.54H305.856C312.758 17.54 316.21 20.95 316.21 27.77ZM295.75 31.18H305.98C308.253 31.18 309.39 30.0433 309.39 27.77C309.39 25.4967 308.253 24.36 305.98 24.36H295.75V31.18ZM326.44 38V10.72H319.62V38H326.44ZM357.442 38H350.622V35.086C347.109 37.442 343.699 38.62 340.392 38.62C333.572 38.62 330.162 35.21 330.162 28.39V10.72H336.982V28.39C336.982 30.622 338.119 31.7587 340.392 31.8C344.939 31.2213 348.349 29.0513 350.622 25.29V10.72H357.442V38ZM361.162 29.506C361.162 35.1273 363.993 37.9587 369.656 38H386.582V31.18H369.656C368.54 31.18 367.982 30.622 367.982 29.506C367.982 28.3487 368.54 27.77 369.656 27.77H379.948C385.611 27.7287 388.442 24.8353 388.442 19.09C388.442 13.51 385.611 10.72 379.948 10.72H363.022V17.54H379.948C381.023 17.54 381.581 18.098 381.622 19.214C381.581 20.3713 381.023 20.95 379.948 20.95H369.656C363.993 20.95 361.162 23.802 361.162 29.506ZM419.442 20.95C419.442 14.13 416.032 10.72 409.212 10.72H392.162V51.64H398.982V38H409.088C415.991 38 419.442 34.59 419.442 27.77V20.95ZM398.982 17.54H409.212C411.485 17.54 412.622 18.6767 412.622 20.95V27.77C412.622 30.0433 411.485 31.18 409.212 31.18H398.982V17.54ZM450.442 27.77C450.442 34.59 447.032 38 440.212 38H423.162V10.72H429.982V17.54H440.088C446.991 17.54 450.442 20.95 450.442 27.77ZM429.982 31.18H440.212C442.485 31.18 443.622 30.0433 443.622 27.77C443.622 25.4967 442.485 24.36 440.212 24.36H429.982V31.18ZM460.672 38V10.72H453.852V38H460.672ZM489.319 24.298C490.889 22.7687 491.675 21.1153 491.675 19.338C491.633 13.5927 488.781 10.72 483.119 10.72H464.395V38H483.119C488.823 38 491.675 35.21 491.675 29.63C491.675 27.6873 490.889 25.91 489.319 24.298ZM483.119 20.95H471.215V17.54H483.119C484.276 17.54 484.855 18.16 484.855 19.4C484.855 20.4333 484.276 20.95 483.119 20.95ZM483.119 31.18H471.215V27.77H483.119C484.276 27.77 484.855 28.39 484.855 29.63C484.855 30.6633 484.276 31.18 483.119 31.18ZM522.675 38V20.95C522.675 14.13 519.265 10.72 512.445 10.72H496.635V17.54H512.445C514.718 17.54 515.855 18.656 515.855 20.888V20.95H503.951C498.247 20.95 495.395 23.74 495.395 29.32C495.395 35.1067 498.247 38 503.951 38H522.675ZM502.215 29.444C502.215 28.328 502.793 27.77 503.951 27.77H515.855V31.18H503.951C502.793 31.18 502.215 30.6013 502.215 29.444ZM543.445 7.62H536.625V0.799999H543.445V7.62ZM553.675 38H546.855V35.086C543.341 37.442 539.931 38.62 536.625 38.62C529.805 38.62 526.395 35.21 526.395 28.39V10.72H533.215V28.39C533.215 30.622 534.351 31.7587 536.625 31.8C541.171 31.2213 544.581 29.0513 546.855 25.29V10.72H553.675V38ZM564.835 26.84H557.395V0.799999H564.835V26.84ZM564.835 38H557.395V30.56H564.835V38Z" fill="white"/>
</svg>
