<svg width="482" height="115" viewBox="0 0 482 115" fill="none" xmlns="http://www.w3.org/2000/svg">
<path d="M37.2 38H27.714L15.81 23.12H7.44V38H0V0.799999H7.44V15.68H15.81L27.714 0.799999H37.2L22.32 19.4L37.2 38ZM42.7727 51.64H45.9347C50.4401 51.64 54.0154 48.974 56.6607 43.642L59.4507 38L73.0907 10.72H65.4647L56.1027 29.63L46.6787 10.72H39.0527L52.1347 36.884L50.1507 40.976C48.4147 43.5387 46.9887 44.82 45.8727 44.82H42.7727V51.64ZM81.777 38V17.54H92.007C94.2804 17.54 95.417 18.6767 95.417 20.95V38H102.237V20.95C102.237 14.13 98.827 10.72 92.007 10.72H74.957V38H81.777ZM133.237 38H126.417V35.086C122.904 37.442 119.494 38.62 116.187 38.62C109.367 38.62 105.957 35.21 105.957 28.39V10.72H112.777V28.39C112.777 30.622 113.914 31.7587 116.187 31.8C120.734 31.2213 124.144 29.0513 126.417 25.29V10.72H133.237V38ZM164.237 17.54H154.007V38H147.187V17.54H136.957V10.72H164.237V17.54ZM195.237 27.77C195.237 34.59 191.827 38 185.007 38H167.957V10.72H174.777V17.54H184.883C191.786 17.54 195.237 20.95 195.237 27.77ZM174.777 31.18H185.007C187.28 31.18 188.417 30.0433 188.417 27.77C188.417 25.4967 187.28 24.36 185.007 24.36H174.777V31.18ZM257.237 38H250.417V35.086C246.904 37.442 243.494 38.62 240.187 38.62C233.367 38.62 229.957 35.21 229.957 28.39V10.72H236.777V28.39C236.777 30.622 237.914 31.7587 240.187 31.8C244.734 31.2213 248.144 29.0513 250.417 25.29V10.72H257.237V38ZM260.957 29.506C260.957 35.1273 263.788 37.9587 269.451 38H286.377V31.18H269.451C268.335 31.18 267.777 30.622 267.777 29.506C267.777 28.3487 268.335 27.77 269.451 27.77H279.743C285.406 27.7287 288.237 24.8353 288.237 19.09C288.237 13.51 285.406 10.72 279.743 10.72H262.817V17.54H279.743C280.818 17.54 281.376 18.098 281.417 19.214C281.376 20.3713 280.818 20.95 279.743 20.95H269.451C263.788 20.95 260.957 23.802 260.957 29.506ZM319.237 20.95C319.237 14.13 315.827 10.72 309.007 10.72H291.957V51.64H298.777V38H308.883C315.786 38 319.237 34.59 319.237 27.77V20.95ZM298.777 17.54H309.007C311.28 17.54 312.417 18.6767 312.417 20.95V27.77C312.417 30.0433 311.28 31.18 309.007 31.18H298.777V17.54ZM326.677 51.64H329.839C334.344 51.64 337.92 48.974 340.565 43.642L343.355 38L356.995 10.72H349.369L340.007 29.63L330.583 10.72H322.957L336.039 36.884L334.055 40.976C332.319 43.5387 330.893 44.82 329.777 44.82H326.677V51.64ZM37.2 101H11.16C3.72 101 0 97.28 0 89.84V74.96C0 67.52 3.72 63.8 11.16 63.8H37.2V71.24H11.16C8.68 71.24 7.44 72.48 7.44 74.96V89.84C7.44 92.32 8.68 93.56 11.16 93.56H37.2V101ZM44.6497 114.64H47.8117C52.317 114.64 55.8924 111.974 58.5377 106.642L61.3277 101L74.9677 73.72H67.3417L57.9797 92.63L48.5557 73.72H40.9297L54.0117 99.884L52.0277 103.976C50.2917 106.539 48.8657 107.82 47.7497 107.82H44.6497V114.64ZM104.114 90.77C104.114 97.59 100.704 101 93.884 101H76.834V63.8H83.654V73.72H93.884C100.704 73.72 104.114 77.13 104.114 83.95V90.77ZM83.654 94.18H93.884C96.1573 94.18 97.294 93.0433 97.294 90.77V83.95C97.294 81.6767 96.1573 80.54 93.884 80.54H83.654V94.18ZM135.734 90.15V83.33C135.734 76.51 132.262 73.1 125.318 73.1H118.25C111.306 73.1 107.834 76.51 107.834 83.33V90.15V90.77C107.834 97.59 111.244 101 118.064 101H134.494V94.18H118.064C115.791 94.18 114.654 93.0433 114.654 90.77V90.15H135.734ZM114.654 83.33C114.654 81.0567 115.791 79.92 118.064 79.92H125.504C127.777 79.92 128.914 81.0567 128.914 83.33H114.654ZM146.259 101V80.54H156.489C158.763 80.54 159.899 81.6767 159.899 83.95H166.719C166.719 77.13 163.309 73.72 156.489 73.72H139.439V101H146.259ZM195.721 83.95C195.721 77.13 192.311 73.72 185.491 73.72H168.441V114.64H175.261V101H185.367C192.27 101 195.721 97.59 195.721 90.77V83.95ZM175.261 80.54H185.491C187.765 80.54 188.901 81.6767 188.901 83.95V90.77C188.901 93.0433 187.765 94.18 185.491 94.18H175.261V80.54ZM226.721 91.08C226.721 97.6933 223.311 101 216.491 101H209.671C202.851 101 199.441 97.59 199.441 90.77V73.72H206.261V90.77C206.261 93.002 207.398 94.1387 209.671 94.18H216.491C218.765 94.1387 219.901 93.002 219.901 90.77V73.72H226.721V91.08ZM237.261 101V80.54H247.491C249.765 80.54 250.901 81.6767 250.901 83.95V101H257.721V83.95C257.721 77.13 254.311 73.72 247.491 73.72H230.441V101H237.261ZM292.131 101H282.397L271.671 90.77H268.261V101H261.441V63.8H268.261V83.95H271.671L282.459 73.72H292.131L278.181 87.36L292.131 101ZM362.216 74.96C362.216 82.4 358.496 86.12 351.056 86.12H339.896C334.936 86.12 332.456 88.6 332.456 93.56H362.216V101H325.016V93.56C325.016 83.64 329.976 78.68 339.896 78.68H351.056C353.536 78.68 354.776 77.44 354.776 74.96C354.776 72.48 353.536 71.24 351.056 71.24H328.736V63.8H351.056C358.496 63.8 362.216 67.52 362.216 74.96ZM399.425 89.84C399.425 97.28 395.705 101 388.265 101H377.105C369.665 101 365.945 97.28 365.945 89.84V74.96C365.945 67.52 369.665 63.8 377.105 63.8H388.265C395.705 63.8 399.425 67.52 399.425 74.96V89.84ZM391.985 89.84V74.96C391.985 72.48 390.745 71.24 388.265 71.24H377.105C374.625 71.24 373.385 72.48 373.385 74.96V89.84C373.385 92.32 374.625 93.56 377.105 93.56H388.265C390.745 93.56 391.985 92.32 391.985 89.84ZM440.321 63.8V71.24L419.551 101H410.561L431.331 71.24H403.121V63.8H440.321ZM481.251 63.8V71.24L460.481 101H451.491L472.261 71.24H444.051V63.8H481.251Z" fill="white"/>
</svg>
