<svg width="82" height="16" viewBox="0 0 82 16" fill="none" xmlns="http://www.w3.org/2000/svg">
<path d="M11.1621 0.203125V13H9.47461V1.5918H4.88672L4.6582 6.66309C4.57031 8.3623 4.39453 9.63965 4.13086 10.4951C3.87305 11.3506 3.49219 11.9805 2.98828 12.3848C2.48438 12.7832 1.81055 12.9883 0.966797 13H0.413086V11.6201L0.764648 11.6025C1.30957 11.5615 1.72852 11.3857 2.02148 11.0752C2.31445 10.7588 2.53711 10.2578 2.68945 9.57227C2.8418 8.88672 2.9502 7.83203 3.01465 6.4082L3.27832 0.203125H11.1621ZM20.127 3.49023H21.7529V13H20.127V6.06543L15.7412 13H14.1152V3.49023H15.7412V10.4336L20.127 3.49023ZM24.5039 3.49023H26.1387V11.6729H30.5156V3.49023H32.1416V11.6729H33.2754L33.1172 15.8213H31.6582V13H24.5039V3.49023ZM38.9795 13.1758C37.6904 13.1758 36.6416 12.7539 35.833 11.9102C35.0244 11.0605 34.6201 9.92676 34.6201 8.50879V8.20996C34.6201 7.2666 34.7988 6.42578 35.1562 5.6875C35.5195 4.94336 36.0234 4.36328 36.668 3.94727C37.3184 3.52539 38.0215 3.31445 38.7773 3.31445C40.0137 3.31445 40.9746 3.72168 41.6602 4.53613C42.3457 5.35059 42.6885 6.5166 42.6885 8.03418V8.71094H36.2461C36.2695 9.64844 36.542 10.4072 37.0635 10.9873C37.5908 11.5615 38.2588 11.8486 39.0674 11.8486C39.6416 11.8486 40.1279 11.7314 40.5264 11.4971C40.9248 11.2627 41.2734 10.9521 41.5723 10.5654L42.5654 11.3389C41.7686 12.5635 40.5732 13.1758 38.9795 13.1758ZM38.7773 4.65039C38.1211 4.65039 37.5703 4.89062 37.125 5.37109C36.6797 5.8457 36.4043 6.51367 36.2988 7.375H41.0625V7.25195C41.0156 6.42578 40.793 5.78711 40.3945 5.33594C39.9961 4.87891 39.457 4.65039 38.7773 4.65039ZM52.3477 13H50.7217V8.93945H46.3535V13H44.7188V3.49023H46.3535V7.6123H50.7217V3.49023H52.3477V13ZM60.1963 6.0918C60.1963 5.64648 60.0264 5.29492 59.6865 5.03711C59.3467 4.77344 58.8809 4.6416 58.2891 4.6416C57.7148 4.6416 57.2344 4.79102 56.8477 5.08984C56.4668 5.38867 56.2764 5.74023 56.2764 6.14453H54.6592C54.6592 5.31836 55.0049 4.6416 55.6963 4.11426C56.3877 3.58691 57.252 3.32324 58.2891 3.32324C59.4023 3.32324 60.2695 3.56348 60.8906 4.04395C61.5117 4.51855 61.8223 5.19824 61.8223 6.08301C61.8223 6.51074 61.6934 6.90332 61.4355 7.26074C61.1777 7.61816 60.8115 7.90234 60.3369 8.11328C61.4443 8.48828 61.998 9.22656 61.998 10.3281C61.998 11.2012 61.6611 11.8926 60.9873 12.4023C60.3135 12.9121 59.4141 13.167 58.2891 13.167C57.1934 13.167 56.2881 12.9004 55.5732 12.3672C54.8643 11.8281 54.5098 11.1016 54.5098 10.1875H56.127C56.127 10.6504 56.332 11.0488 56.7422 11.3828C57.1582 11.7109 57.6738 11.875 58.2891 11.875C58.9102 11.875 59.4111 11.7314 59.792 11.4443C60.1729 11.1572 60.3633 10.7852 60.3633 10.3281C60.3633 9.79492 60.2021 9.41406 59.8799 9.18555C59.5635 8.95117 59.0684 8.83398 58.3945 8.83398H56.7686V7.46289H58.5352C59.6426 7.43359 60.1963 6.97656 60.1963 6.0918ZM70.2598 3.49023H71.8857V13H70.2598V6.06543L65.874 13H64.248V3.49023H65.874V10.4336L70.2598 3.49023ZM81.7646 3.49023V13H80.1299V9.2998H77.6777L75.4365 13H73.6787L76.0693 9.05371C75.46 8.83105 74.9912 8.48828 74.6631 8.02539C74.3408 7.55664 74.1797 7.01172 74.1797 6.39062C74.1797 5.52344 74.5049 4.82617 75.1553 4.29883C75.8057 3.76562 76.6758 3.49609 77.7656 3.49023H81.7646ZM75.8145 6.4082C75.8145 6.87109 75.9727 7.24609 76.2891 7.5332C76.6055 7.81445 77.0244 7.95801 77.5459 7.96387H80.1299V4.80859H77.792C77.1885 4.80859 76.708 4.95801 76.3506 5.25684C75.9932 5.5498 75.8145 5.93359 75.8145 6.4082Z" fill="black"/>
</svg>
