<svg width="992" height="52" viewBox="0 0 992 52" fill="none" xmlns="http://www.w3.org/2000/svg">
<path d="M37.2 38H29.76V23.12H7.44V38H0V0.799999H7.44V15.68H29.76V0.799999H37.2V38ZM68.2097 38V20.95C68.2097 14.13 64.7997 10.72 57.9797 10.72H42.1697V17.54H57.9797C60.253 17.54 61.3897 18.656 61.3897 20.888V20.95H49.4857C43.7817 20.95 40.9297 23.74 40.9297 29.32C40.9297 35.1067 43.7817 38 49.4857 38H68.2097ZM47.7497 29.444C47.7497 28.328 48.3284 27.77 49.4857 27.77H61.3897V31.18H49.4857C48.3284 31.18 47.7497 30.6013 47.7497 29.444ZM88.9797 7.62H82.1597V0.799999H88.9797V7.62ZM99.2097 38H92.3897V35.086C88.8764 37.442 85.4664 38.62 82.1597 38.62C75.3397 38.62 71.9297 35.21 71.9297 28.39V10.72H78.7497V28.39C78.7497 30.622 79.8864 31.7587 82.1597 31.8C86.7064 31.2213 90.1164 29.0513 92.3897 25.29V10.72H99.2097V38ZM130.21 17.54H119.98V38H113.16V17.54H102.93V10.72H130.21V17.54ZM156.25 26.84H133.93V19.4H156.25V26.84ZM197.165 38H171.125C163.685 38 159.965 34.28 159.965 26.84V11.96C159.965 4.52 163.685 0.799999 171.125 0.799999H197.165V8.24H171.125C168.645 8.24 167.405 9.48 167.405 11.96V26.84C167.405 29.32 168.645 30.56 171.125 30.56H197.165V38ZM228.175 38H221.355V35.086C217.841 37.442 214.431 38.62 211.125 38.62C204.305 38.62 200.895 35.21 200.895 28.39V10.72H207.715V28.39C207.715 30.622 208.851 31.7587 211.125 31.8C215.671 31.2213 219.081 29.0513 221.355 25.29V10.72H228.175V38ZM259.175 17.54H248.945V38H242.125V17.54H231.895V10.72H259.175V17.54ZM290.175 38H283.355V35.086C279.841 37.442 276.431 38.62 273.125 38.62C266.305 38.62 262.895 35.21 262.895 28.39V10.72H269.715V28.39C269.715 30.622 270.851 31.7587 273.125 31.8C277.671 31.2213 281.081 29.0513 283.355 25.29V10.72H290.175V38ZM352.175 38H345.355V35.086C341.841 37.442 338.431 38.62 335.125 38.62C328.305 38.62 324.895 35.21 324.895 28.39V10.72H331.715V28.39C331.715 30.622 332.851 31.7587 335.125 31.8C339.671 31.2213 343.081 29.0513 345.355 25.29V10.72H352.175V38ZM374.619 20.95H362.715V27.77H374.619C375.776 27.77 376.355 28.39 376.355 29.63C376.355 30.6633 375.776 31.18 374.619 31.18H355.895V38H374.619C380.323 38 383.175 35.21 383.175 29.63C383.175 27.6873 382.389 25.91 380.819 24.298C382.389 22.7687 383.175 21.1153 383.175 19.338C383.133 13.5927 380.281 10.72 374.619 10.72H355.895V17.54H374.619C375.776 17.54 376.355 18.16 376.355 19.4C376.355 20.4333 375.776 20.95 374.619 20.95ZM420.995 38H414.175V22.872L403.945 38L393.715 22.872V38H386.895V10.72H393.715L403.945 25.848L414.175 10.72H420.995V38ZM452.636 27.15V20.33C452.636 13.51 449.164 10.1 442.22 10.1H435.152C428.208 10.1 424.736 13.51 424.736 20.33V27.15V27.77C424.736 34.59 428.146 38 434.966 38H451.396V31.18H434.966C432.693 31.18 431.556 30.0433 431.556 27.77V27.15H452.636ZM431.556 20.33C431.556 18.0567 432.693 16.92 434.966 16.92H442.406C444.68 16.92 445.816 18.0567 445.816 20.33H431.556ZM483.622 38H476.802V27.77H463.162V38H456.342V10.72H463.162V20.95H476.802V10.72H483.622V38ZM514.622 38H507.802V35.086C504.288 37.442 500.878 38.62 497.572 38.62C490.752 38.62 487.342 35.21 487.342 28.39V10.72H494.162V28.39C494.162 30.622 495.298 31.7587 497.572 31.8C502.118 31.2213 505.528 29.0513 507.802 25.29V10.72H514.622V38ZM545.622 17.54H535.392V38H528.572V17.54H518.342V10.72H545.622V17.54ZM607.622 17.54H597.392V38H590.572V17.54H580.342V10.72H607.622V17.54ZM639.242 27.15V20.33C639.242 13.51 635.77 10.1 628.826 10.1H621.758C614.814 10.1 611.342 13.51 611.342 20.33V27.15V27.77C611.342 34.59 614.752 38 621.572 38H638.002V31.18H621.572C619.298 31.18 618.162 30.0433 618.162 27.77V27.15H639.242ZM618.162 20.33C618.162 18.0567 619.298 16.92 621.572 16.92H629.012C631.285 16.92 632.422 18.0567 632.422 20.33H618.162ZM670.227 27.77C670.227 34.59 666.817 38 659.997 38H653.177C646.357 38 642.947 34.59 642.947 27.77V9.17C642.947 3.59 645.737 0.799999 651.317 0.799999H668.367V7.62H651.317C650.284 7.62 649.767 8.13667 649.767 9.17V10.72H659.997C666.817 10.72 670.227 14.13 670.227 20.95V27.77ZM649.767 27.77C649.767 30.0433 650.904 31.18 653.177 31.18H659.997C662.271 31.18 663.407 30.0433 663.407 27.77V20.95C663.407 18.6767 662.271 17.54 659.997 17.54H649.767V27.77ZM673.947 19.4C673.947 13.6133 676.799 10.72 682.503 10.72H701.227V38H694.407V27.77H691.369L682.813 38H673.947L682.503 27.77C676.799 27.77 673.947 24.98 673.947 19.4ZM694.407 17.54H682.503C681.346 17.54 680.767 18.16 680.767 19.4C680.767 20.4333 681.346 20.95 682.503 20.95H694.407V17.54ZM763.227 38H756.407V27.77H742.767V38H735.947V10.72H742.767V20.95H756.407V10.72H763.227V38ZM794.227 38V20.95C794.227 14.13 790.817 10.72 783.997 10.72H768.187V17.54H783.997C786.271 17.54 787.407 18.656 787.407 20.888V20.95H775.503C769.799 20.95 766.947 23.74 766.947 29.32C766.947 35.1067 769.799 38 775.503 38H794.227ZM773.767 29.444C773.767 28.328 774.346 27.77 775.503 27.77H787.407V31.18H775.503C774.346 31.18 773.767 30.6013 773.767 29.444ZM822.871 24.298C824.442 22.7687 825.227 21.1153 825.227 19.338C825.186 13.5927 822.334 10.72 816.671 10.72H797.947V38H816.671C822.375 38 825.227 35.21 825.227 29.63C825.227 27.6873 824.442 25.91 822.871 24.298ZM816.671 20.95H804.767V17.54H816.671C817.829 17.54 818.407 18.16 818.407 19.4C818.407 20.4333 817.829 20.95 816.671 20.95ZM816.671 31.18H804.767V27.77H816.671C817.829 27.77 818.407 28.39 818.407 29.63C818.407 30.6633 817.829 31.18 816.671 31.18ZM856.227 38H839.177C832.357 38 828.947 34.59 828.947 27.77V20.95C828.947 14.13 832.357 10.72 839.177 10.72H856.227V17.54H839.177C836.904 17.54 835.767 18.6767 835.767 20.95V27.77C835.767 30.0433 836.904 31.18 839.177 31.18H856.227V38ZM887.847 27.15V20.33C887.847 13.51 884.375 10.1 877.431 10.1H870.363C863.419 10.1 859.947 13.51 859.947 20.33V27.15V27.77C859.947 34.59 863.357 38 870.177 38H886.607V31.18H870.177C867.904 31.18 866.767 30.0433 866.767 27.77V27.15H887.847ZM866.767 20.33C866.767 18.0567 867.904 16.92 870.177 16.92H877.617C879.891 16.92 881.027 18.0567 881.027 20.33H866.767ZM891.553 29.506C891.553 35.1273 894.384 37.9587 900.047 38H916.973V31.18H900.047C898.931 31.18 898.373 30.622 898.373 29.506C898.373 28.3487 898.931 27.77 900.047 27.77H910.339C916.001 27.7287 918.833 24.8353 918.833 19.09C918.833 13.51 916.001 10.72 910.339 10.72H893.413V17.54H910.339C911.413 17.54 911.971 18.098 912.013 19.214C911.971 20.3713 911.413 20.95 910.339 20.95H900.047C894.384 20.95 891.553 23.802 891.553 29.506ZM949.833 41.41C949.833 48.23 946.381 51.64 939.479 51.64H929.373V44.82H939.603C941.876 44.82 943.013 43.6833 943.013 41.41V38H932.783C925.963 38 922.553 34.59 922.553 27.77V20.95C922.553 14.13 925.963 10.72 932.783 10.72H949.833V41.41ZM943.013 17.54H932.783C930.509 17.54 929.373 18.6767 929.373 20.95V27.77C929.373 30.0433 930.509 31.18 932.783 31.18H943.013V17.54ZM980.833 38V20.95C980.833 14.13 977.423 10.72 970.603 10.72H954.793V17.54H970.603C972.876 17.54 974.013 18.656 974.013 20.888V20.95H962.109C956.405 20.95 953.553 23.74 953.553 29.32C953.553 35.1067 956.405 38 962.109 38H980.833ZM960.373 29.444C960.373 28.328 960.951 27.77 962.109 27.77H974.013V31.18H962.109C960.951 31.18 960.373 30.6013 960.373 29.444ZM991.993 26.84H984.553V0.799999H991.993V26.84ZM991.993 38H984.553V30.56H991.993V38Z" fill="black"/>
</svg>
