<svg width="269" height="18" viewBox="0 0 269 18" fill="none" xmlns="http://www.w3.org/2000/svg">
<path d="M10.2588 14H8.5625V2.5918H2.25195V14H0.564453V1.20312H10.2588V14ZM12.6494 9.15723C12.6494 8.22559 12.8311 7.3877 13.1943 6.64355C13.5635 5.89941 14.0732 5.3252 14.7236 4.9209C15.3799 4.5166 16.127 4.31445 16.9648 4.31445C18.2598 4.31445 19.3057 4.7627 20.1025 5.65918C20.9053 6.55566 21.3066 7.74805 21.3066 9.23633V9.35059C21.3066 10.2764 21.1279 11.1084 20.7705 11.8467C20.4189 12.5791 19.9121 13.1504 19.25 13.5605C18.5938 13.9707 17.8379 14.1758 16.9824 14.1758C15.6934 14.1758 14.6475 13.7275 13.8447 12.8311C13.0479 11.9346 12.6494 10.748 12.6494 9.27148V9.15723ZM14.2842 9.35059C14.2842 10.4053 14.5273 11.252 15.0137 11.8906C15.5059 12.5293 16.1621 12.8486 16.9824 12.8486C17.8086 12.8486 18.4648 12.5264 18.9512 11.8818C19.4375 11.2314 19.6807 10.3232 19.6807 9.15723C19.6807 8.11426 19.4316 7.27051 18.9336 6.62598C18.4414 5.97559 17.7852 5.65039 16.9648 5.65039C16.1621 5.65039 15.5146 5.96973 15.0225 6.6084C14.5303 7.24707 14.2842 8.16113 14.2842 9.35059ZM31.001 4.49023V14H29.3662V5.83496H26.1318L25.9385 9.39453C25.833 11.0293 25.5576 12.1982 25.1123 12.9014C24.6729 13.6045 23.9727 13.9707 23.0117 14H22.3613V12.5674L22.8271 12.5322C23.3545 12.4736 23.7324 12.1689 23.9609 11.6182C24.1895 11.0674 24.3359 10.0479 24.4004 8.55957L24.5762 4.49023H31.001ZM39.7637 4.49023H41.3896V14H39.7637V7.06543L35.3779 14H33.752V4.49023H35.3779V11.4336L39.7637 4.49023ZM51.0664 5.80859H47.876V14H46.25V5.80859H43.1211V4.49023H51.0664V5.80859ZM58.8008 4.49023H60.4268V14H58.8008V7.06543L54.415 14H52.7891V4.49023H54.415V11.4336L58.8008 4.49023ZM65.999 9.94824H64.8125V14H63.1777V4.49023H64.8125V8.51562H65.876L69.0752 4.49023H71.0439L67.2822 9.06055L71.3604 14H69.2949L65.999 9.94824ZM78.6289 14C78.5352 13.8125 78.459 13.4785 78.4004 12.998C77.6445 13.7832 76.7422 14.1758 75.6934 14.1758C74.7559 14.1758 73.9854 13.9121 73.3818 13.3848C72.7842 12.8516 72.4854 12.1777 72.4854 11.3633C72.4854 10.373 72.8604 9.60547 73.6104 9.06055C74.3662 8.50977 75.4268 8.23438 76.792 8.23438H78.374V7.4873C78.374 6.91895 78.2041 6.46777 77.8643 6.13379C77.5244 5.79395 77.0234 5.62402 76.3613 5.62402C75.7812 5.62402 75.2949 5.77051 74.9023 6.06348C74.5098 6.35645 74.3135 6.71094 74.3135 7.12695H72.6787C72.6787 6.65234 72.8457 6.19531 73.1797 5.75586C73.5195 5.31055 73.9766 4.95898 74.5508 4.70117C75.1309 4.44336 75.7666 4.31445 76.458 4.31445C77.5537 4.31445 78.4121 4.58984 79.0332 5.14062C79.6543 5.68555 79.9766 6.43848 80 7.39941V11.7764C80 12.6494 80.1113 13.3438 80.334 13.8594V14H78.6289ZM75.9307 12.7607C76.4404 12.7607 76.9238 12.6289 77.3809 12.3652C77.8379 12.1016 78.1689 11.7588 78.374 11.3369V9.38574H77.0996C75.1074 9.38574 74.1113 9.96875 74.1113 11.1348C74.1113 11.6445 74.2812 12.043 74.6211 12.3301C74.9609 12.6172 75.3975 12.7607 75.9307 12.7607ZM89.9756 9.94824H88.7891V14H87.1543V4.49023H88.7891V8.51562H89.8525L93.0518 4.49023H95.0205L91.2588 9.06055L95.3369 14H93.2715L89.9756 9.94824ZM96.1104 9.15723C96.1104 8.22559 96.292 7.3877 96.6553 6.64355C97.0244 5.89941 97.5342 5.3252 98.1846 4.9209C98.8408 4.5166 99.5879 4.31445 100.426 4.31445C101.721 4.31445 102.767 4.7627 103.563 5.65918C104.366 6.55566 104.768 7.74805 104.768 9.23633V9.35059C104.768 10.2764 104.589 11.1084 104.231 11.8467C103.88 12.5791 103.373 13.1504 102.711 13.5605C102.055 13.9707 101.299 14.1758 100.443 14.1758C99.1543 14.1758 98.1084 13.7275 97.3057 12.8311C96.5088 11.9346 96.1104 10.748 96.1104 9.27148V9.15723ZM97.7451 9.35059C97.7451 10.4053 97.9883 11.252 98.4746 11.8906C98.9668 12.5293 99.623 12.8486 100.443 12.8486C101.27 12.8486 101.926 12.5264 102.412 11.8818C102.898 11.2314 103.142 10.3232 103.142 9.15723C103.142 8.11426 102.893 7.27051 102.395 6.62598C101.902 5.97559 101.246 5.65039 100.426 5.65039C99.623 5.65039 98.9756 5.96973 98.4834 6.6084C97.9912 7.24707 97.7451 8.16113 97.7451 9.35059ZM114.576 14H112.95V9.93945H108.582V14H106.947V4.49023H108.582V8.6123H112.95V4.49023H114.576V14ZM116.844 9.4209C116.844 7.83301 117.151 6.58496 117.767 5.67676C118.382 4.76855 119.226 4.31445 120.298 4.31445C120.796 4.31445 121.232 4.39941 121.607 4.56934V0.5H123.233V4.62207C123.644 4.41699 124.124 4.31445 124.675 4.31445C125.753 4.31445 126.6 4.76855 127.215 5.67676C127.83 6.58496 128.138 7.89453 128.138 9.60547C128.138 11.0059 127.83 12.1191 127.215 12.9453C126.605 13.7715 125.765 14.1846 124.692 14.1846C124.124 14.1846 123.638 14.0908 123.233 13.9033V17.6562H121.607V13.9297C121.221 14.0996 120.778 14.1846 120.28 14.1846C119.214 14.1846 118.373 13.7715 117.758 12.9453C117.148 12.1191 116.844 10.9883 116.844 9.55273V9.4209ZM126.512 9.4209C126.512 8.22559 126.307 7.2998 125.896 6.64355C125.486 5.98145 124.921 5.65039 124.2 5.65039C123.831 5.65039 123.509 5.70898 123.233 5.82617V12.708C123.497 12.8076 123.825 12.8574 124.218 12.8574C124.944 12.8574 125.507 12.5762 125.905 12.0137C126.31 11.4512 126.512 10.5869 126.512 9.4209ZM118.47 9.60547C118.47 10.6719 118.66 11.4805 119.041 12.0312C119.422 12.582 119.97 12.8574 120.685 12.8574C121.024 12.8574 121.332 12.8047 121.607 12.6992V5.7998C121.361 5.7002 121.06 5.65039 120.702 5.65039C119.987 5.65039 119.437 5.96973 119.05 6.6084C118.663 7.24707 118.47 8.24609 118.47 9.60547ZM136.408 4.49023H138.034V14H136.408V7.06543L132.022 14H130.396V4.49023H132.022V11.4336L136.408 4.49023ZM140.565 12.6729L141.128 11.9785C141.761 11.1582 142.121 9.92773 142.209 8.28711L142.358 4.49023H148.484V12.6729H149.706V16.7949H148.08V14H141.444V16.7949H139.818L139.827 12.6729H140.565ZM142.49 12.6729H146.858V5.99316H143.932L143.835 8.26074C143.735 10.1533 143.287 11.624 142.49 12.6729ZM155.454 14.1758C154.165 14.1758 153.116 13.7539 152.308 12.9102C151.499 12.0605 151.095 10.9268 151.095 9.50879V9.20996C151.095 8.2666 151.273 7.42578 151.631 6.6875C151.994 5.94336 152.498 5.36328 153.143 4.94727C153.793 4.52539 154.496 4.31445 155.252 4.31445C156.488 4.31445 157.449 4.72168 158.135 5.53613C158.82 6.35059 159.163 7.5166 159.163 9.03418V9.71094H152.721C152.744 10.6484 153.017 11.4072 153.538 11.9873C154.065 12.5615 154.733 12.8486 155.542 12.8486C156.116 12.8486 156.603 12.7314 157.001 12.4971C157.399 12.2627 157.748 11.9521 158.047 11.5654L159.04 12.3389C158.243 13.5635 157.048 14.1758 155.454 14.1758ZM155.252 5.65039C154.596 5.65039 154.045 5.89062 153.6 6.37109C153.154 6.8457 152.879 7.51367 152.773 8.375H157.537V8.25195C157.49 7.42578 157.268 6.78711 156.869 6.33594C156.471 5.87891 155.932 5.65039 155.252 5.65039ZM168.822 14H167.196V9.93945H162.828V14H161.193V4.49023H162.828V8.6123H167.196V4.49023H168.822V14ZM171.582 4.49023H173.217V12.6729H177.594V4.49023H179.22V12.6729H180.354L180.195 16.8213H178.736V14H171.582V4.49023ZM188.264 4.49023H189.89V14H188.264V7.06543L183.878 14H182.252V4.49023H183.878V11.4336L188.264 4.49023ZM198.371 14C198.277 13.8125 198.201 13.4785 198.143 12.998C197.387 13.7832 196.484 14.1758 195.436 14.1758C194.498 14.1758 193.728 13.9121 193.124 13.3848C192.526 12.8516 192.228 12.1777 192.228 11.3633C192.228 10.373 192.603 9.60547 193.353 9.06055C194.108 8.50977 195.169 8.23438 196.534 8.23438H198.116V7.4873C198.116 6.91895 197.946 6.46777 197.606 6.13379C197.267 5.79395 196.766 5.62402 196.104 5.62402C195.523 5.62402 195.037 5.77051 194.645 6.06348C194.252 6.35645 194.056 6.71094 194.056 7.12695H192.421C192.421 6.65234 192.588 6.19531 192.922 5.75586C193.262 5.31055 193.719 4.95898 194.293 4.70117C194.873 4.44336 195.509 4.31445 196.2 4.31445C197.296 4.31445 198.154 4.58984 198.775 5.14062C199.396 5.68555 199.719 6.43848 199.742 7.39941V11.7764C199.742 12.6494 199.854 13.3438 200.076 13.8594V14H198.371ZM195.673 12.7607C196.183 12.7607 196.666 12.6289 197.123 12.3652C197.58 12.1016 197.911 11.7588 198.116 11.3369V9.38574H196.842C194.85 9.38574 193.854 9.96875 193.854 11.1348C193.854 11.6445 194.023 12.043 194.363 12.3301C194.703 12.6172 195.14 12.7607 195.673 12.7607ZM210.087 4.49023V14H208.452V5.83496H205.218L205.024 9.39453C204.919 11.0293 204.644 12.1982 204.198 12.9014C203.759 13.6045 203.059 13.9707 202.098 14H201.447V12.5674L201.913 12.5322C202.44 12.4736 202.818 12.1689 203.047 11.6182C203.275 11.0674 203.422 10.0479 203.486 8.55957L203.662 4.49023H210.087ZM214.473 7.76855H216.942C218.021 7.78027 218.873 8.06152 219.5 8.6123C220.127 9.16309 220.44 9.91016 220.44 10.8535C220.44 11.8027 220.118 12.5645 219.474 13.1387C218.829 13.7129 217.962 14 216.872 14H212.847V4.49023H214.473V7.76855ZM214.473 9.0957V12.6729H216.89C217.499 12.6729 217.971 12.5176 218.305 12.207C218.639 11.8906 218.806 11.46 218.806 10.915C218.806 10.3877 218.642 9.95703 218.313 9.62305C217.991 9.2832 217.537 9.10742 216.951 9.0957H214.473ZM230.24 14H228.614V9.93945H224.246V14H222.611V4.49023H224.246V8.6123H228.614V4.49023H230.24V14ZM232.429 9.15723C232.429 8.22559 232.61 7.3877 232.974 6.64355C233.343 5.89941 233.853 5.3252 234.503 4.9209C235.159 4.5166 235.906 4.31445 236.744 4.31445C238.039 4.31445 239.085 4.7627 239.882 5.65918C240.685 6.55566 241.086 7.74805 241.086 9.23633V9.35059C241.086 10.2764 240.907 11.1084 240.55 11.8467C240.198 12.5791 239.691 13.1504 239.029 13.5605C238.373 13.9707 237.617 14.1758 236.762 14.1758C235.473 14.1758 234.427 13.7275 233.624 12.8311C232.827 11.9346 232.429 10.748 232.429 9.27148V9.15723ZM234.063 9.35059C234.063 10.4053 234.307 11.252 234.793 11.8906C235.285 12.5293 235.941 12.8486 236.762 12.8486C237.588 12.8486 238.244 12.5264 238.73 11.8818C239.217 11.2314 239.46 10.3232 239.46 9.15723C239.46 8.11426 239.211 7.27051 238.713 6.62598C238.221 5.97559 237.564 5.65039 236.744 5.65039C235.941 5.65039 235.294 5.96973 234.802 6.6084C234.31 7.24707 234.063 8.16113 234.063 9.35059ZM246.939 12.8486C247.52 12.8486 248.026 12.6729 248.46 12.3213C248.894 11.9697 249.134 11.5303 249.181 11.0029H250.719C250.689 11.5479 250.502 12.0664 250.156 12.5586C249.811 13.0508 249.348 13.4434 248.768 13.7363C248.193 14.0293 247.584 14.1758 246.939 14.1758C245.645 14.1758 244.613 13.7451 243.846 12.8838C243.084 12.0166 242.703 10.833 242.703 9.33301V9.06055C242.703 8.13477 242.873 7.31152 243.213 6.59082C243.553 5.87012 244.039 5.31055 244.672 4.91211C245.311 4.51367 246.063 4.31445 246.931 4.31445C247.997 4.31445 248.882 4.63379 249.585 5.27246C250.294 5.91113 250.672 6.74023 250.719 7.75977H249.181C249.134 7.14453 248.899 6.64062 248.478 6.24805C248.062 5.84961 247.546 5.65039 246.931 5.65039C246.104 5.65039 245.463 5.94922 245.006 6.54688C244.555 7.13867 244.329 7.99707 244.329 9.12207V9.42969C244.329 10.5254 244.555 11.3691 245.006 11.9609C245.457 12.5527 246.102 12.8486 246.939 12.8486ZM259.613 5.80859H256.423V14H254.797V5.80859H251.668V4.49023H259.613V5.80859ZM267.348 4.49023H268.974V14H267.348V7.06543L262.962 14H261.336V4.49023H262.962V11.4336L267.348 4.49023Z" fill="black"/>
</svg>
