<svg width="554" height="101" viewBox="0 0 554 101" fill="none" xmlns="http://www.w3.org/2000/svg">
<path d="M37.2 38H29.76V8.24H7.44V38H0V0.799999H37.2V38ZM68.2097 28.39C68.2097 35.21 64.7997 38.62 57.9797 38.62H51.1597C44.3397 38.62 40.9297 35.21 40.9297 28.39V20.33C40.9297 13.51 44.3397 10.1 51.1597 10.1H57.9797C64.7997 10.1 68.2097 13.51 68.2097 20.33V28.39ZM61.3897 28.39V20.33C61.3897 18.0567 60.253 16.92 57.9797 16.92H51.1597C48.8864 16.92 47.7497 18.0567 47.7497 20.33V28.39C47.7497 30.6633 48.8864 31.8 51.1597 31.8H57.9797C60.253 31.8 61.3897 30.6633 61.3897 28.39ZM92.3897 38V17.54H85.5697C83.7097 17.54 82.573 18.6767 82.1597 20.95L78.7497 38H72.1157L75.3397 20.95C76.249 14.13 79.659 10.72 85.5697 10.72H99.2097V38H92.3897ZM130.21 38H123.39V27.77H109.75V38H102.93V10.72H109.75V20.95H123.39V10.72H130.21V38ZM161.21 28.39C161.21 35.21 157.8 38.62 150.98 38.62H144.16C137.34 38.62 133.93 35.21 133.93 28.39V20.33C133.93 13.51 137.34 10.1 144.16 10.1H150.98C157.8 10.1 161.21 13.51 161.21 20.33V28.39ZM154.39 28.39V20.33C154.39 18.0567 153.253 16.92 150.98 16.92H144.16C141.886 16.92 140.75 18.0567 140.75 20.33V28.39C140.75 30.6633 141.886 31.8 144.16 31.8H150.98C153.253 31.8 154.39 30.6633 154.39 28.39ZM192.83 27.15V20.33C192.83 13.51 189.358 10.1 182.414 10.1H175.346C168.402 10.1 164.93 13.51 164.93 20.33V27.15V27.77C164.93 34.59 168.34 38 175.16 38H191.59V31.18H175.16C172.886 31.18 171.75 30.0433 171.75 27.77V27.15H192.83ZM171.75 20.33C171.75 18.0567 172.886 16.92 175.16 16.92H182.6C184.873 16.92 186.01 18.0567 186.01 20.33H171.75ZM234.355 38V17.54H244.585C246.858 17.54 247.995 18.6767 247.995 20.95V38H254.815V20.95C254.815 14.13 251.405 10.72 244.585 10.72H227.535V38H234.355ZM285.815 28.39C285.815 35.21 282.405 38.62 275.585 38.62H268.765C261.945 38.62 258.535 35.21 258.535 28.39V20.33C258.535 13.51 261.945 10.1 268.765 10.1H275.585C282.405 10.1 285.815 13.51 285.815 20.33V28.39ZM278.995 28.39V20.33C278.995 18.0567 277.858 16.92 275.585 16.92H268.765C266.492 16.92 265.355 18.0567 265.355 20.33V28.39C265.355 30.6633 266.492 31.8 268.765 31.8H275.585C277.858 31.8 278.995 30.6633 278.995 28.39ZM289.535 29.506C289.535 35.1273 292.366 37.9587 298.029 38H314.955V31.18H298.029C296.913 31.18 296.355 30.622 296.355 29.506C296.355 28.3487 296.913 27.77 298.029 27.77H308.321C313.984 27.7287 316.815 24.8353 316.815 19.09C316.815 13.51 313.984 10.72 308.321 10.72H291.395V17.54H308.321C309.396 17.54 309.954 18.098 309.995 19.214C309.954 20.3713 309.396 20.95 308.321 20.95H298.029C292.366 20.95 289.535 23.802 289.535 29.506ZM347.815 20.95C347.815 14.13 344.405 10.72 337.585 10.72H320.535V51.64H327.355V38H337.461C344.364 38 347.815 34.59 347.815 27.77V20.95ZM327.355 17.54H337.585C339.858 17.54 340.995 18.6767 340.995 20.95V27.77C340.995 30.0433 339.858 31.18 337.585 31.18H327.355V17.54ZM355.255 51.64H358.417C362.922 51.64 366.498 48.974 369.143 43.642L371.933 38L385.573 10.72H377.947L368.585 29.63L359.161 10.72H351.535L364.617 36.884L362.633 40.976C360.897 43.5387 359.471 44.82 358.355 44.82H355.255V51.64ZM396.987 24.36L387.439 38H395.747L402.815 27.77H404.489V38H411.309V27.77H412.983L420.051 38H428.359L418.873 24.36L428.359 10.72H420.051L412.983 20.95H411.309V10.72H404.489V20.95H402.815L395.747 10.72H387.439L396.987 24.36ZM459.963 27.15V20.33C459.963 13.51 456.491 10.1 449.547 10.1H442.479C435.535 10.1 432.062 13.51 432.062 20.33V27.15V27.77C432.062 34.59 435.473 38 442.293 38H458.723V31.18H442.293C440.019 31.18 438.883 30.0433 438.883 27.77V27.15H459.963ZM438.883 20.33C438.883 18.0567 440.019 16.92 442.293 16.92H449.733C452.006 16.92 453.143 18.0567 453.143 20.33H438.883ZM490.948 38H484.128V27.77H470.488V38H463.668V10.72H470.488V20.95H484.128V10.72H490.948V38ZM521.948 38H515.128V35.086C511.615 37.442 508.205 38.62 504.898 38.62C498.078 38.62 494.668 35.21 494.668 28.39V10.72H501.488V28.39C501.488 30.622 502.625 31.7587 504.898 31.8C509.445 31.2213 512.855 29.0513 515.128 25.29V10.72H521.948V38ZM553.568 27.15V20.33C553.568 13.51 550.096 10.1 543.152 10.1H536.084C529.14 10.1 525.668 13.51 525.668 20.33V27.15V27.77C525.668 34.59 529.078 38 535.898 38H552.328V31.18H535.898C533.625 31.18 532.488 30.0433 532.488 27.77V27.15H553.568ZM532.488 20.33C532.488 18.0567 533.625 16.92 535.898 16.92H543.338C545.611 16.92 546.748 18.0567 546.748 20.33H532.488ZM24.924 87.298C26.4947 85.7687 27.28 84.1153 27.28 82.338C27.2387 76.5927 24.3867 73.72 18.724 73.72H0V101H18.724C24.428 101 27.28 98.21 27.28 92.63C27.28 90.6873 26.4947 88.91 24.924 87.298ZM18.724 83.95H6.82V80.54H18.724C19.8813 80.54 20.46 81.16 20.46 82.4C20.46 83.4333 19.8813 83.95 18.724 83.95ZM18.724 94.18H6.82V90.77H18.724C19.8813 90.77 20.46 91.39 20.46 92.63C20.46 93.6633 19.8813 94.18 18.724 94.18ZM65.1 101H58.28V85.872L48.05 101L37.82 85.872V101H31V73.72H37.82L48.05 88.848L58.28 73.72H65.1V101ZM96.7418 90.15V83.33C96.7418 76.51 93.2698 73.1 86.3258 73.1H79.2578C72.3138 73.1 68.8418 76.51 68.8418 83.33V90.15V90.77C68.8418 97.59 72.2518 101 79.0718 101H95.5018V94.18H79.0718C76.7985 94.18 75.6618 93.0433 75.6618 90.77V90.15H96.7418ZM75.6618 83.33C75.6618 81.0567 76.7985 79.92 79.0718 79.92H86.5118C88.7851 79.92 89.9218 81.0567 89.9218 83.33H75.6618ZM127.727 101H110.677C103.857 101 100.447 97.59 100.447 90.77V83.95C100.447 77.13 103.857 73.72 110.677 73.72H127.727V80.54H110.677C108.404 80.54 107.267 81.6767 107.267 83.95V90.77C107.267 93.0433 108.404 94.18 110.677 94.18H127.727V101ZM158.727 80.54H148.497V101H141.677V80.54H131.447V73.72H158.727V80.54ZM190.347 90.15V83.33C190.347 76.51 186.875 73.1 179.931 73.1H172.863C165.919 73.1 162.447 76.51 162.447 83.33V90.15V90.77C162.447 97.59 165.857 101 172.677 101H189.107V94.18H172.677C170.404 94.18 169.267 93.0433 169.267 90.77V90.15H190.347ZM169.267 83.33C169.267 81.0567 170.404 79.92 172.677 79.92H180.117C182.391 79.92 183.527 81.0567 183.527 83.33H169.267ZM252.333 101H235.283C228.463 101 225.053 97.59 225.053 90.77V83.95C225.053 77.13 228.463 73.72 235.283 73.72H252.333V80.54H235.283C233.009 80.54 231.873 81.6767 231.873 83.95V90.77C231.873 93.0433 233.009 94.18 235.283 94.18H252.333V101ZM324.253 101H316.813V86.12H294.493V101H287.053V63.8H294.493V78.68H316.813V63.8H324.253V101ZM365.182 74.96V78.68C365.182 86.12 361.462 89.84 354.022 89.84H335.422V101H327.982V63.8H354.022C361.462 63.8 365.182 67.52 365.182 74.96ZM357.742 74.96C357.742 72.48 356.502 71.24 354.022 71.24H335.422V82.4H354.022C356.502 82.4 357.742 81.16 357.742 78.68V74.96Z" fill="black"/>
</svg>
