<svg width="460" height="383" viewBox="0 0 460 383" fill="none" xmlns="http://www.w3.org/2000/svg">
<rect width="192" height="59" transform="translate(0 295)" fill="#F8F200"/>
<path d="M61.6543 324.892C61.6543 326.151 61.4316 327.256 60.9863 328.205C60.541 329.154 59.9023 329.887 59.0703 330.402C58.2441 330.918 57.2949 331.176 56.2227 331.176C55.1621 331.176 54.2158 330.921 53.3838 330.411C52.5518 329.901 51.9072 329.175 51.4502 328.231C50.9932 327.282 50.7617 326.192 50.7559 324.962V324.329C50.7559 323.069 50.9814 321.962 51.4326 321.007C51.8896 320.046 52.5312 319.311 53.3574 318.801C54.1895 318.285 55.1387 318.027 56.2051 318.027C57.2715 318.027 58.2178 318.285 59.0439 318.801C59.876 319.311 60.5176 320.046 60.9688 321.007C61.4258 321.962 61.6543 323.066 61.6543 324.32V324.892ZM58.9824 324.312C58.9824 322.97 58.7422 321.95 58.2617 321.253C57.7812 320.556 57.0957 320.207 56.2051 320.207C55.3203 320.207 54.6377 320.553 54.1572 321.244C53.6768 321.93 53.4336 322.938 53.4277 324.268V324.892C53.4277 326.198 53.668 327.212 54.1484 327.933C54.6289 328.653 55.3203 329.014 56.2227 329.014C57.1074 329.014 57.7871 328.668 58.2617 327.977C58.7363 327.279 58.9766 326.266 58.9824 324.936V324.312ZM71.2959 323.529H68.2461V331H65.6973V323.529H62.7002V321.49H71.2959V323.529ZM80.8496 331H78.3008V323.547H75.1191V331H72.5791V321.49H80.8496V331ZM91.3525 326.333C91.3525 327.798 91.0186 328.973 90.3506 329.857C89.6885 330.736 88.792 331.176 87.6611 331.176C86.7002 331.176 85.9238 330.842 85.332 330.174V334.656H82.792V321.49H85.1475L85.2354 322.422C85.8506 321.684 86.6533 321.314 87.6436 321.314C88.8154 321.314 89.7266 321.748 90.377 322.615C91.0273 323.482 91.3525 324.678 91.3525 326.201V326.333ZM88.8125 326.148C88.8125 325.264 88.6543 324.581 88.3379 324.101C88.0273 323.62 87.5732 323.38 86.9756 323.38C86.1787 323.38 85.6309 323.685 85.332 324.294V328.188C85.6426 328.814 86.1963 329.128 86.9932 329.128C88.2061 329.128 88.8125 328.135 88.8125 326.148ZM98.4453 331C98.3281 330.771 98.2432 330.487 98.1904 330.147C97.5752 330.833 96.7754 331.176 95.791 331.176C94.8594 331.176 94.0859 330.906 93.4707 330.367C92.8613 329.828 92.5566 329.148 92.5566 328.328C92.5566 327.32 92.9287 326.547 93.6729 326.008C94.4229 325.469 95.5039 325.196 96.916 325.19H98.085V324.646C98.085 324.206 97.9707 323.854 97.7422 323.591C97.5195 323.327 97.165 323.195 96.6787 323.195C96.251 323.195 95.9141 323.298 95.668 323.503C95.4277 323.708 95.3076 323.989 95.3076 324.347H92.7676C92.7676 323.796 92.9375 323.286 93.2773 322.817C93.6172 322.349 94.0977 321.982 94.7188 321.719C95.3398 321.449 96.0371 321.314 96.8105 321.314C97.9824 321.314 98.9111 321.61 99.5967 322.202C100.288 322.788 100.634 323.614 100.634 324.681V328.803C100.64 329.705 100.766 330.388 101.012 330.851V331H98.4453ZM96.3447 329.233C96.7197 329.233 97.0654 329.151 97.3818 328.987C97.6982 328.817 97.9326 328.592 98.085 328.311V326.676H97.1357C95.8643 326.676 95.1875 327.115 95.1055 327.994L95.0967 328.144C95.0967 328.46 95.208 328.721 95.4307 328.926C95.6533 329.131 95.958 329.233 96.3447 329.233ZM102.752 331V321.49H106.725C108.02 321.49 109.013 321.719 109.704 322.176C110.396 322.633 110.741 323.289 110.741 324.145C110.741 324.584 110.595 324.979 110.302 325.331C110.015 325.677 109.593 325.943 109.036 326.131C109.716 326.26 110.249 326.515 110.636 326.896C111.028 327.271 111.225 327.733 111.225 328.284C111.225 329.169 110.891 329.843 110.223 330.306C109.561 330.769 108.597 331 107.331 331H102.752ZM105.292 327.054V328.97H107.34C108.236 328.97 108.685 328.656 108.685 328.029C108.685 327.391 108.257 327.065 107.401 327.054H105.292ZM105.292 325.349H106.865C107.756 325.337 108.201 325.05 108.201 324.487C108.201 324.142 108.078 323.896 107.832 323.749C107.592 323.603 107.223 323.529 106.725 323.529H105.292V325.349ZM118.511 321.49H121.051V331H118.511V325.129L115.329 331H112.78V321.49H115.329V327.353L118.511 321.49ZM130.886 323.529H127.836V331H125.287V323.529H122.29V321.49H130.886V323.529ZM134.885 324.276H136.704C137.524 324.276 138.245 324.414 138.866 324.689C139.487 324.965 139.962 325.36 140.29 325.876C140.624 326.386 140.791 326.98 140.791 327.66C140.791 328.662 140.419 329.471 139.675 330.086C138.937 330.695 137.929 331 136.651 331H132.336V321.49H134.885V324.276ZM134.885 326.315V328.97H136.687C137.19 328.97 137.577 328.853 137.847 328.618C138.116 328.384 138.251 328.064 138.251 327.66C138.251 327.25 138.119 326.925 137.855 326.685C137.592 326.438 137.202 326.315 136.687 326.315H134.885Z" fill="black"/>
<rect y="34" width="460" height="1" fill="#777777"/>
<path d="M4.5 10.9971H2.74219V17H1.66113V4.20312H2.74219V10.0742H4.44727L9.39551 4.20312H10.7578L5.50195 10.4961L11.1445 17H9.7998L4.5 10.9971ZM18.8701 17C18.7646 16.7012 18.6973 16.2588 18.668 15.6729C18.2988 16.1533 17.8271 16.5254 17.2529 16.7891C16.6846 17.0469 16.0811 17.1758 15.4424 17.1758C14.5283 17.1758 13.7871 16.9209 13.2188 16.4111C12.6562 15.9014 12.375 15.2568 12.375 14.4775C12.375 13.5518 12.7588 12.8193 13.5264 12.2803C14.2998 11.7412 15.375 11.4717 16.752 11.4717H18.6592V10.3906C18.6592 9.71094 18.4482 9.17773 18.0264 8.79102C17.6104 8.39844 17.001 8.20215 16.1982 8.20215C15.4658 8.20215 14.8594 8.38965 14.3789 8.76465C13.8984 9.13965 13.6582 9.59082 13.6582 10.1182L12.6035 10.1094C12.6035 9.35352 12.9551 8.7002 13.6582 8.14941C14.3613 7.59277 15.2256 7.31445 16.251 7.31445C17.3115 7.31445 18.1465 7.58105 18.7559 8.11426C19.3711 8.6416 19.6875 9.37988 19.7051 10.3291V14.8291C19.7051 15.749 19.8018 16.4375 19.9951 16.8945V17H18.8701ZM15.5654 16.2441C16.2686 16.2441 16.8955 16.0742 17.4463 15.7344C18.0029 15.3945 18.4072 14.9404 18.6592 14.3721V12.2803H16.7783C15.7295 12.292 14.9092 12.4854 14.3174 12.8604C13.7256 13.2295 13.4297 13.7393 13.4297 14.3896C13.4297 14.9229 13.626 15.3652 14.0186 15.7168C14.417 16.0684 14.9326 16.2441 15.5654 16.2441ZM25.1016 12.6406H23.6426V17H22.5791V7.49023H23.6426V11.709H25.084L28.5732 7.49023H29.9004L25.998 12.1045L30.3311 17H28.9424L25.1016 12.6406ZM43.0576 8.38672H39.5947V17H38.54V8.38672H35.209V7.49023H43.0576V8.38672ZM47.7686 17.1758C46.96 17.1758 46.2275 16.9766 45.5713 16.5781C44.9209 16.1797 44.4141 15.626 44.0508 14.917C43.6875 14.2021 43.5059 13.4023 43.5059 12.5176V12.1396C43.5059 11.2256 43.6816 10.4023 44.0332 9.66992C44.3906 8.9375 44.8857 8.36328 45.5186 7.94727C46.1514 7.52539 46.8369 7.31445 47.5752 7.31445C48.7295 7.31445 49.6436 7.70996 50.3174 8.50098C50.9971 9.28613 51.3369 10.3613 51.3369 11.7266V12.3154H44.5518V12.5176C44.5518 13.5957 44.8594 14.4951 45.4746 15.2158C46.0957 15.9307 46.875 16.2881 47.8125 16.2881C48.375 16.2881 48.8701 16.1855 49.2979 15.9805C49.7314 15.7754 50.124 15.4473 50.4756 14.9961L51.1348 15.4971C50.3613 16.6162 49.2393 17.1758 47.7686 17.1758ZM47.5752 8.21094C46.7842 8.21094 46.1162 8.50098 45.5713 9.08105C45.0322 9.66113 44.7041 10.4404 44.5869 11.4189H50.291V11.3047C50.2617 10.3906 50.001 9.64648 49.5088 9.07227C49.0166 8.49805 48.3721 8.21094 47.5752 8.21094ZM57.2168 8.12305C58.4238 8.12305 59.4023 8.51855 60.1523 9.30957C60.9023 10.0947 61.2773 11.1377 61.2773 12.4385V12.667C61.2773 13.5283 61.1045 14.3047 60.7588 14.9961C60.4189 15.6816 59.9268 16.2178 59.2822 16.6045C58.6436 16.9854 57.9082 17.1758 57.0762 17.1758C55.8223 17.1758 54.8057 16.7598 54.0264 15.9277C53.2529 15.0898 52.8662 13.9736 52.8662 12.5791V11.7354C52.8662 9.7666 53.2412 8.19336 53.9912 7.01562C54.7412 5.83789 55.8076 5.13477 57.1904 4.90625C58.0635 4.76562 58.6758 4.5752 59.0273 4.33496C59.3848 4.09473 59.5635 3.7666 59.5635 3.35059H60.4688C60.4688 3.84277 60.3662 4.25 60.1611 4.57227C59.9561 4.89453 59.6484 5.15527 59.2383 5.35449C58.8281 5.54785 58.2012 5.71191 57.3574 5.84668C56.3906 5.99902 55.6113 6.41211 55.0195 7.08594C54.4336 7.75391 54.0527 8.65039 53.877 9.77539C54.252 9.2832 54.7207 8.88477 55.2832 8.58008C55.8516 8.27539 56.4961 8.12305 57.2168 8.12305ZM53.9209 12.4473V12.667C53.9209 13.7393 54.2109 14.6123 54.791 15.2861C55.3711 15.9541 56.1328 16.2881 57.0762 16.2881C58.0254 16.2881 58.7871 15.9512 59.3613 15.2773C59.9355 14.5977 60.2227 13.707 60.2227 12.6055V12.377C60.2227 11.3867 59.9297 10.5781 59.3438 9.95117C58.7637 9.32422 58.002 9.01074 57.0586 9.01074C56.1152 9.01074 55.3564 9.33008 54.7822 9.96875C54.208 10.6016 53.9209 11.4277 53.9209 12.4473ZM70.2334 7.49023V17H69.1787V13.168H66.2256L63.9053 17H62.7451L65.1357 13.0361C64.4854 12.8662 63.9785 12.5381 63.6152 12.0518C63.2578 11.5654 63.0791 10.9912 63.0791 10.3291C63.0791 9.46777 63.3867 8.7793 64.002 8.26367C64.623 7.74805 65.4609 7.49023 66.5156 7.49023H70.2334ZM64.1338 10.3467C64.1338 10.9033 64.3096 11.3604 64.6611 11.7178C65.0186 12.0752 65.5137 12.2598 66.1465 12.2715H69.1787V8.38672H66.4893C65.7568 8.38672 65.1797 8.5625 64.7578 8.91406C64.3418 9.26562 64.1338 9.74316 64.1338 10.3467ZM83.0215 10.0039C83.0215 9.42969 82.8076 8.9873 82.3799 8.67676C81.9521 8.36621 81.3633 8.21094 80.6133 8.21094C79.9336 8.21094 79.3506 8.38672 78.8643 8.73828C78.3838 9.08398 78.1436 9.52344 78.1436 10.0566H77.0977C77.0977 9.26562 77.4346 8.6123 78.1084 8.09668C78.7881 7.58105 79.623 7.32324 80.6133 7.32324C81.7031 7.32324 82.5527 7.55762 83.1621 8.02637C83.7715 8.49512 84.0762 9.16016 84.0762 10.0215C84.0762 10.4785 83.9355 10.8916 83.6543 11.2607C83.373 11.6299 82.9629 11.917 82.4238 12.1221C83.6426 12.4561 84.252 13.2119 84.252 14.3896C84.252 15.2451 83.9209 15.9219 83.2588 16.4199C82.5967 16.918 81.7178 17.167 80.6221 17.167C79.5615 17.167 78.6826 16.9004 77.9854 16.3672C77.2881 15.834 76.9395 15.1367 76.9395 14.2754H77.9941C77.9941 14.8496 78.2461 15.3301 78.75 15.7168C79.2598 16.0977 79.8838 16.2881 80.6221 16.2881C81.4248 16.2881 82.0518 16.1211 82.5029 15.7871C82.96 15.4473 83.1885 14.9873 83.1885 14.4072C83.1885 13.7686 82.9805 13.3086 82.5645 13.0273C82.1484 12.7461 81.5127 12.6055 80.6572 12.6055H79.207V11.6914H80.833C82.292 11.6562 83.0215 11.0938 83.0215 10.0039ZM85.9922 12.1045C85.9922 11.1904 86.168 10.3672 86.5195 9.63477C86.877 8.90234 87.3779 8.33398 88.0225 7.92969C88.6729 7.51953 89.4082 7.31445 90.2285 7.31445C91.4941 7.31445 92.5195 7.75977 93.3047 8.65039C94.0898 9.53516 94.4824 10.71 94.4824 12.1748V12.3945C94.4824 13.3145 94.3037 14.1436 93.9463 14.8818C93.5947 15.6143 93.0967 16.1797 92.4521 16.5781C91.8076 16.9766 91.0723 17.1758 90.2461 17.1758C88.9863 17.1758 87.9609 16.7334 87.1699 15.8486C86.3848 14.958 85.9922 13.7803 85.9922 12.3154V12.1045ZM87.0469 12.3945C87.0469 13.5312 87.3398 14.4658 87.9258 15.1982C88.5176 15.9248 89.291 16.2881 90.2461 16.2881C91.1953 16.2881 91.9629 15.9248 92.5488 15.1982C93.1406 14.4658 93.4365 13.502 93.4365 12.3066V12.1045C93.4365 11.3779 93.3018 10.7129 93.0322 10.1094C92.7627 9.50586 92.3848 9.04004 91.8984 8.71191C91.4121 8.37793 90.8555 8.21094 90.2285 8.21094C89.291 8.21094 88.5264 8.58008 87.9346 9.31836C87.3428 10.0508 87.0469 11.0117 87.0469 12.2012V12.3945ZM96.7764 17V7.49023H100.266C101.473 7.49023 102.398 7.70703 103.043 8.14062C103.688 8.56836 104.01 9.19824 104.01 10.0303C104.01 10.5049 103.866 10.9297 103.579 11.3047C103.292 11.6738 102.873 11.9434 102.322 12.1133C102.943 12.2305 103.441 12.4971 103.816 12.9131C104.197 13.3291 104.388 13.8125 104.388 14.3633C104.388 15.2012 104.077 15.8516 103.456 16.3145C102.841 16.7715 101.968 17 100.837 17H96.7764ZM97.8223 12.623V16.1211H100.872C101.663 16.1211 102.272 15.9688 102.7 15.6641C103.128 15.3594 103.342 14.9199 103.342 14.3457C103.342 13.8184 103.128 13.3994 102.7 13.0889C102.272 12.7783 101.663 12.623 100.872 12.623H97.8223ZM97.8223 11.7441H100.485C102.138 11.7207 102.964 11.1582 102.964 10.0566C102.964 9.47656 102.735 9.05469 102.278 8.79102C101.827 8.52148 101.156 8.38672 100.266 8.38672H97.8223V11.7441ZM109.644 15.4883L112.421 7.49023H113.555L109.494 18.6172L109.283 19.1094C108.762 20.2637 107.956 20.8408 106.866 20.8408C106.614 20.8408 106.345 20.7998 106.058 20.7178L106.049 19.8477L106.594 19.9004C107.109 19.9004 107.525 19.7715 107.842 19.5137C108.164 19.2617 108.437 18.8252 108.659 18.2041L109.125 16.9209L105.539 7.49023H106.69L109.644 15.4883ZM122.019 8.38672H118.556V17H117.501V8.38672H114.17V7.49023H122.019V8.38672ZM125.684 13.4492C125.695 12.7578 125.789 12.2012 125.965 11.7793C126.141 11.3574 126.519 10.8623 127.099 10.2939C127.679 9.71973 128.051 9.31543 128.215 9.08105C128.385 8.84082 128.514 8.58008 128.602 8.29883C128.695 8.01172 128.742 7.68652 128.742 7.32324C128.742 6.59082 128.546 6.0166 128.153 5.60059C127.767 5.17871 127.225 4.96777 126.527 4.96777C125.824 4.96777 125.256 5.16992 124.822 5.57422C124.395 5.97266 124.175 6.51465 124.163 7.2002H123.117C123.129 6.23926 123.454 5.47168 124.093 4.89746C124.731 4.31738 125.543 4.02734 126.527 4.02734C127.535 4.02734 128.329 4.32324 128.909 4.91504C129.495 5.50098 129.788 6.29785 129.788 7.30566C129.788 7.93848 129.645 8.5332 129.357 9.08984C129.07 9.64062 128.525 10.2852 127.723 11.0234C127.061 11.5801 126.729 12.3887 126.729 13.4492H125.684ZM125.543 16.3848C125.543 16.1855 125.604 16.0186 125.728 15.8838C125.856 15.7432 126.035 15.6729 126.264 15.6729C126.486 15.6729 126.662 15.7432 126.791 15.8838C126.926 16.0186 126.993 16.1855 126.993 16.3848C126.993 16.5781 126.926 16.7422 126.791 16.877C126.662 17.0059 126.486 17.0703 126.264 17.0703C126.035 17.0703 125.856 17.0059 125.728 16.877C125.604 16.7422 125.543 16.5781 125.543 16.3848Z" fill="white"/>
<rect y="104" width="460" height="1" fill="#777777"/>
<path d="M10.3008 75.126H5.91504V87H4.83398V75.126H0.457031V74.2031H10.3008V75.126ZM11.3994 87V77.4902H14.8887C16.0957 77.4902 17.0215 77.707 17.666 78.1406C18.3105 78.5684 18.6328 79.1982 18.6328 80.0303C18.6328 80.5049 18.4893 80.9297 18.2021 81.3047C17.915 81.6738 17.4961 81.9434 16.9453 82.1133C17.5664 82.2305 18.0645 82.4971 18.4395 82.9131C18.8203 83.3291 19.0107 83.8125 19.0107 84.3633C19.0107 85.2012 18.7002 85.8516 18.0791 86.3145C17.4639 86.7715 16.5908 87 15.46 87H11.3994ZM12.4453 82.623V86.1211H15.4951C16.2861 86.1211 16.8955 85.9688 17.3232 85.6641C17.751 85.3594 17.9648 84.9199 17.9648 84.3457C17.9648 83.8184 17.751 83.3994 17.3232 83.0889C16.8955 82.7783 16.2861 82.623 15.4951 82.623H12.4453ZM12.4453 81.7441H15.1084C16.7607 81.7207 17.5869 81.1582 17.5869 80.0566C17.5869 79.4766 17.3584 79.0547 16.9014 78.791C16.4502 78.5215 15.7793 78.3867 14.8887 78.3867H12.4453V81.7441ZM20.7773 82.1045C20.7773 81.1904 20.9531 80.3672 21.3047 79.6348C21.6621 78.9023 22.1631 78.334 22.8076 77.9297C23.458 77.5195 24.1934 77.3145 25.0137 77.3145C26.2793 77.3145 27.3047 77.7598 28.0898 78.6504C28.875 79.5352 29.2676 80.71 29.2676 82.1748V82.3945C29.2676 83.3145 29.0889 84.1436 28.7314 84.8818C28.3799 85.6143 27.8818 86.1797 27.2373 86.5781C26.5928 86.9766 25.8574 87.1758 25.0312 87.1758C23.7715 87.1758 22.7461 86.7334 21.9551 85.8486C21.1699 84.958 20.7773 83.7803 20.7773 82.3154V82.1045ZM21.832 82.3945C21.832 83.5312 22.125 84.4658 22.7109 85.1982C23.3027 85.9248 24.0762 86.2881 25.0312 86.2881C25.9805 86.2881 26.748 85.9248 27.334 85.1982C27.9258 84.4658 28.2217 83.502 28.2217 82.3066V82.1045C28.2217 81.3779 28.0869 80.7129 27.8174 80.1094C27.5479 79.5059 27.1699 79.04 26.6836 78.7119C26.1973 78.3779 25.6406 78.2109 25.0137 78.2109C24.0762 78.2109 23.3115 78.5801 22.7197 79.3184C22.1279 80.0508 21.832 81.0117 21.832 82.2012V82.3945ZM37.6963 77.4902H38.751V87H37.6963V79.1865L32.5635 87H31.5176V77.4902H32.5635V85.3125L37.6963 77.4902ZM37.6436 74.0625C37.6436 74.7363 37.4121 75.2812 36.9492 75.6973C36.4922 76.1133 35.877 76.3213 35.1035 76.3213C34.3418 76.3213 33.7266 76.1162 33.2578 75.7061C32.7949 75.29 32.5635 74.7422 32.5635 74.0625H33.46C33.46 74.5488 33.6035 74.9209 33.8906 75.1787C34.1836 75.4365 34.5879 75.5654 35.1035 75.5654C35.6191 75.5654 36.0205 75.4307 36.3076 75.1611C36.6006 74.8916 36.7471 74.5254 36.7471 74.0625H37.6436ZM49.6318 87.1758C48.8232 87.1758 48.0908 86.9766 47.4346 86.5781C46.7842 86.1797 46.2773 85.626 45.9141 84.917C45.5508 84.2021 45.3691 83.4023 45.3691 82.5176V82.1396C45.3691 81.2256 45.5449 80.4023 45.8965 79.6699C46.2539 78.9375 46.749 78.3633 47.3818 77.9473C48.0146 77.5254 48.7002 77.3145 49.4385 77.3145C50.5928 77.3145 51.5068 77.71 52.1807 78.501C52.8604 79.2861 53.2002 80.3613 53.2002 81.7266V82.3154H46.415V82.5176C46.415 83.5957 46.7227 84.4951 47.3379 85.2158C47.959 85.9307 48.7383 86.2881 49.6758 86.2881C50.2383 86.2881 50.7334 86.1855 51.1611 85.9805C51.5947 85.7754 51.9873 85.4473 52.3389 84.9961L52.998 85.4971C52.2246 86.6162 51.1025 87.1758 49.6318 87.1758ZM49.4385 78.2109C48.6475 78.2109 47.9795 78.501 47.4346 79.0811C46.8955 79.6611 46.5674 80.4404 46.4502 81.4189H52.1543V81.3047C52.125 80.3906 51.8643 79.6465 51.3721 79.0723C50.8799 78.498 50.2354 78.2109 49.4385 78.2109ZM58.5176 81.7969H54.3076V80.9092H58.5176V81.7969ZM61.3564 77.4902L61.3916 79.0371C61.7432 78.4629 62.1826 78.0322 62.71 77.7451C63.2373 77.458 63.8232 77.3145 64.4678 77.3145C65.9678 77.3145 66.9199 77.9297 67.3242 79.1602C67.6641 78.5684 68.1182 78.1143 68.6865 77.7979C69.2549 77.4756 69.8818 77.3145 70.5674 77.3145C72.6064 77.3145 73.6465 78.4277 73.6875 80.6543V87H72.6328V80.7334C72.627 79.8838 72.4424 79.2539 72.0791 78.8438C71.7217 78.4336 71.1357 78.2285 70.3213 78.2285C69.5654 78.2402 68.9268 78.4863 68.4053 78.9668C67.8838 79.4414 67.5938 80.0215 67.5352 80.707V87H66.4805V80.6543C66.4746 79.8398 66.2812 79.2334 65.9004 78.835C65.5254 78.4307 64.9453 78.2285 64.1602 78.2285C63.498 78.2285 62.9297 78.4189 62.4551 78.7998C61.9805 79.1748 61.6289 79.7344 61.4004 80.4785V87H60.3457V77.4902H61.3564ZM82.3623 87C82.2568 86.7012 82.1895 86.2588 82.1602 85.6729C81.791 86.1533 81.3193 86.5254 80.7451 86.7891C80.1768 87.0469 79.5732 87.1758 78.9346 87.1758C78.0205 87.1758 77.2793 86.9209 76.7109 86.4111C76.1484 85.9014 75.8672 85.2568 75.8672 84.4775C75.8672 83.5518 76.251 82.8193 77.0186 82.2803C77.792 81.7412 78.8672 81.4717 80.2441 81.4717H82.1514V80.3906C82.1514 79.7109 81.9404 79.1777 81.5186 78.791C81.1025 78.3984 80.4932 78.2021 79.6904 78.2021C78.958 78.2021 78.3516 78.3896 77.8711 78.7646C77.3906 79.1396 77.1504 79.5908 77.1504 80.1182L76.0957 80.1094C76.0957 79.3535 76.4473 78.7002 77.1504 78.1494C77.8535 77.5928 78.7178 77.3145 79.7432 77.3145C80.8037 77.3145 81.6387 77.5811 82.248 78.1143C82.8633 78.6416 83.1797 79.3799 83.1973 80.3291V84.8291C83.1973 85.749 83.2939 86.4375 83.4873 86.8945V87H82.3623ZM79.0576 86.2441C79.7607 86.2441 80.3877 86.0742 80.9385 85.7344C81.4951 85.3945 81.8994 84.9404 82.1514 84.3721V82.2803H80.2705C79.2217 82.292 78.4014 82.4854 77.8096 82.8604C77.2178 83.2295 76.9219 83.7393 76.9219 84.3896C76.9219 84.9229 77.1182 85.3652 77.5107 85.7168C77.9092 86.0684 78.4248 86.2441 79.0576 86.2441ZM87.1875 87H86.1328V77.4902H87.1875V87ZM85.9482 74.7393C85.9482 74.54 86.0127 74.373 86.1416 74.2383C86.2705 74.0977 86.4463 74.0273 86.6689 74.0273C86.8916 74.0273 87.0674 74.0977 87.1963 74.2383C87.3311 74.373 87.3984 74.54 87.3984 74.7393C87.3984 74.9385 87.3311 75.1055 87.1963 75.2402C87.0674 75.375 86.8916 75.4424 86.6689 75.4424C86.4463 75.4424 86.2705 75.375 86.1416 75.2402C86.0127 75.1055 85.9482 74.9385 85.9482 74.7393ZM91.2305 87H90.1758V73.5H91.2305V87Z" fill="white"/>
<rect x="0.5" y="140.5" width="459" height="119" stroke="#777777" stroke-dasharray="8 8"/>
<path d="M148.065 196H146.984V184.126H139.742V196H138.661V183.203H148.065V196ZM158.762 191.342C158.762 192.824 158.434 194.002 157.777 194.875C157.121 195.742 156.242 196.176 155.141 196.176C153.84 196.176 152.844 195.719 152.152 194.805V199.656H151.106V186.49H152.082L152.135 187.835C152.82 186.821 153.813 186.314 155.114 186.314C156.251 186.314 157.142 186.745 157.786 187.606C158.437 188.468 158.762 189.663 158.762 191.192V191.342ZM157.707 191.157C157.707 189.944 157.458 188.986 156.96 188.283C156.462 187.58 155.768 187.229 154.877 187.229C154.232 187.229 153.679 187.384 153.216 187.694C152.753 188.005 152.398 188.456 152.152 189.048V193.609C152.404 194.154 152.765 194.57 153.233 194.857C153.702 195.145 154.256 195.288 154.895 195.288C155.779 195.288 156.468 194.937 156.96 194.233C157.458 193.524 157.707 192.499 157.707 191.157ZM167.349 186.49H168.403V196H167.349V188.187L162.216 196H161.17V186.49H162.216V194.312L167.349 186.49ZM173.809 191.641H172.35V196H171.286V186.49H172.35V190.709H173.791L177.28 186.49H178.607L174.705 191.104L179.038 196H177.649L173.809 191.641ZM188.205 191.342C188.205 192.824 187.877 194.002 187.221 194.875C186.564 195.742 185.686 196.176 184.584 196.176C183.283 196.176 182.287 195.719 181.596 194.805V199.656H180.55V186.49H181.525L181.578 187.835C182.264 186.821 183.257 186.314 184.558 186.314C185.694 186.314 186.585 186.745 187.229 187.606C187.88 188.468 188.205 189.663 188.205 191.192V191.342ZM187.15 191.157C187.15 189.944 186.901 188.986 186.403 188.283C185.905 187.58 185.211 187.229 184.32 187.229C183.676 187.229 183.122 187.384 182.659 187.694C182.196 188.005 181.842 188.456 181.596 189.048V193.609C181.848 194.154 182.208 194.57 182.677 194.857C183.146 195.145 183.699 195.288 184.338 195.288C185.223 195.288 185.911 194.937 186.403 194.233C186.901 193.524 187.15 192.499 187.15 191.157ZM194.226 196.176C193.417 196.176 192.685 195.977 192.028 195.578C191.378 195.18 190.871 194.626 190.508 193.917C190.145 193.202 189.963 192.402 189.963 191.518V191.14C189.963 190.226 190.139 189.402 190.49 188.67C190.848 187.938 191.343 187.363 191.976 186.947C192.608 186.525 193.294 186.314 194.032 186.314C195.187 186.314 196.101 186.71 196.774 187.501C197.454 188.286 197.794 189.361 197.794 190.727V191.315H191.009V191.518C191.009 192.596 191.316 193.495 191.932 194.216C192.553 194.931 193.332 195.288 194.27 195.288C194.832 195.288 195.327 195.186 195.755 194.98C196.188 194.775 196.581 194.447 196.933 193.996L197.592 194.497C196.818 195.616 195.696 196.176 194.226 196.176ZM194.032 187.211C193.241 187.211 192.573 187.501 192.028 188.081C191.489 188.661 191.161 189.44 191.044 190.419H196.748V190.305C196.719 189.391 196.458 188.646 195.966 188.072C195.474 187.498 194.829 187.211 194.032 187.211ZM207.146 196H206.091V187.396H200.967V196H199.912V186.49H207.146V196ZM216.216 186.49H217.271V196H216.216V188.187L211.083 196H210.037V186.49H211.083V194.312L216.216 186.49ZM226.921 187.387H223.458V196H222.403V187.387H219.072V186.49H226.921V187.387ZM229.812 189.944H232.555C233.258 189.944 233.873 190.073 234.4 190.331C234.934 190.583 235.335 190.935 235.604 191.386C235.88 191.837 236.018 192.361 236.018 192.959C236.018 193.879 235.701 194.617 235.068 195.174C234.441 195.725 233.592 196 232.52 196H228.767V186.49H229.812V189.944ZM229.812 190.841V195.112H232.537C233.293 195.112 233.885 194.922 234.312 194.541C234.746 194.16 234.963 193.639 234.963 192.977C234.963 192.344 234.752 191.834 234.33 191.447C233.914 191.055 233.343 190.853 232.616 190.841H229.812ZM246.178 195.288C246.91 195.288 247.522 195.083 248.015 194.673C248.513 194.257 248.782 193.721 248.823 193.064H249.834C249.805 193.645 249.623 194.175 249.289 194.655C248.955 195.13 248.51 195.502 247.953 195.771C247.402 196.041 246.811 196.176 246.178 196.176C244.93 196.176 243.939 195.742 243.207 194.875C242.48 194.008 242.117 192.842 242.117 191.377V191.061C242.117 190.123 242.281 189.294 242.609 188.573C242.938 187.853 243.406 187.296 244.016 186.903C244.631 186.511 245.349 186.314 246.169 186.314C247.212 186.314 248.07 186.625 248.744 187.246C249.424 187.867 249.787 188.685 249.834 189.698H248.823C248.776 188.954 248.507 188.354 248.015 187.896C247.528 187.439 246.913 187.211 246.169 187.211C245.22 187.211 244.481 187.554 243.954 188.239C243.433 188.925 243.172 189.886 243.172 191.122V191.43C243.172 192.643 243.433 193.589 243.954 194.269C244.481 194.948 245.223 195.288 246.178 195.288ZM254.527 191.641H253.068V196H252.005V186.49H253.068V190.709H254.51L257.999 186.49H259.326L255.424 191.104L259.757 196H258.368L254.527 191.641ZM268.924 191.342C268.924 192.824 268.596 194.002 267.939 194.875C267.283 195.742 266.404 196.176 265.303 196.176C264.002 196.176 263.006 195.719 262.314 194.805V199.656H261.269V186.49H262.244L262.297 187.835C262.982 186.821 263.976 186.314 265.276 186.314C266.413 186.314 267.304 186.745 267.948 187.606C268.599 188.468 268.924 189.663 268.924 191.192V191.342ZM267.869 191.157C267.869 189.944 267.62 188.986 267.122 188.283C266.624 187.58 265.93 187.229 265.039 187.229C264.395 187.229 263.841 187.384 263.378 187.694C262.915 188.005 262.561 188.456 262.314 189.048V193.609C262.566 194.154 262.927 194.57 263.396 194.857C263.864 195.145 264.418 195.288 265.057 195.288C265.941 195.288 266.63 194.937 267.122 194.233C267.62 193.524 267.869 192.499 267.869 191.157ZM277.511 186.49H278.565V196H277.511V188.187L272.378 196H271.332V186.49H272.378V194.312L277.511 186.49ZM288.69 196H287.636V191.641H282.512V196H281.457V186.49H282.512V190.753H287.636V186.49H288.69V196ZM292.637 186.49V195.112H296.864V186.49H297.919V195.112H302.111V186.49H303.166V196H291.582V186.49H292.637ZM305.223 191.104C305.223 190.19 305.398 189.367 305.75 188.635C306.107 187.902 306.608 187.334 307.253 186.93C307.903 186.52 308.639 186.314 309.459 186.314C310.725 186.314 311.75 186.76 312.535 187.65C313.32 188.535 313.713 189.71 313.713 191.175V191.395C313.713 192.314 313.534 193.144 313.177 193.882C312.825 194.614 312.327 195.18 311.683 195.578C311.038 195.977 310.303 196.176 309.477 196.176C308.217 196.176 307.191 195.733 306.4 194.849C305.615 193.958 305.223 192.78 305.223 191.315V191.104ZM306.277 191.395C306.277 192.531 306.57 193.466 307.156 194.198C307.748 194.925 308.521 195.288 309.477 195.288C310.426 195.288 311.193 194.925 311.779 194.198C312.371 193.466 312.667 192.502 312.667 191.307V191.104C312.667 190.378 312.532 189.713 312.263 189.109C311.993 188.506 311.615 188.04 311.129 187.712C310.643 187.378 310.086 187.211 309.459 187.211C308.521 187.211 307.757 187.58 307.165 188.318C306.573 189.051 306.277 190.012 306.277 191.201V191.395ZM322.528 187.387H319.065V196H318.011V187.387H314.68V186.49H322.528V187.387Z" fill="white"/>
<path d="M137 197.758H322.88V198.637H137V197.758Z" fill="white"/>
<path d="M188.85 217.578C188.85 217.441 188.893 217.326 188.979 217.232C189.068 217.135 189.191 217.086 189.348 217.086C189.504 217.086 189.627 217.135 189.717 217.232C189.807 217.326 189.852 217.441 189.852 217.578C189.852 217.715 189.807 217.828 189.717 217.918C189.627 218.004 189.504 218.047 189.348 218.047C189.191 218.047 189.068 218.004 188.979 217.918C188.893 217.828 188.85 217.715 188.85 217.578ZM196.883 214.895C196.883 215.883 196.664 216.668 196.227 217.25C195.789 217.828 195.203 218.117 194.469 218.117C193.602 218.117 192.938 217.812 192.477 217.203V220.438H191.779V211.66H192.43L192.465 212.557C192.922 211.881 193.584 211.543 194.451 211.543C195.209 211.543 195.803 211.83 196.232 212.404C196.666 212.979 196.883 213.775 196.883 214.795V214.895ZM196.18 214.771C196.18 213.963 196.014 213.324 195.682 212.855C195.35 212.387 194.887 212.152 194.293 212.152C193.863 212.152 193.494 212.256 193.186 212.463C192.877 212.67 192.641 212.971 192.477 213.365V216.406C192.645 216.77 192.885 217.047 193.197 217.238C193.51 217.43 193.879 217.525 194.305 217.525C194.895 217.525 195.354 217.291 195.682 216.822C196.014 216.35 196.18 215.666 196.18 214.771ZM199.109 211.66L199.133 212.744C199.371 212.354 199.668 212.057 200.023 211.854C200.379 211.646 200.771 211.543 201.201 211.543C201.881 211.543 202.387 211.734 202.719 212.117C203.051 212.5 203.219 213.074 203.223 213.84V218H202.525V213.834C202.521 213.268 202.4 212.846 202.162 212.568C201.928 212.291 201.551 212.152 201.031 212.152C200.598 212.152 200.213 212.289 199.877 212.562C199.545 212.832 199.299 213.197 199.139 213.658V218H198.441V211.66H199.109ZM204.758 214.771C204.758 213.779 204.977 212.994 205.414 212.416C205.855 211.834 206.453 211.543 207.207 211.543C208.07 211.543 208.727 211.887 209.176 212.574L209.211 211.66H209.867V217.871C209.867 218.688 209.639 219.334 209.182 219.811C208.725 220.287 208.105 220.525 207.324 220.525C206.883 220.525 206.461 220.426 206.059 220.227C205.66 220.031 205.346 219.77 205.115 219.441L205.508 219.02C206.004 219.629 206.594 219.934 207.277 219.934C207.863 219.934 208.32 219.76 208.648 219.412C208.977 219.068 209.146 218.59 209.158 217.977V217.18C208.709 217.805 208.055 218.117 207.195 218.117C206.461 218.117 205.871 217.824 205.426 217.238C204.98 216.652 204.758 215.861 204.758 214.865V214.771ZM205.467 214.895C205.467 215.703 205.629 216.342 205.953 216.811C206.277 217.275 206.734 217.508 207.324 217.508C208.188 217.508 208.799 217.121 209.158 216.348V213.4C208.994 212.994 208.758 212.686 208.449 212.475C208.141 212.26 207.77 212.152 207.336 212.152C206.746 212.152 206.287 212.385 205.959 212.85C205.631 213.311 205.467 213.992 205.467 214.895ZM214.514 218.732H213.875L217.438 209.469H218.07L214.514 218.732ZM222.236 217.578C222.236 217.441 222.279 217.326 222.365 217.232C222.455 217.135 222.578 217.086 222.734 217.086C222.891 217.086 223.014 217.135 223.104 217.232C223.193 217.326 223.238 217.441 223.238 217.578C223.238 217.715 223.193 217.828 223.104 217.918C223.014 218.004 222.891 218.047 222.734 218.047C222.578 218.047 222.455 218.004 222.365 217.918C222.279 217.828 222.236 217.715 222.236 217.578ZM225.928 211.66V218.756C225.928 219.342 225.787 219.789 225.506 220.098C225.225 220.406 224.811 220.561 224.264 220.561C224.053 220.561 223.848 220.523 223.648 220.449L223.66 219.869C223.832 219.92 224.008 219.945 224.188 219.945C224.883 219.945 225.23 219.545 225.23 218.744V211.66H225.928ZM225.582 209.352C225.734 209.352 225.854 209.398 225.939 209.492C226.025 209.582 226.068 209.693 226.068 209.826C226.068 209.959 226.025 210.07 225.939 210.16C225.854 210.25 225.734 210.295 225.582 210.295C225.434 210.295 225.316 210.25 225.23 210.16C225.148 210.07 225.107 209.959 225.107 209.826C225.107 209.693 225.148 209.582 225.23 209.492C225.316 209.398 225.434 209.352 225.582 209.352ZM233.012 214.895C233.012 215.883 232.793 216.668 232.355 217.25C231.918 217.828 231.332 218.117 230.598 218.117C229.73 218.117 229.066 217.812 228.605 217.203V220.438H227.908V211.66H228.559L228.594 212.557C229.051 211.881 229.713 211.543 230.58 211.543C231.338 211.543 231.932 211.83 232.361 212.404C232.795 212.979 233.012 213.775 233.012 214.795V214.895ZM232.309 214.771C232.309 213.963 232.143 213.324 231.811 212.855C231.479 212.387 231.016 212.152 230.422 212.152C229.992 212.152 229.623 212.256 229.314 212.463C229.006 212.67 228.77 212.971 228.605 213.365V216.406C228.773 216.77 229.014 217.047 229.326 217.238C229.639 217.43 230.008 217.525 230.434 217.525C231.023 217.525 231.482 217.291 231.811 216.822C232.143 216.35 232.309 215.666 232.309 214.771ZM234.289 214.771C234.289 213.779 234.508 212.994 234.945 212.416C235.387 211.834 235.984 211.543 236.738 211.543C237.602 211.543 238.258 211.887 238.707 212.574L238.742 211.66H239.398V217.871C239.398 218.688 239.17 219.334 238.713 219.811C238.256 220.287 237.637 220.525 236.855 220.525C236.414 220.525 235.992 220.426 235.59 220.227C235.191 220.031 234.877 219.77 234.646 219.441L235.039 219.02C235.535 219.629 236.125 219.934 236.809 219.934C237.395 219.934 237.852 219.76 238.18 219.412C238.508 219.068 238.678 218.59 238.689 217.977V217.18C238.24 217.805 237.586 218.117 236.727 218.117C235.992 218.117 235.402 217.824 234.957 217.238C234.512 216.652 234.289 215.861 234.289 214.865V214.771ZM234.998 214.895C234.998 215.703 235.16 216.342 235.484 216.811C235.809 217.275 236.266 217.508 236.855 217.508C237.719 217.508 238.33 217.121 238.689 216.348V213.4C238.525 212.994 238.289 212.686 237.98 212.475C237.672 212.26 237.301 212.152 236.867 212.152C236.277 212.152 235.818 212.385 235.49 212.85C235.162 213.311 234.998 213.992 234.998 214.895ZM244.045 218.732H243.406L246.969 209.469H247.602L244.045 218.732ZM251.768 217.578C251.768 217.441 251.811 217.326 251.896 217.232C251.986 217.135 252.109 217.086 252.266 217.086C252.422 217.086 252.545 217.135 252.635 217.232C252.725 217.326 252.77 217.441 252.77 217.578C252.77 217.715 252.725 217.828 252.635 217.918C252.545 218.004 252.422 218.047 252.266 218.047C252.109 218.047 251.986 218.004 251.896 217.918C251.811 217.828 251.768 217.715 251.768 217.578ZM259.801 214.895C259.801 215.883 259.582 216.668 259.145 217.25C258.707 217.828 258.121 218.117 257.387 218.117C256.52 218.117 255.855 217.812 255.395 217.203V220.438H254.697V211.66H255.348L255.383 212.557C255.84 211.881 256.502 211.543 257.369 211.543C258.127 211.543 258.721 211.83 259.15 212.404C259.584 212.979 259.801 213.775 259.801 214.795V214.895ZM259.098 214.771C259.098 213.963 258.932 213.324 258.6 212.855C258.268 212.387 257.805 212.152 257.211 212.152C256.781 212.152 256.412 212.256 256.104 212.463C255.795 212.67 255.559 212.971 255.395 213.365V216.406C255.562 216.77 255.803 217.047 256.115 217.238C256.428 217.43 256.797 217.525 257.223 217.525C257.812 217.525 258.271 217.291 258.6 216.822C258.932 216.35 259.098 215.666 259.098 214.771ZM261.078 214.771C261.078 213.787 261.297 213.004 261.734 212.422C262.176 211.836 262.773 211.543 263.527 211.543C264.383 211.543 265.035 211.881 265.484 212.557V209H266.182V218H265.525L265.496 217.156C265.047 217.797 264.387 218.117 263.516 218.117C262.785 218.117 262.195 217.824 261.746 217.238C261.301 216.648 261.078 215.854 261.078 214.854V214.771ZM261.787 214.895C261.787 215.703 261.949 216.342 262.273 216.811C262.598 217.275 263.055 217.508 263.645 217.508C264.508 217.508 265.121 217.127 265.484 216.365V213.389C265.121 212.564 264.512 212.152 263.656 212.152C263.066 212.152 262.607 212.385 262.279 212.85C261.951 213.311 261.787 213.992 261.787 214.895ZM268.531 218V212.234H267.482V211.66H268.531V210.893C268.531 210.244 268.695 209.746 269.023 209.398C269.355 209.051 269.816 208.877 270.406 208.877C270.672 208.877 270.92 208.91 271.15 208.977L271.098 209.562C270.902 209.516 270.689 209.492 270.459 209.492C270.072 209.492 269.771 209.613 269.557 209.855C269.342 210.094 269.234 210.434 269.234 210.875V211.66H270.746V212.234H269.234V218H268.531Z" fill="white"/>
<path d="M31.1191 377.34C31.0215 378.238 30.6992 378.926 30.1523 379.402C29.6094 379.879 28.8848 380.117 27.9785 380.117C27.3457 380.117 26.7852 379.959 26.2969 379.643C25.8125 379.326 25.4375 378.879 25.1719 378.301C24.9062 377.719 24.7715 377.055 24.7676 376.309V375.201C24.7676 374.443 24.9004 373.771 25.166 373.186C25.4316 372.6 25.8125 372.148 26.3086 371.832C26.8086 371.512 27.3828 371.352 28.0312 371.352C28.9453 371.352 29.666 371.6 30.1934 372.096C30.7246 372.588 31.0332 373.27 31.1191 374.141H30.3926C30.2129 372.691 29.4258 371.967 28.0312 371.967C27.2578 371.967 26.6406 372.256 26.1797 372.834C25.7227 373.412 25.4941 374.211 25.4941 375.23V376.273C25.4941 377.258 25.7168 378.043 26.1621 378.629C26.6113 379.215 27.2168 379.508 27.9785 379.508C28.7324 379.508 29.3008 379.328 29.6836 378.969C30.0664 378.605 30.3027 378.062 30.3926 377.34H31.1191ZM32.3203 376.736C32.3203 376.127 32.4375 375.578 32.6719 375.09C32.9102 374.602 33.2441 374.223 33.6738 373.953C34.1074 373.68 34.5977 373.543 35.1445 373.543C35.9883 373.543 36.6719 373.84 37.1953 374.434C37.7188 375.023 37.9805 375.807 37.9805 376.783V376.93C37.9805 377.543 37.8613 378.096 37.623 378.588C37.3887 379.076 37.0566 379.453 36.627 379.719C36.1973 379.984 35.707 380.117 35.1562 380.117C34.3164 380.117 33.6328 379.822 33.1055 379.232C32.582 378.639 32.3203 377.854 32.3203 376.877V376.736ZM33.0234 376.93C33.0234 377.688 33.2188 378.311 33.6094 378.799C34.0039 379.283 34.5195 379.525 35.1562 379.525C35.7891 379.525 36.3008 379.283 36.6914 378.799C37.0859 378.311 37.2832 377.668 37.2832 376.871V376.736C37.2832 376.252 37.1934 375.809 37.0137 375.406C36.834 375.004 36.582 374.693 36.2578 374.475C35.9336 374.252 35.5625 374.141 35.1445 374.141C34.5195 374.141 34.0098 374.387 33.6152 374.879C33.2207 375.367 33.0234 376.008 33.0234 376.801V376.93ZM43.3828 374.264H40.1777V380H39.4746V373.66H43.3828V374.264ZM49.1367 373.66V380H48.4336V374.264H45.8379L45.7266 376.637C45.6797 377.516 45.5918 378.188 45.4629 378.652C45.334 379.113 45.1426 379.453 44.8887 379.672C44.6348 379.891 44.2969 380 43.875 380H43.6055V379.379L43.8223 379.367C44.2246 379.359 44.5137 379.164 44.6895 378.781C44.8652 378.398 44.9805 377.715 45.0352 376.73L45.1641 373.66H49.1367ZM55.0254 380C54.9551 379.801 54.9102 379.506 54.8906 379.115C54.6445 379.436 54.3301 379.684 53.9473 379.859C53.5684 380.031 53.166 380.117 52.7402 380.117C52.1309 380.117 51.6367 379.947 51.2578 379.607C50.8828 379.268 50.6953 378.838 50.6953 378.318C50.6953 377.701 50.9512 377.213 51.4629 376.854C51.9785 376.494 52.6953 376.314 53.6133 376.314H54.8848V375.594C54.8848 375.141 54.7441 374.785 54.4629 374.527C54.1855 374.266 53.7793 374.135 53.2441 374.135C52.7559 374.135 52.3516 374.26 52.0312 374.51C51.7109 374.76 51.5508 375.061 51.5508 375.412L50.8477 375.406C50.8477 374.902 51.082 374.467 51.5508 374.1C52.0195 373.729 52.5957 373.543 53.2793 373.543C53.9863 373.543 54.543 373.721 54.9492 374.076C55.3594 374.428 55.5703 374.92 55.582 375.553V378.553C55.582 379.166 55.6465 379.625 55.7754 379.93V380H55.0254ZM52.8223 379.496C53.291 379.496 53.709 379.383 54.0762 379.156C54.4473 378.93 54.7168 378.627 54.8848 378.248V376.854H53.6309C52.9316 376.861 52.3848 376.99 51.9902 377.24C51.5957 377.486 51.3984 377.826 51.3984 378.26C51.3984 378.615 51.5293 378.91 51.791 379.145C52.0566 379.379 52.4004 379.496 52.8223 379.496ZM59.8008 379.525C60.2891 379.525 60.6973 379.389 61.0254 379.115C61.3574 378.838 61.5371 378.48 61.5645 378.043H62.2383C62.2188 378.43 62.0977 378.783 61.875 379.104C61.6523 379.42 61.3555 379.668 60.9844 379.848C60.6172 380.027 60.2227 380.117 59.8008 380.117C58.9688 380.117 58.3086 379.828 57.8203 379.25C57.3359 378.672 57.0938 377.895 57.0938 376.918V376.707C57.0938 376.082 57.2031 375.529 57.4219 375.049C57.6406 374.568 57.9531 374.197 58.3594 373.936C58.7695 373.674 59.248 373.543 59.7949 373.543C60.4902 373.543 61.0625 373.75 61.5117 374.164C61.9648 374.578 62.207 375.123 62.2383 375.799H61.5645C61.5332 375.303 61.3535 374.902 61.0254 374.598C60.7012 374.293 60.291 374.141 59.7949 374.141C59.1621 374.141 58.6699 374.369 58.3184 374.826C57.9707 375.283 57.7969 375.924 57.7969 376.748V376.953C57.7969 377.762 57.9707 378.393 58.3184 378.846C58.6699 379.299 59.1641 379.525 59.8008 379.525ZM66.0996 380.117C65.5605 380.117 65.0723 379.984 64.6348 379.719C64.2012 379.453 63.8633 379.084 63.6211 378.611C63.3789 378.135 63.2578 377.602 63.2578 377.012V376.76C63.2578 376.15 63.375 375.602 63.6094 375.113C63.8477 374.625 64.1777 374.242 64.5996 373.965C65.0215 373.684 65.4785 373.543 65.9707 373.543C66.7402 373.543 67.3496 373.807 67.7988 374.334C68.252 374.857 68.4785 375.574 68.4785 376.484V376.877H63.9551V377.012C63.9551 377.73 64.1602 378.33 64.5703 378.811C64.9844 379.287 65.5039 379.525 66.1289 379.525C66.5039 379.525 66.834 379.457 67.1191 379.32C67.4082 379.184 67.6699 378.965 67.9043 378.664L68.3438 378.998C67.8281 379.744 67.0801 380.117 66.0996 380.117ZM65.9707 374.141C65.4434 374.141 64.998 374.334 64.6348 374.721C64.2754 375.107 64.0566 375.627 63.9785 376.279H67.7812V376.203C67.7617 375.594 67.5879 375.098 67.2598 374.715C66.9316 374.332 66.502 374.141 65.9707 374.141ZM74.7129 380H74.0098V377.094H70.5938V380H69.8906V373.66H70.5938V376.502H74.0098V373.66H74.7129V380ZM84.3809 380H83.6777V377.094H80.2617V380H79.5586V373.66H80.2617V376.502H83.6777V373.66H84.3809V380ZM90.2637 380C90.1934 379.801 90.1484 379.506 90.1289 379.115C89.8828 379.436 89.5684 379.684 89.1855 379.859C88.8066 380.031 88.4043 380.117 87.9785 380.117C87.3691 380.117 86.875 379.947 86.4961 379.607C86.1211 379.268 85.9336 378.838 85.9336 378.318C85.9336 377.701 86.1895 377.213 86.7012 376.854C87.2168 376.494 87.9336 376.314 88.8516 376.314H90.123V375.594C90.123 375.141 89.9824 374.785 89.7012 374.527C89.4238 374.266 89.0176 374.135 88.4824 374.135C87.9941 374.135 87.5898 374.26 87.2695 374.51C86.9492 374.76 86.7891 375.061 86.7891 375.412L86.0859 375.406C86.0859 374.902 86.3203 374.467 86.7891 374.1C87.2578 373.729 87.834 373.543 88.5176 373.543C89.2246 373.543 89.7812 373.721 90.1875 374.076C90.5977 374.428 90.8086 374.92 90.8203 375.553V378.553C90.8203 379.166 90.8848 379.625 91.0137 379.93V380H90.2637ZM88.0605 379.496C88.5293 379.496 88.9473 379.383 89.3145 379.156C89.6855 378.93 89.9551 378.627 90.123 378.248V376.854H88.8691C88.1699 376.861 87.623 376.99 87.2285 377.24C86.834 377.486 86.6367 377.826 86.6367 378.26C86.6367 378.615 86.7676 378.91 87.0293 379.145C87.2949 379.379 87.6387 379.496 88.0605 379.496ZM95.2266 376.736C95.2266 376.127 95.3438 375.578 95.5781 375.09C95.8164 374.602 96.1504 374.223 96.5801 373.953C97.0137 373.68 97.5039 373.543 98.0508 373.543C98.8945 373.543 99.5781 373.84 100.102 374.434C100.625 375.023 100.887 375.807 100.887 376.783V376.93C100.887 377.543 100.768 378.096 100.529 378.588C100.295 379.076 99.9629 379.453 99.5332 379.719C99.1035 379.984 98.6133 380.117 98.0625 380.117C97.2227 380.117 96.5391 379.822 96.0117 379.232C95.4883 378.639 95.2266 377.854 95.2266 376.877V376.736ZM95.9297 376.93C95.9297 377.688 96.125 378.311 96.5156 378.799C96.9102 379.283 97.4258 379.525 98.0625 379.525C98.6953 379.525 99.207 379.283 99.5977 378.799C99.9922 378.311 100.189 377.668 100.189 376.871V376.736C100.189 376.252 100.1 375.809 99.9199 375.406C99.7402 375.004 99.4883 374.693 99.1641 374.475C98.8398 374.252 98.4688 374.141 98.0508 374.141C97.4258 374.141 96.916 374.387 96.5215 374.879C96.127 375.367 95.9297 376.008 95.9297 376.801V376.93ZM104.895 374.082C105.699 374.082 106.352 374.346 106.852 374.873C107.352 375.396 107.602 376.092 107.602 376.959V377.111C107.602 377.686 107.486 378.203 107.256 378.664C107.029 379.121 106.701 379.479 106.271 379.736C105.846 379.99 105.355 380.117 104.801 380.117C103.965 380.117 103.287 379.84 102.768 379.285C102.252 378.727 101.994 377.982 101.994 377.053V376.49C101.994 375.178 102.244 374.129 102.744 373.344C103.244 372.559 103.955 372.09 104.877 371.938C105.459 371.844 105.867 371.717 106.102 371.557C106.34 371.396 106.459 371.178 106.459 370.9H107.062C107.062 371.229 106.994 371.5 106.857 371.715C106.721 371.93 106.516 372.104 106.242 372.236C105.969 372.365 105.551 372.475 104.988 372.564C104.344 372.666 103.824 372.941 103.43 373.391C103.039 373.836 102.785 374.434 102.668 375.184C102.918 374.855 103.23 374.59 103.605 374.387C103.984 374.184 104.414 374.082 104.895 374.082ZM102.697 376.965V377.111C102.697 377.826 102.891 378.408 103.277 378.857C103.664 379.303 104.172 379.525 104.801 379.525C105.434 379.525 105.941 379.301 106.324 378.852C106.707 378.398 106.898 377.805 106.898 377.07V376.918C106.898 376.258 106.703 375.719 106.312 375.301C105.926 374.883 105.418 374.674 104.789 374.674C104.16 374.674 103.654 374.887 103.271 375.312C102.889 375.734 102.697 376.285 102.697 376.965ZM113.941 376.895C113.941 377.883 113.723 378.668 113.285 379.25C112.848 379.828 112.262 380.117 111.527 380.117C110.66 380.117 109.996 379.812 109.535 379.203V382.438H108.838V373.66H109.488L109.523 374.557C109.98 373.881 110.643 373.543 111.51 373.543C112.268 373.543 112.861 373.83 113.291 374.404C113.725 374.979 113.941 375.775 113.941 376.795V376.895ZM113.238 376.771C113.238 375.963 113.072 375.324 112.74 374.855C112.408 374.387 111.945 374.152 111.352 374.152C110.922 374.152 110.553 374.256 110.244 374.463C109.936 374.67 109.699 374.971 109.535 375.365V378.406C109.703 378.77 109.943 379.047 110.256 379.238C110.568 379.43 110.938 379.525 111.363 379.525C111.953 379.525 112.412 379.291 112.74 378.822C113.072 378.35 113.238 377.666 113.238 376.771ZM119.502 380C119.432 379.801 119.387 379.506 119.367 379.115C119.121 379.436 118.807 379.684 118.424 379.859C118.045 380.031 117.643 380.117 117.217 380.117C116.607 380.117 116.113 379.947 115.734 379.607C115.359 379.268 115.172 378.838 115.172 378.318C115.172 377.701 115.428 377.213 115.939 376.854C116.455 376.494 117.172 376.314 118.09 376.314H119.361V375.594C119.361 375.141 119.221 374.785 118.939 374.527C118.662 374.266 118.256 374.135 117.721 374.135C117.232 374.135 116.828 374.26 116.508 374.51C116.188 374.76 116.027 375.061 116.027 375.412L115.324 375.406C115.324 374.902 115.559 374.467 116.027 374.1C116.496 373.729 117.072 373.543 117.756 373.543C118.463 373.543 119.02 373.721 119.426 374.076C119.836 374.428 120.047 374.92 120.059 375.553V378.553C120.059 379.166 120.123 379.625 120.252 379.93V380H119.502ZM117.299 379.496C117.768 379.496 118.186 379.383 118.553 379.156C118.924 378.93 119.193 378.627 119.361 378.248V376.854H118.107C117.408 376.861 116.861 376.99 116.467 377.24C116.072 377.486 115.875 377.826 115.875 378.26C115.875 378.615 116.006 378.91 116.268 379.145C116.533 379.379 116.877 379.496 117.299 379.496ZM124.488 374.082C125.293 374.082 125.945 374.346 126.445 374.873C126.945 375.396 127.195 376.092 127.195 376.959V377.111C127.195 377.686 127.08 378.203 126.85 378.664C126.623 379.121 126.295 379.479 125.865 379.736C125.439 379.99 124.949 380.117 124.395 380.117C123.559 380.117 122.881 379.84 122.361 379.285C121.846 378.727 121.588 377.982 121.588 377.053V376.49C121.588 375.178 121.838 374.129 122.338 373.344C122.838 372.559 123.549 372.09 124.471 371.938C125.053 371.844 125.461 371.717 125.695 371.557C125.934 371.396 126.053 371.178 126.053 370.9H126.656C126.656 371.229 126.588 371.5 126.451 371.715C126.314 371.93 126.109 372.104 125.836 372.236C125.562 372.365 125.145 372.475 124.582 372.564C123.938 372.666 123.418 372.941 123.023 373.391C122.633 373.836 122.379 374.434 122.262 375.184C122.512 374.855 122.824 374.59 123.199 374.387C123.578 374.184 124.008 374.082 124.488 374.082ZM122.291 376.965V377.111C122.291 377.826 122.484 378.408 122.871 378.857C123.258 379.303 123.766 379.525 124.395 379.525C125.027 379.525 125.535 379.301 125.918 378.852C126.301 378.398 126.492 377.805 126.492 377.07V376.918C126.492 376.258 126.297 375.719 125.906 375.301C125.52 374.883 125.012 374.674 124.383 374.674C123.754 374.674 123.248 374.887 122.865 375.312C122.482 375.734 122.291 376.285 122.291 376.965ZM128.156 376.736C128.156 376.127 128.273 375.578 128.508 375.09C128.746 374.602 129.08 374.223 129.51 373.953C129.943 373.68 130.434 373.543 130.98 373.543C131.824 373.543 132.508 373.84 133.031 374.434C133.555 375.023 133.816 375.807 133.816 376.783V376.93C133.816 377.543 133.697 378.096 133.459 378.588C133.225 379.076 132.893 379.453 132.463 379.719C132.033 379.984 131.543 380.117 130.992 380.117C130.152 380.117 129.469 379.822 128.941 379.232C128.418 378.639 128.156 377.854 128.156 376.877V376.736ZM128.859 376.93C128.859 377.688 129.055 378.311 129.445 378.799C129.84 379.283 130.355 379.525 130.992 379.525C131.625 379.525 132.137 379.283 132.527 378.799C132.922 378.311 133.119 377.668 133.119 376.871V376.736C133.119 376.252 133.029 375.809 132.85 375.406C132.67 375.004 132.418 374.693 132.094 374.475C131.77 374.252 131.398 374.141 130.98 374.141C130.355 374.141 129.846 374.387 129.451 374.879C129.057 375.367 128.859 376.008 128.859 376.801V376.93ZM139.693 374.258H137.385V380H136.682V374.258H134.461V373.66H139.693V374.258ZM142.57 377.094H141.598V380H140.889V373.66H141.598V376.473H142.559L144.885 373.66H145.77L143.168 376.736L146.057 380H145.131L142.57 377.094ZM149.08 378.992L150.932 373.66H151.688L148.98 381.078L148.84 381.406C148.492 382.176 147.955 382.561 147.229 382.561C147.061 382.561 146.881 382.533 146.689 382.479L146.684 381.898L147.047 381.934C147.391 381.934 147.668 381.848 147.879 381.676C148.094 381.508 148.275 381.217 148.424 380.803L148.734 379.947L146.344 373.66H147.111L149.08 378.992ZM160.564 380H159.861V374.264H156.445V380H155.742V373.66H160.564V380ZM164.9 380.117C164.361 380.117 163.873 379.984 163.436 379.719C163.002 379.453 162.664 379.084 162.422 378.611C162.18 378.135 162.059 377.602 162.059 377.012V376.76C162.059 376.15 162.176 375.602 162.41 375.113C162.648 374.625 162.979 374.242 163.4 373.965C163.822 373.684 164.279 373.543 164.771 373.543C165.541 373.543 166.15 373.807 166.6 374.334C167.053 374.857 167.279 375.574 167.279 376.484V376.877H162.756V377.012C162.756 377.73 162.961 378.33 163.371 378.811C163.785 379.287 164.305 379.525 164.93 379.525C165.305 379.525 165.635 379.457 165.92 379.32C166.209 379.184 166.471 378.965 166.705 378.664L167.145 378.998C166.629 379.744 165.881 380.117 164.9 380.117ZM164.771 374.141C164.244 374.141 163.799 374.334 163.436 374.721C163.076 375.107 162.857 375.627 162.779 376.279H166.582V376.203C166.562 375.594 166.389 375.098 166.061 374.715C165.732 374.332 165.303 374.141 164.771 374.141ZM173.742 376.895C173.742 377.883 173.523 378.668 173.086 379.25C172.648 379.828 172.062 380.117 171.328 380.117C170.461 380.117 169.797 379.812 169.336 379.203V382.438H168.639V373.66H169.289L169.324 374.557C169.781 373.881 170.443 373.543 171.311 373.543C172.068 373.543 172.662 373.83 173.092 374.404C173.525 374.979 173.742 375.775 173.742 376.795V376.895ZM173.039 376.771C173.039 375.963 172.873 375.324 172.541 374.855C172.209 374.387 171.746 374.152 171.152 374.152C170.723 374.152 170.354 374.256 170.045 374.463C169.736 374.67 169.5 374.971 169.336 375.365V378.406C169.504 378.77 169.744 379.047 170.057 379.238C170.369 379.43 170.738 379.525 171.164 379.525C171.754 379.525 172.213 379.291 172.541 378.822C172.873 378.35 173.039 377.666 173.039 376.771ZM177.645 379.525C178.133 379.525 178.541 379.389 178.869 379.115C179.201 378.838 179.381 378.48 179.408 378.043H180.082C180.062 378.43 179.941 378.783 179.719 379.104C179.496 379.42 179.199 379.668 178.828 379.848C178.461 380.027 178.066 380.117 177.645 380.117C176.812 380.117 176.152 379.828 175.664 379.25C175.18 378.672 174.938 377.895 174.938 376.918V376.707C174.938 376.082 175.047 375.529 175.266 375.049C175.484 374.568 175.797 374.197 176.203 373.936C176.613 373.674 177.092 373.543 177.639 373.543C178.334 373.543 178.906 373.75 179.355 374.164C179.809 374.578 180.051 375.123 180.082 375.799H179.408C179.377 375.303 179.197 374.902 178.869 374.598C178.545 374.293 178.135 374.141 177.639 374.141C177.006 374.141 176.514 374.369 176.162 374.826C175.814 375.283 175.641 375.924 175.641 376.748V376.953C175.641 377.762 175.814 378.393 176.162 378.846C176.514 379.299 177.008 379.525 177.645 379.525ZM181.102 376.736C181.102 376.127 181.219 375.578 181.453 375.09C181.691 374.602 182.025 374.223 182.455 373.953C182.889 373.68 183.379 373.543 183.926 373.543C184.77 373.543 185.453 373.84 185.977 374.434C186.5 375.023 186.762 375.807 186.762 376.783V376.93C186.762 377.543 186.643 378.096 186.404 378.588C186.17 379.076 185.838 379.453 185.408 379.719C184.979 379.984 184.488 380.117 183.938 380.117C183.098 380.117 182.414 379.822 181.887 379.232C181.363 378.639 181.102 377.854 181.102 376.877V376.736ZM181.805 376.93C181.805 377.688 182 378.311 182.391 378.799C182.785 379.283 183.301 379.525 183.938 379.525C184.57 379.525 185.082 379.283 185.473 378.799C185.867 378.311 186.064 377.668 186.064 376.871V376.736C186.064 376.252 185.975 375.809 185.795 375.406C185.615 375.004 185.363 374.693 185.039 374.475C184.715 374.252 184.344 374.141 183.926 374.141C183.301 374.141 182.791 374.387 182.396 374.879C182.002 375.367 181.805 376.008 181.805 376.801V376.93ZM193.084 380H192.381V377.094H188.965V380H188.262V373.66H188.965V376.502H192.381V373.66H193.084V380ZM198.967 380C198.896 379.801 198.852 379.506 198.832 379.115C198.586 379.436 198.271 379.684 197.889 379.859C197.51 380.031 197.107 380.117 196.682 380.117C196.072 380.117 195.578 379.947 195.199 379.607C194.824 379.268 194.637 378.838 194.637 378.318C194.637 377.701 194.893 377.213 195.404 376.854C195.92 376.494 196.637 376.314 197.555 376.314H198.826V375.594C198.826 375.141 198.686 374.785 198.404 374.527C198.127 374.266 197.721 374.135 197.186 374.135C196.697 374.135 196.293 374.26 195.973 374.51C195.652 374.76 195.492 375.061 195.492 375.412L194.789 375.406C194.789 374.902 195.023 374.467 195.492 374.1C195.961 373.729 196.537 373.543 197.221 373.543C197.928 373.543 198.484 373.721 198.891 374.076C199.301 374.428 199.512 374.92 199.523 375.553V378.553C199.523 379.166 199.588 379.625 199.717 379.93V380H198.967ZM196.764 379.496C197.232 379.496 197.65 379.383 198.018 379.156C198.389 378.93 198.658 378.627 198.826 378.248V376.854H197.572C196.873 376.861 196.326 376.99 195.932 377.24C195.537 377.486 195.34 377.826 195.34 378.26C195.34 378.615 195.471 378.91 195.732 379.145C195.998 379.379 196.342 379.496 196.764 379.496ZM206.273 373.66V380H205.57V374.264H202.975L202.863 376.637C202.816 377.516 202.729 378.188 202.6 378.652C202.471 379.113 202.279 379.453 202.025 379.672C201.771 379.891 201.434 380 201.012 380H200.742V379.379L200.959 379.367C201.361 379.359 201.65 379.164 201.826 378.781C202.002 378.398 202.117 377.715 202.172 376.73L202.301 373.66H206.273ZM208.934 375.963H210.762C211.23 375.963 211.641 376.049 211.992 376.221C212.348 376.389 212.615 376.623 212.795 376.924C212.979 377.225 213.07 377.574 213.07 377.973C213.07 378.586 212.859 379.078 212.438 379.449C212.02 379.816 211.453 380 210.738 380H208.236V373.66H208.934V375.963ZM208.934 376.561V379.408H210.75C211.254 379.408 211.648 379.281 211.934 379.027C212.223 378.773 212.367 378.426 212.367 377.984C212.367 377.562 212.227 377.223 211.945 376.965C211.668 376.703 211.287 376.568 210.803 376.561H208.934ZM219.451 380H218.748V377.094H215.332V380H214.629V373.66H215.332V376.502H218.748V373.66H219.451V380ZM222.105 375.963H223.934C224.402 375.963 224.812 376.049 225.164 376.221C225.52 376.389 225.787 376.623 225.967 376.924C226.15 377.225 226.242 377.574 226.242 377.973C226.242 378.586 226.031 379.078 225.609 379.449C225.191 379.816 224.625 380 223.91 380H221.408V373.66H222.105V375.963ZM222.105 376.561V379.408H223.922C224.426 379.408 224.82 379.281 225.105 379.027C225.395 378.773 225.539 378.426 225.539 377.984C225.539 377.562 225.398 377.223 225.117 376.965C224.84 376.703 224.459 376.568 223.975 376.561H222.105ZM228.393 380H227.689V373.66H228.393V380ZM232.336 376.232L234.047 373.66H234.879L232.729 376.771L234.973 380H234.146L232.342 377.316L230.537 380H229.711L231.949 376.771L229.799 373.66H230.625L232.336 376.232ZM238.951 379.408L239.262 379.004C239.754 378.336 240.037 377.359 240.111 376.074L240.223 373.66H243.967V379.408H244.623V381.863H243.926V380H239.162V381.863H238.488L238.494 379.408H238.951ZM239.76 379.408H243.264V374.316H240.891L240.814 375.963C240.744 377.475 240.393 378.623 239.76 379.408ZM249.979 380C249.908 379.801 249.863 379.506 249.844 379.115C249.598 379.436 249.283 379.684 248.9 379.859C248.521 380.031 248.119 380.117 247.693 380.117C247.084 380.117 246.59 379.947 246.211 379.607C245.836 379.268 245.648 378.838 245.648 378.318C245.648 377.701 245.904 377.213 246.416 376.854C246.932 376.494 247.648 376.314 248.566 376.314H249.838V375.594C249.838 375.141 249.697 374.785 249.416 374.527C249.139 374.266 248.732 374.135 248.197 374.135C247.709 374.135 247.305 374.26 246.984 374.51C246.664 374.76 246.504 375.061 246.504 375.412L245.801 375.406C245.801 374.902 246.035 374.467 246.504 374.1C246.973 373.729 247.549 373.543 248.232 373.543C248.939 373.543 249.496 373.721 249.902 374.076C250.312 374.428 250.523 374.92 250.535 375.553V378.553C250.535 379.166 250.6 379.625 250.729 379.93V380H249.979ZM247.775 379.496C248.244 379.496 248.662 379.383 249.029 379.156C249.4 378.93 249.67 378.627 249.838 378.248V376.854H248.584C247.885 376.861 247.338 376.99 246.943 377.24C246.549 377.486 246.352 377.826 246.352 378.26C246.352 378.615 246.482 378.91 246.744 379.145C247.01 379.379 247.354 379.496 247.775 379.496ZM257.279 380H256.576V377.094H253.16V380H252.457V373.66H253.16V376.502H256.576V373.66H257.279V380ZM264.029 380H263.326V377.094H259.91V380H259.207V373.66H259.91V376.502H263.326V373.66H264.029V380ZM266.684 375.963H268.512C268.98 375.963 269.391 376.049 269.742 376.221C270.098 376.389 270.365 376.623 270.545 376.924C270.729 377.225 270.82 377.574 270.82 377.973C270.82 378.586 270.609 379.078 270.188 379.449C269.77 379.816 269.203 380 268.488 380H265.986V373.66H266.684V375.963ZM266.684 376.561V379.408H268.5C269.004 379.408 269.398 379.281 269.684 379.027C269.973 378.773 270.117 378.426 270.117 377.984C270.117 377.562 269.977 377.223 269.695 376.965C269.418 376.703 269.037 376.568 268.553 376.561H266.684ZM272.971 380H272.268V373.66H272.971V380ZM276.914 376.232L278.625 373.66H279.457L277.307 376.771L279.551 380H278.725L276.92 377.316L275.115 380H274.289L276.527 376.771L274.377 373.66H275.203L276.914 376.232Z" fill="white"/>
<rect x="0.5" y="369.5" width="13" height="13" stroke="#777777"/>
<path d="M10.9498 373.082L6.00002 378.032L3.17159 375.204" stroke="#F8F200"/>
</svg>
